<svg width="945" height="935" viewBox="0 0 945 935" fill="none" xmlns="http://www.w3.org/2000/svg">
<path fill-rule="evenodd" clip-rule="evenodd" d="M261.548 835.538C267.726 847.664 279.926 855.562 293.552 856.256L439.634 863.701C453.259 864.396 466.24 857.781 473.688 846.35L553.53 723.791C560.977 712.36 561.758 697.847 555.58 685.722L489.339 555.717C483.161 543.591 470.961 535.693 457.335 534.999L311.253 527.554C297.627 526.86 284.646 533.474 277.199 544.905L197.357 667.464C189.91 678.896 189.129 693.408 195.307 705.534L261.548 835.538Z" fill="black" fill-opacity="0.03"/>
<path fill-rule="evenodd" clip-rule="evenodd" d="M287.361 465.486C293.539 477.612 305.739 485.51 319.365 486.204L465.447 493.649C479.072 494.343 492.053 487.729 499.501 476.298L579.343 353.739C586.79 342.307 587.571 327.795 581.393 315.669L515.152 185.665C508.974 173.539 496.774 165.641 483.148 164.947L337.066 157.502C323.44 156.807 310.459 163.422 303.012 174.853L223.17 297.412C215.723 308.844 214.942 323.356 221.12 335.482L287.361 465.486Z" fill="black" fill-opacity="0.03"/>
<path fill-rule="evenodd" clip-rule="evenodd" d="M600.13 663.022C606.309 675.148 618.508 683.046 632.134 683.74L778.216 691.185C791.842 691.879 804.823 685.265 812.27 673.834L892.112 551.275C899.56 539.843 900.341 525.331 894.162 513.205L827.922 383.201C821.743 371.075 809.544 363.177 795.918 362.482L649.836 355.037C636.21 354.343 623.229 360.957 615.781 372.389L535.94 494.948C528.493 506.38 527.711 520.892 533.89 533.018L600.13 663.022Z" fill="black" fill-opacity="0.03"/>
<path fill-rule="evenodd" clip-rule="evenodd" d="M433.047 393.576C432.749 399.263 435.515 404.678 440.305 407.781L491.651 441.043C496.441 444.145 502.525 444.464 507.612 441.879L562.155 414.166C567.242 411.582 570.559 406.485 570.858 400.798L574.053 339.823C574.351 334.135 571.585 328.721 566.795 325.618L515.448 292.356C510.659 289.253 504.575 288.934 499.487 291.519L444.945 319.232C439.858 321.817 436.54 326.913 436.242 332.601L433.047 393.576Z" fill="url(#paint0_linear_103_163)"/>
<defs>
<linearGradient id="paint0_linear_103_163" x1="415.322" y1="401.331" x2="589.603" y2="523.933" gradientUnits="userSpaceOnUse">
<stop stop-color="#233565"/>
<stop offset="1" stop-color="#8BD8BC"/>
</linearGradient>
</defs>
</svg>
