<svg width="1000" height="1080" viewBox="0 0 1000 1080" fill="none" xmlns="http://www.w3.org/2000/svg">
<path fill-rule="evenodd" clip-rule="evenodd" d="M116.654 538.61C122.832 550.736 135.032 558.634 148.658 559.328L294.74 566.773C308.366 567.467 321.347 560.853 328.794 549.422L408.636 426.863C416.083 415.431 416.864 400.919 410.686 388.793L344.446 258.789C338.267 246.663 326.067 238.765 312.441 238.071L166.359 230.626C152.734 229.931 139.753 236.546 132.305 247.977L52.4634 370.536C45.0163 381.968 44.2348 396.48 50.4134 408.606L116.654 538.61Z" fill="black" fill-opacity="0.03"/>
<path fill-rule="evenodd" clip-rule="evenodd" d="M373.046 409.576C372.748 415.263 375.515 420.678 380.304 423.781L431.651 457.043C436.44 460.145 442.525 460.464 447.612 457.879L502.154 430.167C507.242 427.582 510.559 422.486 510.857 416.798L514.053 355.823C514.351 350.136 511.584 344.721 506.795 341.618L455.448 308.356C450.659 305.253 444.575 304.935 439.487 307.519L384.945 335.232C379.858 337.817 376.54 342.913 376.242 348.601L373.046 409.576Z" fill="url(#paint0_linear_103_168)"/>
<path fill-rule="evenodd" clip-rule="evenodd" d="M485.016 845.053C494.266 863.209 512.511 875.045 532.878 876.103L751.226 887.442C771.592 888.5 790.985 878.619 802.101 861.52L921.269 678.208C932.385 661.109 933.533 639.391 924.282 621.236L825.101 426.583C815.85 408.426 797.605 396.59 777.238 395.532L558.89 384.192C538.524 383.135 519.131 393.016 508.015 410.115L388.847 593.427C377.732 610.526 376.584 632.243 385.835 650.4L485.016 845.053Z" fill="black" fill-opacity="0.03"/>
<defs>
<linearGradient id="paint0_linear_103_168" x1="430.622" y1="267.74" x2="265.985" y2="350.161" gradientUnits="userSpaceOnUse">
<stop stop-color="#233565"/>
<stop offset="1" stop-color="#8BD8BC"/>
</linearGradient>
</defs>
</svg>
