<svg width="800" height="800" viewBox="0 0 800 800" fill="none" xmlns="http://www.w3.org/2000/svg">
<path fill-rule="evenodd" clip-rule="evenodd" d="M400 66.6667C309.466 66.6667 298.133 67.0444 262.577 68.6667C227.089 70.2891 202.844 75.9334 181.644 84.1777C159.422 92.5334 139.267 105.644 122.6 122.622C105.649 139.27 92.5302 159.411 84.1555 181.644C75.9555 202.844 70.2888 227.111 68.6665 262.6C67.0665 298.133 66.6665 309.444 66.6665 400C66.6665 490.557 67.0442 501.867 68.6665 537.423C70.2888 572.91 75.9332 597.157 84.1775 618.357C92.5332 640.577 105.644 660.733 122.622 677.4C139.27 694.35 159.411 707.47 181.644 715.843C202.844 724.067 227.089 729.71 262.577 731.333C298.133 732.957 309.466 733.333 400 733.333C490.533 733.333 501.866 732.957 537.423 731.333C572.91 729.71 597.156 724.067 618.356 715.823C640.576 707.467 660.733 694.357 677.4 677.377C694.35 660.73 707.47 640.59 715.843 618.357C724.066 597.157 729.71 572.91 731.333 537.423C732.956 501.867 733.333 490.533 733.333 400C733.333 309.467 732.956 298.133 731.333 262.578C729.71 227.089 724.067 202.844 715.823 181.644C707.453 159.401 694.333 139.252 677.376 122.6C660.73 105.649 640.59 92.5304 618.356 84.1557C597.156 75.9557 572.89 70.2891 537.4 68.6667C501.866 67.0667 490.556 66.6667 400 66.6667ZM400 126.733C489 126.733 499.556 127.067 534.71 128.667C567.2 130.156 584.843 135.556 596.6 140.156C612.157 146.178 623.266 153.422 634.933 165.067C646.6 176.733 653.823 187.844 659.843 203.4C664.423 215.156 669.843 232.8 671.333 265.289C672.933 300.444 673.266 311 673.266 400C673.266 489 672.933 499.557 671.333 534.71C669.843 567.2 664.443 584.843 659.843 596.6C654.51 611.08 645.996 624.177 634.933 634.933C624.18 646 611.08 654.513 596.6 659.843C584.843 664.423 567.2 669.843 534.71 671.333C499.556 672.933 489.023 673.267 400 673.267C310.977 673.267 300.444 672.933 265.289 671.333C232.8 669.843 215.156 664.443 203.4 659.843C188.921 654.51 175.822 645.997 165.067 634.933C154.004 624.177 145.491 611.077 140.155 596.6C135.577 584.843 130.155 567.2 128.666 534.71C127.066 499.557 126.733 489 126.733 400C126.733 311 127.066 300.444 128.666 265.289C130.155 232.8 135.555 215.156 140.155 203.4C146.177 187.844 153.422 176.733 165.067 165.067C175.821 154.001 188.92 145.488 203.4 140.156C215.156 135.578 232.8 130.156 265.289 128.667C300.444 127.067 311 126.733 400 126.733Z" fill="white"/>
<path fill-rule="evenodd" clip-rule="evenodd" d="M400 511.223C385.393 511.223 370.933 508.347 357.437 502.757C343.943 497.167 331.682 488.973 321.355 478.647C311.027 468.317 302.834 456.057 297.245 442.563C291.655 429.07 288.778 414.607 288.778 400C288.778 385.393 291.655 370.93 297.245 357.437C302.834 343.943 311.027 331.682 321.355 321.354C331.682 311.026 343.943 302.834 357.437 297.244C370.933 291.655 385.393 288.778 400 288.778C429.5 288.778 457.787 300.496 478.647 321.354C499.503 342.213 511.223 370.503 511.223 400C511.223 429.497 499.503 457.787 478.647 478.647C457.787 499.503 429.5 511.223 400 511.223ZM400 228.667C354.56 228.667 310.981 246.718 278.85 278.849C246.718 310.98 228.667 354.56 228.667 400C228.667 445.44 246.718 489.02 278.85 521.15C310.981 553.283 354.56 571.333 400 571.333C445.44 571.333 489.02 553.283 521.15 521.15C553.283 489.02 571.333 445.44 571.333 400C571.333 354.56 553.283 310.98 521.15 278.849C489.02 246.718 445.44 228.667 400 228.667ZM621.177 225.556C621.177 236.297 616.91 246.598 609.317 254.193C601.72 261.789 591.42 266.056 580.68 266.056C569.937 266.056 559.637 261.789 552.04 254.193C544.447 246.598 540.177 236.297 540.177 225.556C540.177 214.814 544.447 204.513 552.04 196.918C559.637 189.323 569.937 185.056 580.68 185.056C591.42 185.056 601.72 189.323 609.317 196.918C616.91 204.513 621.177 214.814 621.177 225.556Z" fill="white"/>
</svg>
