<svg width="1000" height="214" viewBox="0 0 1000 214" fill="none" xmlns="http://www.w3.org/2000/svg">
<g clip-path="url(#clip0_10_325)">
<g clip-path="url(#clip1_10_325)">
<g clip-path="url(#clip2_10_325)">
<path d="M288.041 29.7035C288.041 22.8157 285.157 17.2321 281.601 17.2321C278.044 17.2321 275.161 22.8157 275.161 29.7035V184.529C275.161 191.416 278.044 197 281.601 197C285.157 197 288.041 191.416 288.041 184.529V29.7035Z" fill="#233565"/>
<g clip-path="url(#clip3_10_325)">
<g clip-path="url(#clip4_10_325)">
<g clip-path="url(#clip5_10_325)">
<g clip-path="url(#clip6_10_325)">
<path d="M321.77 141.967L326.104 132.786C336.048 138.045 345.775 140.674 355.288 140.674C366.326 140.674 372.787 137.148 374.672 130.094C375.282 127.761 375.587 125.087 375.587 122.071V119.487C375.587 116.436 375.372 113.968 374.941 112.083C374.492 110.199 373.568 108.664 372.168 107.48C369.889 105.505 364.495 103.863 355.988 102.553C348.414 101.368 343.182 100.246 340.292 99.1875C337.403 98.1286 335.025 96.9799 333.158 95.7415C331.291 94.4851 329.703 92.9147 328.393 91.0301C325.683 87.0995 324.328 81.6433 324.328 74.6615V74.0154C324.328 59.5493 330.331 50.8983 342.338 48.0625C346.143 47.1831 350.46 46.7434 355.288 46.7434H356.122C367.394 46.7434 376.601 48.3587 383.745 51.5893L380.325 61.6582C371.692 57.925 363.741 56.0584 356.472 56.0584H355.88C347.857 56.0584 342.329 57.575 339.296 60.6082C336.766 63.1568 335.5 67.5631 335.5 73.8269V74.0692C335.5 81.2126 337.474 85.906 341.423 88.1495C344.079 89.5853 348.863 90.8596 355.773 91.9724C362.665 93.0672 367.798 93.9916 371.172 94.7454C374.546 95.5171 377.418 96.7825 379.787 98.5414C384.705 102.221 387.164 109.203 387.164 119.487V120.348C387.164 136.089 380.828 145.467 368.157 148.482C364.262 149.451 360.583 149.936 357.119 149.936C353.655 149.936 350.514 149.81 347.696 149.559C344.86 149.325 341.979 148.904 339.054 148.293C332.162 146.893 326.401 144.784 321.77 141.967ZM446.231 79.2652C437.508 79.2652 428.857 81.7869 420.278 86.8303V148.616H409.374V36.7553L420.009 35.7053V78.4845C424.531 74.6256 430.4 71.8437 437.616 70.1386C440.523 69.4386 443.942 69.0887 447.873 69.0887C451.821 69.0887 455.285 69.5374 458.265 70.4348C461.244 71.3322 463.613 72.768 465.372 74.7423C468.531 78.296 470.11 84.7573 470.11 94.1262V148.616H459.045V96.0915C459.045 89.7917 458.435 85.7265 457.215 83.8958C455.994 82.083 454.541 80.8626 452.853 80.2344C451.166 79.5883 448.959 79.2652 446.231 79.2652ZM496.656 109.714C496.656 99.7529 497.158 92.807 498.163 88.8764C499.168 84.9278 500.407 81.8048 501.878 79.5075C503.332 77.2101 505.316 75.2897 507.828 73.7462C512.818 70.6412 520.194 69.0887 529.958 69.0887C544.083 69.0887 553.156 72.5706 557.176 79.5344C559.581 83.7343 560.963 89.6751 561.322 97.3568C561.448 100.982 561.511 104.985 561.511 109.364C561.511 113.761 561.367 117.853 561.08 121.64C560.811 125.428 560.254 128.829 559.411 131.844C558.585 134.877 557.428 137.525 555.938 139.786C554.448 142.029 552.474 143.923 550.015 145.467C545.187 148.446 538.151 149.936 528.908 149.936C515.07 149.936 505.98 146.516 501.636 139.678C498.962 135.425 497.409 129.466 496.979 121.802C496.763 118.123 496.656 114.093 496.656 109.714ZM514.532 137.121C516.111 138.305 518.094 139.194 520.482 139.786C522.869 140.378 526.126 140.674 530.254 140.674C534.4 140.674 537.891 140.082 540.727 138.898C543.545 137.713 545.663 135.81 547.081 133.19C548.516 130.588 549.414 127.204 549.773 123.04C550.15 118.877 550.338 114.04 550.338 108.529C550.338 103.001 550.177 98.3978 549.854 94.7184C549.53 91.0391 548.705 87.9969 547.377 85.5919C544.756 80.8536 538.914 78.4845 529.85 78.4845C520.248 78.4845 514.002 80.8536 511.113 85.5919C509.659 87.9969 508.735 91.0571 508.34 94.7723C507.945 98.5055 507.747 102.562 507.747 106.941C507.747 111.32 507.801 115.036 507.909 118.087C508.017 121.138 508.304 123.875 508.77 126.298C509.237 128.739 509.919 130.857 510.817 132.652C511.714 134.446 512.952 135.936 514.532 137.121ZM599.04 143.959V178.527H588.137V70.4078H596.994L598.259 78.4845C603.375 74.6256 610.051 71.7988 618.289 70.004C621.269 69.3938 624.517 69.0887 628.035 69.0887C631.535 69.0887 634.631 69.5463 637.323 70.4617C640.015 71.377 642.241 72.6603 644 74.3115C645.759 75.9628 647.114 77.9191 648.065 80.1805C649.034 82.4599 649.761 84.9368 650.246 87.611C650.856 91.2904 651.161 97.1684 651.161 105.245V106.753C651.161 117.001 650.811 124.099 650.111 128.048C649.411 131.997 648.487 135.245 647.338 137.794C646.208 140.36 644.637 142.541 642.627 144.336C638.463 148.069 632.02 149.936 623.297 149.936C614.574 149.936 606.489 147.943 599.04 143.959ZM599.04 86.9111V134.94C606.489 138.368 614.314 140.082 622.516 140.082C627.847 140.082 631.741 139.095 634.2 137.121C637.539 134.393 639.405 128.057 639.8 118.114C639.926 114.829 639.989 111.06 639.989 106.806V105.38C639.989 95.2928 639.109 88.5443 637.35 85.1342C635.394 81.2215 631.32 79.2652 625.128 79.2652H624.158C617.715 79.2652 611.029 80.8715 604.101 84.0842C602.091 84.9996 600.404 85.9419 599.04 86.9111ZM671.783 148.616L687.318 48.0625H704.467L727.324 122.314L731.2 138.359L734.97 122.26L757.046 48.0625H773.414L789.648 148.616H778.476L766.253 72.6424L764.395 54.9007L760.384 72.777L737.716 148.563H724.766L701.102 72.3732L696.444 54.9007L694.21 72.5078L683.091 148.616H671.783ZM872.837 96.3607V120.887C872.837 129.609 873.259 138.673 874.103 148.078L864.384 148.886L862.715 139.732C857.151 144.201 849.792 147.315 840.639 149.074C837.659 149.648 835.012 149.936 832.697 149.936C830.363 149.936 828.308 149.828 826.531 149.613C824.773 149.379 823.067 148.948 821.416 148.32C819.783 147.692 818.257 146.804 816.839 145.655C815.44 144.524 814.219 143.017 813.178 141.132C810.935 137.148 809.813 132.355 809.813 126.756C809.813 121.174 810.217 116.839 811.024 113.752C811.832 110.665 813.178 108.09 815.063 106.026C818.796 101.952 825.069 99.9144 833.881 99.9144C842.676 99.9144 852.071 101.575 862.069 104.895V96.3607C862.069 86.8482 858.147 81.2215 850.304 79.4806C847.755 78.9062 844.838 78.6191 841.554 78.6191C834.07 78.6191 826.298 80.1088 818.239 83.0881L815.79 73.6116C818.033 72.1219 823.732 70.7847 832.885 69.6002C835.775 69.2592 839.248 69.0887 843.304 69.0887C847.36 69.0887 851.336 69.5733 855.23 70.5425C859.125 71.4937 862.365 73.0641 864.949 75.2538C870.208 79.5972 872.837 86.6329 872.837 96.3607ZM861.799 113.133C851.551 110.549 842.092 109.256 833.423 109.256C828.075 109.256 824.521 110.782 822.762 113.833C821.578 115.987 820.985 119.164 820.985 123.364C820.985 127.581 821.219 130.632 821.685 132.517C822.134 134.402 822.888 135.954 823.947 137.175C826.011 139.508 829.403 140.674 834.123 140.674C841.536 140.674 848.877 138.763 856.146 134.94C858.389 133.809 860.408 132.544 862.203 131.144C861.934 126.406 861.799 120.402 861.799 113.133ZM930.693 79.9382C925.075 79.9382 919.35 82.7381 913.517 88.3379V148.616H902.613V70.4078H912.224L913.274 80.7728C915.32 77.5781 917.537 75.0833 919.924 73.2885C922.329 71.4937 924.294 70.3989 925.82 70.004C928.01 69.3938 930.092 69.0887 932.066 69.0887C934.04 69.0887 936.517 69.4835 939.496 70.2732L938.5 80.719C936.275 80.1985 933.672 79.9382 930.693 79.9382ZM993.502 136.313L997.271 144.874C990.128 148.248 983.532 149.936 977.483 149.936C966.517 149.936 960.289 145.242 958.799 135.855C958.458 133.63 958.288 130.39 958.288 126.136V79.5344H948.811V71.4578L958.288 70.4078L959.984 52.5316H969.137V70.4078H991.94V79.5344H969.137V125.948C969.137 131.332 969.532 134.769 970.322 136.259C971.758 138.969 974.648 140.324 978.991 140.324C983.334 140.324 988.171 138.987 993.502 136.313Z" fill="#233565"/>
</g>
</g>
</g>
</g>
<g clip-path="url(#clip7_10_325)">
<g clip-path="url(#clip8_10_325)">
<path d="M216.862 2.70218C216.21 1.07116 214.634 0 212.88 0H32.9248C31.2309 0 29.697 0.996893 29.0086 2.54508L1.87251 63.5727C1.62971 64.1211 1.50403 64.7124 1.50403 65.3123V68.4343C1.50403 83.6705 12.647 96.8672 27.2119 100.572V174.242C27.2119 195.545 45.8987 214.232 67.2019 214.232H80.0558H160.036H178.603C199.078 214.232 215.736 196.294 215.736 174.242V100.938C230.593 97.8299 241.444 84.6703 241.444 68.4343V65.3237C241.444 64.781 241.341 64.2439 241.141 63.7412L216.862 2.70218ZM231.561 62.8414H185.184L172.261 8.56929H209.975L231.561 62.8414ZM118.618 8.56929V62.8414H69.4299L82.3524 8.56929H118.618ZM163.452 8.56929L176.375 62.8414H127.187V8.56929H163.452ZM118.523 68.5543C118.458 82.0824 107.455 93.071 93.9381 93.071C80.4072 93.071 69.3956 82.0824 69.3299 68.5543H118.523ZM176.098 68.5543C176.032 82.0824 165.089 93.071 151.644 93.071C138.147 93.071 127.17 82.0824 127.101 68.5543H176.098ZM35.7098 8.56929H73.5432L60.6207 62.8414H11.5758L35.7098 8.56929ZM10.079 68.5543H60.7464C60.6778 81.8567 49.1064 93.071 35.4127 93.071C34.7472 93.071 34.0902 93.0225 33.4361 92.9711C33.2675 92.9625 33.0676 92.9511 32.8619 92.9396C20.3108 91.6542 10.1447 81.0198 10.079 68.5543ZM84.3405 205.663V151.379C84.3405 141.576 94.7836 134.252 104.124 134.252H138.824C148.476 134.252 155.751 141.616 155.751 151.379V205.663H84.3405ZM207.167 174.242C207.167 191.566 194.353 205.663 178.603 205.663H164.321V151.379C164.321 136.969 153.12 125.683 138.824 125.683H104.124C90.7132 125.683 75.7712 136.235 75.7712 151.379V205.663H67.2019C50.7574 205.663 35.7812 190.687 35.7812 174.242V101.64C35.8669 101.64 35.9497 101.623 36.0354 101.62C37.4522 101.595 38.849 101.486 40.2258 101.286C40.3372 101.272 40.4429 101.246 40.5514 101.229C41.9368 101.012 43.2964 100.721 44.6247 100.338C44.7161 100.312 44.8018 100.278 44.8903 100.252C46.23 99.8551 47.5382 99.3837 48.8094 98.8325C48.8808 98.801 48.9493 98.7668 49.0207 98.7325C50.3004 98.1669 51.5401 97.5299 52.7341 96.8158C52.7884 96.7844 52.8369 96.7501 52.8883 96.7158C54.0909 95.9875 55.2506 95.1934 56.3532 94.3307C56.3875 94.3022 56.4189 94.2736 56.456 94.245C57.5672 93.3681 58.6269 92.4283 59.6209 91.4257C59.6409 91.4057 59.6581 91.3829 59.6781 91.3657C60.6807 90.3517 61.6233 89.2777 62.4888 88.1466C62.4974 88.1351 62.5059 88.1237 62.5145 88.1123C63.3886 86.9697 64.1941 85.7757 64.9168 84.5332C70.5868 94.7278 81.4698 101.64 93.9352 101.64C106.301 101.64 117.109 94.8277 122.808 84.7531C128.501 94.8277 139.292 101.64 151.644 101.64C163.941 101.64 174.689 94.8477 180.376 84.7988C181.065 86.0242 181.836 87.1982 182.67 88.3208C182.95 88.695 183.273 89.0292 183.564 89.392C184.15 90.1146 184.727 90.8402 185.372 91.5114C185.761 91.9142 186.186 92.2712 186.592 92.6511C187.2 93.2253 187.8 93.808 188.449 94.3336C188.911 94.7078 189.409 95.0334 189.891 95.3819C190.54 95.8532 191.177 96.3274 191.856 96.7501C192.385 97.0757 192.939 97.35 193.482 97.647C194.164 98.0184 194.85 98.3954 195.561 98.7182C196.141 98.981 196.744 99.1952 197.341 99.4266C198.061 99.7037 198.78 99.9807 199.529 100.206C200.152 100.395 200.789 100.541 201.426 100.692C202.185 100.872 202.939 101.046 203.719 101.172C204.373 101.28 205.042 101.346 205.71 101.412C206.201 101.46 206.673 101.56 207.167 101.586V174.242ZM211.692 92.9054C211.609 92.9025 211.532 92.8825 211.452 92.8825C211.189 92.8825 210.943 92.9396 210.697 92.9825C210.118 93.0225 209.543 93.071 208.952 93.071C195.378 93.071 184.738 82.3109 184.678 68.5543H232.869C232.815 81.354 223.731 91.5514 211.692 92.9054Z" fill="#8BD8BC"/>
</g>
</g>
</g>
</g>
</g>
<defs>
<clipPath id="clip0_10_325">
<rect width="1000" height="214" fill="white" transform="translate(-0.606079 0.116089)"/>
</clipPath>
<clipPath id="clip1_10_325">
<rect width="995.78" height="214.232" fill="white" transform="translate(1.50403)"/>
</clipPath>
<clipPath id="clip2_10_325">
<rect width="995.78" height="214.232" fill="white" transform="translate(1.50403)"/>
</clipPath>
<clipPath id="clip3_10_325">
<rect width="675.526" height="142.821" fill="white" transform="translate(321.757 35.7053)"/>
</clipPath>
<clipPath id="clip4_10_325">
<rect width="675.526" height="142.821" fill="white" transform="translate(321.757 35.7053)"/>
</clipPath>
<clipPath id="clip5_10_325">
<rect width="675.526" height="142.821" fill="white" transform="translate(321.757 35.7053)"/>
</clipPath>
<clipPath id="clip6_10_325">
<rect width="675.526" height="142.821" fill="white" transform="translate(321.757 35.7053)"/>
</clipPath>
<clipPath id="clip7_10_325">
<rect width="239.94" height="214.232" fill="white" transform="translate(1.50403)"/>
</clipPath>
<clipPath id="clip8_10_325">
<rect width="239.94" height="214.232" fill="white" transform="translate(1.50403)"/>
</clipPath>
</defs>
</svg>
