<svg width="1000" height="214" viewBox="0 0 1000 214" fill="none" xmlns="http://www.w3.org/2000/svg">
<g clip-path="url(#clip0_10_373)">
<g clip-path="url(#clip1_10_373)">
<g clip-path="url(#clip2_10_373)">
<path d="M288.647 29.5874C288.647 22.6996 285.763 17.116 282.207 17.116C278.65 17.116 275.767 22.6996 275.767 29.5874V184.412C275.767 191.3 278.65 196.884 282.207 196.884C285.763 196.884 288.647 191.3 288.647 184.412V29.5874Z" fill="white"/>
<g clip-path="url(#clip3_10_373)">
<g clip-path="url(#clip4_10_373)">
<g clip-path="url(#clip5_10_373)">
<g clip-path="url(#clip6_10_373)">
<path d="M322.376 141.85L326.71 132.67C336.654 137.929 346.382 140.558 355.894 140.558C366.932 140.558 373.393 137.031 375.278 129.978C375.888 127.645 376.193 124.97 376.193 121.955V119.371C376.193 116.319 375.978 113.852 375.547 111.967C375.098 110.082 374.174 108.548 372.774 107.363C370.495 105.389 365.101 103.747 356.594 102.437C349.02 101.252 343.788 100.13 340.898 99.0713C338.009 98.0124 335.631 96.8637 333.764 95.6253C331.897 94.3689 330.309 92.7985 328.999 90.9139C326.289 86.9833 324.934 81.5271 324.934 74.5453V73.8992C324.934 59.4331 330.937 50.7821 342.944 47.9463C346.749 47.0669 351.066 46.6271 355.894 46.6271H356.729C368 46.6271 377.207 48.2425 384.351 51.4731L380.931 61.542C372.298 57.8088 364.348 55.9422 357.079 55.9422H356.486C348.464 55.9422 342.936 57.4588 339.902 60.492C337.372 63.0406 336.106 67.4469 336.106 73.7107V73.953C336.106 81.0963 338.081 85.7898 342.029 88.0333C344.685 89.4691 349.469 90.7434 356.379 91.8562C363.271 92.951 368.404 93.8753 371.778 94.6292C375.152 95.4009 378.024 96.6663 380.393 98.4252C385.311 102.105 387.77 109.086 387.77 119.371V120.232C387.77 135.972 381.434 145.35 368.763 148.366C364.868 149.335 361.189 149.819 357.725 149.819C354.261 149.819 351.12 149.694 348.302 149.442C345.466 149.209 342.586 148.787 339.66 148.177C332.768 146.777 327.007 144.668 322.376 141.85ZM446.837 79.149C438.114 79.149 429.463 81.6707 420.884 86.7141V148.5H409.98V36.6391L420.615 35.5891V78.3682C425.137 74.5094 431.006 71.7275 438.222 70.0224C441.129 69.3224 444.548 68.9724 448.479 68.9724C452.427 68.9724 455.891 69.4211 458.871 70.3185C461.85 71.216 464.219 72.6518 465.978 74.6261C469.137 78.1798 470.717 84.6411 470.717 94.01V148.5H459.652V95.9753C459.652 89.6755 459.041 85.6103 457.821 83.7796C456.6 81.9668 455.147 80.7464 453.459 80.1182C451.772 79.472 449.565 79.149 446.837 79.149ZM497.262 109.598C497.262 99.6367 497.764 92.6908 498.769 88.7602C499.774 84.8116 501.013 81.6886 502.485 79.3913C503.938 77.0939 505.922 75.1735 508.434 73.63C513.424 70.525 520.801 68.9724 530.564 68.9724C544.689 68.9724 553.762 72.4544 557.782 79.4182C560.187 83.618 561.569 89.5588 561.928 97.2406C562.054 100.866 562.117 104.869 562.117 109.248C562.117 113.645 561.973 117.737 561.686 121.524C561.417 125.311 560.86 128.712 560.017 131.728C559.191 134.761 558.034 137.408 556.544 139.67C555.054 141.913 553.08 143.807 550.621 145.35C545.793 148.33 538.757 149.819 529.514 149.819C515.676 149.819 506.586 146.4 502.242 139.562C499.568 135.308 498.015 129.35 497.585 121.686C497.369 118.006 497.262 113.977 497.262 109.598ZM515.138 137.004C516.717 138.189 518.701 139.077 521.088 139.67C523.475 140.262 526.732 140.558 530.86 140.558C535.006 140.558 538.497 139.966 541.333 138.781C544.151 137.597 546.269 135.694 547.687 133.074C549.122 130.471 550.02 127.088 550.379 122.924C550.756 118.76 550.944 113.923 550.944 108.413C550.944 102.885 550.783 98.2816 550.46 94.6022C550.137 90.9229 549.311 87.8807 547.983 85.4757C545.362 80.7374 539.52 78.3682 530.457 78.3682C520.854 78.3682 514.608 80.7374 511.719 85.4757C510.265 87.8807 509.341 90.9408 508.946 94.6561C508.551 98.3893 508.354 102.446 508.354 106.825C508.354 111.204 508.407 114.919 508.515 117.971C508.623 121.022 508.91 123.759 509.377 126.182C509.843 128.623 510.525 130.741 511.423 132.535C512.32 134.33 513.558 135.82 515.138 137.004ZM599.646 143.843V178.411H588.743V70.2916H597.6L598.865 78.3682C603.981 74.5094 610.657 71.6826 618.895 69.8878C621.875 69.2776 625.123 68.9724 628.641 68.9724C632.141 68.9724 635.237 69.4301 637.929 70.3455C640.622 71.2608 642.847 72.5441 644.606 74.1953C646.365 75.8465 647.72 77.8029 648.671 80.0643C649.64 82.3437 650.367 84.8206 650.852 87.4948C651.462 91.1742 651.767 97.0521 651.767 105.129V106.636C651.767 116.885 651.417 123.983 650.717 127.932C650.017 131.88 649.093 135.129 647.944 137.678C646.814 140.244 645.243 142.425 643.233 144.22C639.069 147.953 632.626 149.819 623.903 149.819C615.18 149.819 607.095 147.827 599.646 143.843ZM599.646 86.7948V134.824C607.095 138.252 614.92 139.966 623.122 139.966C628.453 139.966 632.348 138.979 634.806 137.004C638.145 134.276 640.011 127.941 640.406 117.998C640.532 114.713 640.595 110.944 640.595 106.69V105.263C640.595 95.1766 639.715 88.4281 637.956 85.018C636 81.1053 631.926 79.149 625.734 79.149H624.764C618.321 79.149 611.635 80.7553 604.708 83.968C602.697 84.8834 601.01 85.8257 599.646 86.7948ZM672.39 148.5L687.924 47.9463H705.073L727.93 122.197L731.807 138.243L735.576 122.143L757.652 47.9463H774.02L790.254 148.5H779.082L766.859 72.5262L765.001 54.7845L760.99 72.6608L738.322 148.446H725.372L701.708 72.2569L697.05 54.7845L694.816 72.3915L683.697 148.5H672.39ZM873.443 96.2445V120.77C873.443 129.493 873.865 138.557 874.709 147.962L864.99 148.769L863.321 139.616C857.757 144.085 850.398 147.199 841.245 148.958C838.265 149.532 835.618 149.819 833.303 149.819C830.969 149.819 828.914 149.712 827.138 149.496C825.379 149.263 823.674 148.832 822.022 148.204C820.389 147.576 818.863 146.687 817.446 145.539C816.046 144.408 814.825 142.9 813.784 141.016C811.541 137.031 810.419 132.239 810.419 126.639C810.419 121.058 810.823 116.723 811.63 113.636C812.438 110.549 813.784 107.974 815.669 105.91C819.402 101.835 825.675 99.7982 834.487 99.7982C843.282 99.7982 852.678 101.458 862.675 104.779V96.2445C862.675 86.732 858.753 81.1053 850.91 79.3644C848.361 78.79 845.444 78.5029 842.16 78.5029C834.676 78.5029 826.904 79.9925 818.846 82.9719L816.396 73.4954C818.639 72.0057 824.338 70.6685 833.491 69.484C836.381 69.143 839.854 68.9724 843.91 68.9724C847.966 68.9724 851.942 69.457 855.836 70.4262C859.731 71.3775 862.971 72.9479 865.555 75.1376C870.814 79.481 873.443 86.5167 873.443 96.2445ZM862.405 113.017C852.157 110.432 842.698 109.14 834.03 109.14C828.681 109.14 825.127 110.666 823.368 113.717C822.184 115.871 821.592 119.047 821.592 123.247C821.592 127.465 821.825 130.516 822.292 132.401C822.74 134.285 823.494 135.838 824.553 137.058C826.617 139.392 830.009 140.558 834.73 140.558C842.142 140.558 849.483 138.647 856.752 134.824C858.995 133.693 861.014 132.428 862.809 131.028C862.54 126.289 862.405 120.286 862.405 113.017ZM931.299 79.822C925.681 79.822 919.956 82.6219 914.123 88.2217V148.5H903.219V70.2916H912.83L913.88 80.6566C915.926 77.4619 918.143 74.9671 920.53 73.1723C922.935 71.3775 924.9 70.2827 926.426 69.8878C928.616 69.2776 930.698 68.9724 932.672 68.9724C934.646 68.9724 937.123 69.3673 940.102 70.157L939.106 80.6028C936.881 80.0823 934.278 79.822 931.299 79.822ZM994.108 136.197L997.877 144.758C990.734 148.132 984.138 149.819 978.089 149.819C967.123 149.819 960.895 145.126 959.406 135.739C959.064 133.514 958.894 130.274 958.894 126.02V79.4182H949.417V71.3416L958.894 70.2916L960.59 52.4154H969.744V70.2916H992.547V79.4182H969.744V125.832C969.744 131.216 970.138 134.653 970.928 136.143C972.364 138.853 975.254 140.208 979.597 140.208C983.94 140.208 988.777 138.871 994.108 136.197Z" fill="white"/>
</g>
</g>
</g>
</g>
<g clip-path="url(#clip7_10_373)">
<g clip-path="url(#clip8_10_373)">
<path d="M217.468 2.58597C216.816 0.95495 215.24 -0.116211 213.486 -0.116211H33.5308C31.837 -0.116211 30.3031 0.880682 29.6147 2.42887L2.47859 63.4565C2.23579 64.0049 2.11011 64.5962 2.11011 65.1961V68.3181C2.11011 83.5543 13.253 96.751 27.818 100.456V174.126C27.818 195.429 46.5047 214.116 67.808 214.116H80.6619H160.642H179.209C199.684 214.116 216.342 196.178 216.342 174.126V100.821C231.199 97.7136 242.05 84.5541 242.05 68.3181V65.2075C242.05 64.6647 241.947 64.1277 241.747 63.625L217.468 2.58597ZM232.167 62.7252H185.79L172.867 8.45308H210.581L232.167 62.7252ZM119.224 8.45308V62.7252H70.036L82.9585 8.45308H119.224ZM164.058 8.45308L176.981 62.7252H127.793V8.45308H164.058ZM119.129 68.4381C119.064 81.9661 108.061 92.9548 94.5442 92.9548C81.0133 92.9548 70.0017 81.9661 69.936 68.4381H119.129ZM176.704 68.4381C176.638 81.9661 165.695 92.9548 152.25 92.9548C138.753 92.9548 127.776 81.9661 127.707 68.4381H176.704ZM36.3158 8.45308H74.1493L61.2268 62.7252H12.1819L36.3158 8.45308ZM10.6851 68.4381H61.3525C61.2839 81.7405 49.7125 92.9548 36.0188 92.9548C35.3532 92.9548 34.6963 92.9063 34.0421 92.8549C33.8736 92.8463 33.6737 92.8349 33.468 92.8234C20.9168 91.538 10.7508 80.9036 10.6851 68.4381ZM84.9466 205.547V151.263C84.9466 141.46 95.3897 134.136 104.73 134.136H139.43C149.082 134.136 156.357 141.5 156.357 151.263V205.547H84.9466ZM207.773 174.126C207.773 191.45 194.959 205.547 179.209 205.547H164.927V151.263C164.927 136.852 153.727 125.567 139.43 125.567H104.73C91.3192 125.567 76.3773 136.118 76.3773 151.263V205.547H67.808C51.3635 205.547 36.3873 190.57 36.3873 174.126V101.524C36.473 101.524 36.5558 101.507 36.6415 101.504C38.0583 101.478 39.4551 101.37 40.8319 101.17C40.9433 101.156 41.049 101.13 41.1575 101.113C42.5429 100.896 43.9025 100.604 45.2308 100.222C45.3222 100.196 45.4079 100.162 45.4964 100.136C46.8361 99.7388 48.1443 99.2675 49.4154 98.7162C49.4868 98.6848 49.5554 98.6505 49.6268 98.6163C50.9065 98.0507 52.1462 97.4137 53.3402 96.6996C53.3944 96.6682 53.443 96.6339 53.4944 96.5996C54.697 95.8712 55.8567 95.0771 56.9593 94.2145C56.9935 94.1859 57.025 94.1574 57.0621 94.1288C58.1732 93.2519 59.233 92.3121 60.227 91.3095C60.247 91.2895 60.2642 91.2667 60.2841 91.2495C61.2868 90.2355 62.2294 89.1615 63.0949 88.0303C63.1034 88.0189 63.112 88.0075 63.1206 87.9961C63.9946 86.8535 64.8002 85.6595 65.5228 84.417C71.1929 94.6116 82.0759 101.524 94.5413 101.524C106.907 101.524 117.716 94.7115 123.414 84.6369C129.107 94.7115 139.899 101.524 152.25 101.524C164.547 101.524 175.295 94.7315 180.983 84.6826C181.671 85.908 182.442 87.082 183.276 88.2046C183.556 88.5788 183.879 88.913 184.17 89.2757C184.756 89.9984 185.333 90.724 185.978 91.3952C186.367 91.798 186.793 92.155 187.198 92.5349C187.807 93.1091 188.406 93.6918 189.055 94.2174C189.518 94.5916 190.015 94.9172 190.497 95.2657C191.146 95.737 191.783 96.2112 192.463 96.6339C192.991 96.9595 193.545 97.2338 194.088 97.5308C194.771 97.9022 195.456 98.2792 196.167 98.602C196.747 98.8648 197.35 99.079 197.947 99.3104C198.667 99.5875 199.387 99.8645 200.135 100.09C200.758 100.279 201.395 100.424 202.032 100.576C202.791 100.756 203.546 100.93 204.325 101.056C204.979 101.164 205.648 101.23 206.316 101.296C206.808 101.344 207.279 101.444 207.773 101.47V174.126ZM212.298 92.7892C212.215 92.7863 212.138 92.7663 212.058 92.7663C211.795 92.7663 211.549 92.8234 211.304 92.8663C210.724 92.9063 210.15 92.9548 209.558 92.9548C195.985 92.9548 185.344 82.1947 185.284 68.4381H233.475C233.421 81.2378 224.337 91.4352 212.298 92.7892Z" fill="white"/>
</g>
</g>
</g>
</g>
</g>
<defs>
<clipPath id="clip0_10_373">
<rect width="1000" height="214" fill="white"/>
</clipPath>
<clipPath id="clip1_10_373">
<rect width="995.78" height="214.232" fill="white" transform="translate(2.11011 -0.116211)"/>
</clipPath>
<clipPath id="clip2_10_373">
<rect width="995.78" height="214.232" fill="white" transform="translate(2.11011 -0.116211)"/>
</clipPath>
<clipPath id="clip3_10_373">
<rect width="675.526" height="142.821" fill="white" transform="translate(322.363 35.5891)"/>
</clipPath>
<clipPath id="clip4_10_373">
<rect width="675.526" height="142.821" fill="white" transform="translate(322.363 35.5891)"/>
</clipPath>
<clipPath id="clip5_10_373">
<rect width="675.526" height="142.821" fill="white" transform="translate(322.363 35.5891)"/>
</clipPath>
<clipPath id="clip6_10_373">
<rect width="675.526" height="142.821" fill="white" transform="translate(322.363 35.5891)"/>
</clipPath>
<clipPath id="clip7_10_373">
<rect width="239.94" height="214.232" fill="white" transform="translate(2.11011 -0.116211)"/>
</clipPath>
<clipPath id="clip8_10_373">
<rect width="239.94" height="214.232" fill="white" transform="translate(2.11011 -0.116211)"/>
</clipPath>
</defs>
</svg>
