<svg width="800" height="800" viewBox="0 0 800 800" fill="none" xmlns="http://www.w3.org/2000/svg">
<path d="M733.333 197.487C708.816 208.35 682.48 215.69 654.793 219.008C683.037 202.096 704.706 175.261 714.923 143.316C688.5 158.995 659.226 170.387 628.073 176.494C603.116 149.952 567.59 133.333 528.246 133.333C452.733 133.333 391.487 194.58 391.487 270.155C391.487 280.842 392.72 291.236 395.01 301.277C281.294 295.552 180.557 241.088 113.086 158.349C101.342 178.608 94.5885 202.096 94.5885 227.112C94.5885 274.559 118.753 316.457 155.424 340.973C132.993 340.24 111.911 334.103 93.4728 323.856V325.617C93.4728 391.883 140.597 447.17 203.194 459.737C191.685 462.85 179.617 464.493 167.168 464.493C158.36 464.493 149.757 463.673 141.419 462.087C158.83 516.403 209.331 555.983 269.197 557.04C222.367 593.74 163.381 615.613 99.3158 615.613C88.2762 615.613 77.3832 614.967 66.6665 613.707C127.209 652.55 199.084 675.157 276.303 675.157C527.926 675.157 665.48 466.753 665.48 286.01C665.48 280.137 665.333 274.207 665.07 268.334C691.787 249.015 714.983 224.968 733.273 197.575L733.333 197.487Z" fill="white"/>
</svg>
