<svg width="780" height="272" viewBox="0 0 780 272" fill="none" xmlns="http://www.w3.org/2000/svg">
<path d="M780 0H0V271.806H780V0Z" fill="#F61334"/>
<mask id="mask0_16_1520" style="mask-type:luminance" maskUnits="userSpaceOnUse" x="0" y="0" width="780" height="272">
<path d="M780 0H0V271.806H780V0Z" fill="white"/>
</mask>
<g mask="url(#mask0_16_1520)">
<path d="M768.386 53.3227C761.317 58.9858 754.588 58.2355 749.674 57.689C745.263 57.1972 743.196 57.0746 740.396 59.319C737.596 61.5622 737.264 63.6067 736.781 68.0169C736.243 72.9323 735.506 79.663 728.437 85.3261C721.369 90.9892 714.638 90.2389 709.724 89.6911C705.315 89.2006 703.248 89.078 700.448 91.3197C697.647 93.5629 697.316 95.6074 696.833 100.018C696.296 104.932 695.559 111.664 688.49 117.325C681.421 122.987 674.691 122.238 669.777 121.69C665.368 121.2 663.301 121.077 660.501 123.319L652.485 113.312C659.553 107.651 666.283 108.4 671.197 108.947C675.606 109.439 677.673 109.562 680.473 107.319C683.273 105.076 683.605 103.031 684.088 98.6209C684.626 93.7068 685.362 86.9748 692.431 81.3117C699.499 75.6499 706.228 76.4003 711.142 76.9481C715.551 77.4399 717.618 77.5625 720.418 75.3194C723.219 73.0749 723.551 71.0318 724.034 66.6202C724.573 61.7048 725.31 54.9741 732.378 49.311C739.447 43.6479 746.176 44.3983 751.09 44.9448C755.501 45.4366 757.568 45.5591 760.368 43.3147L768.386 53.3227Z" fill="#FFCB09"/>
<path d="M764.167 48.0555C757.097 53.7186 750.368 52.9683 745.454 52.4218C741.044 51.93 738.977 51.8074 736.176 54.0518C733.376 56.2949 733.044 58.3395 732.562 62.7497C732.023 67.6651 731.286 74.3958 724.217 80.0589C717.149 85.722 710.418 84.9716 705.504 84.4238C701.095 83.9334 699.028 83.8108 696.228 86.0525C693.428 88.2957 693.096 90.3402 692.614 94.7504C692.075 99.6645 691.339 106.396 684.27 112.058C677.202 117.721 670.472 116.971 665.557 116.423C661.149 115.933 659.081 115.81 656.281 118.052L648.266 108.045C655.334 102.383 662.063 103.134 666.977 103.682C671.386 104.173 673.453 104.296 676.253 102.052C679.053 99.8084 679.385 97.7639 679.868 93.3536C680.406 88.4383 681.142 81.7076 688.211 76.0458C695.279 70.3841 702.008 71.1331 706.922 71.6809C711.331 72.1727 713.399 72.2953 716.199 70.0508C718.999 67.8077 719.331 65.7632 719.815 61.3516C720.353 56.4362 721.09 49.7056 728.158 44.0425C735.227 38.3794 741.957 39.1297 746.871 39.6762C751.281 40.1667 753.348 40.2893 756.148 38.0461L764.167 48.0555Z" stroke="black" stroke-width="1.2024" stroke-miterlimit="10"/>
</g>
<mask id="mask1_16_1520" style="mask-type:luminance" maskUnits="userSpaceOnUse" x="0" y="0" width="780" height="272">
<path d="M780 0H0V271.806H780V0Z" fill="white"/>
</mask>
<g mask="url(#mask1_16_1520)">
<path d="M592.934 -7.96204C585.865 -2.29894 579.136 -3.04931 574.222 -3.59576C569.811 -4.08757 567.744 -4.2102 564.944 -1.96575C562.144 0.277363 561.812 2.32189 561.329 6.73215C560.791 11.6475 560.054 18.3782 552.985 24.0413C545.917 29.7031 539.186 28.954 534.272 28.4062C529.863 27.9158 527.796 27.7932 524.996 30.035C522.195 32.2781 521.863 34.3226 521.381 38.7329C520.844 43.6469 520.107 50.3789 513.038 56.0407C505.97 61.7038 499.239 60.9534 494.325 60.4056C489.916 59.9151 487.849 59.7925 485.049 62.0343L477.033 52.0276C484.101 46.3659 490.83 47.1162 495.744 47.6626C500.153 48.1544 502.221 48.2771 505.021 46.034C507.821 43.7909 508.153 41.7463 508.635 37.3361C509.174 32.422 509.91 25.69 516.979 20.0282C524.047 14.3665 530.776 15.1155 535.69 15.6633C540.099 16.1551 542.166 16.2777 544.966 14.0346C547.767 11.7902 548.098 9.74695 548.581 5.33536C549.119 0.419969 549.856 -6.31069 556.924 -11.9738C563.994 -17.6369 570.723 -16.8865 575.637 -16.3401C580.047 -15.8483 582.114 -15.727 584.915 -17.9701L592.934 -7.96204Z" fill="#FFCB09"/>
<path d="M588.716 -13.2282C581.647 -7.56508 574.918 -8.31543 570.004 -8.86188C565.593 -9.35369 563.526 -9.47498 560.726 -7.23187C557.926 -4.98875 557.594 -2.94423 557.111 1.46603C556.573 6.38142 555.836 13.1121 548.767 18.7752C541.699 24.4383 534.968 23.6879 530.054 23.1401C525.645 22.6483 523.578 22.5271 520.778 24.7688C517.978 27.012 517.646 29.0565 517.163 33.4667C516.625 38.3808 515.889 45.1128 508.82 50.7746C501.752 56.4363 495.021 55.6873 490.107 55.1395C485.698 54.649 483.631 54.5264 480.831 56.7682L472.815 46.7628C479.883 41.101 486.613 41.8501 491.527 42.3979C495.936 42.8897 498.003 43.0123 500.803 40.7679C503.603 38.5247 503.935 36.4802 504.418 32.07C504.955 27.1546 505.692 20.4239 512.761 14.7608C519.829 9.09903 526.558 9.84936 531.472 10.3958C535.881 10.8876 537.948 11.0102 540.749 8.7658C543.549 6.52269 543.881 4.47815 544.363 0.0665605C544.902 -4.84883 545.639 -11.5795 552.707 -17.2426C559.776 -22.9057 566.505 -22.1553 571.419 -21.6089C575.829 -21.1184 577.897 -20.9958 580.697 -23.2389L588.716 -13.2282Z" stroke="black" stroke-width="1.2024" stroke-miterlimit="10"/>
</g>
<mask id="mask2_16_1520" style="mask-type:luminance" maskUnits="userSpaceOnUse" x="0" y="0" width="780" height="272">
<path d="M780 0H0V271.806H780V0Z" fill="white"/>
</mask>
<g mask="url(#mask2_16_1520)">
<path d="M449.876 213.303C442.806 218.966 436.077 218.217 431.163 217.669C426.753 217.177 424.685 217.055 421.885 219.299C419.085 221.542 418.753 223.587 418.271 227.997C417.732 232.912 416.995 239.643 409.926 245.306C402.858 250.969 396.127 250.219 391.213 249.671C386.804 249.181 384.737 249.058 381.937 251.3C379.137 253.543 378.805 255.587 378.322 259.998C377.785 264.912 377.048 271.644 369.979 277.306C362.911 282.967 356.181 282.218 351.266 281.671C346.858 281.18 344.79 281.057 341.99 283.299L333.975 273.292C341.042 267.631 347.772 268.381 352.686 268.929C357.095 269.421 359.162 269.543 361.962 267.3C364.762 265.057 365.094 263.013 365.577 258.602C366.115 253.688 366.851 246.956 373.92 241.293C380.988 235.631 387.717 236.382 392.631 236.928C397.04 237.42 399.108 237.543 401.908 235.299C404.708 233.055 405.04 231.012 405.522 226.6C406.061 221.685 406.798 214.954 413.866 209.291C420.935 203.628 427.664 204.378 432.578 204.925C436.989 205.417 439.056 205.538 441.856 203.295L449.876 213.303Z" fill="#FFCB09"/>
<path d="M445.656 208.037C438.587 213.7 431.857 212.949 426.943 212.403C422.533 211.911 420.466 211.789 417.666 214.033C414.865 216.276 414.533 218.321 414.051 222.731C413.512 227.646 412.775 234.377 405.706 240.04C398.638 245.702 391.908 244.953 386.994 244.405C382.585 243.915 380.518 243.792 377.717 246.034C374.917 248.277 374.585 250.321 374.103 254.732C373.564 259.646 372.829 266.378 365.759 272.039C358.691 277.703 351.961 276.952 347.047 276.404C342.638 275.914 340.571 275.791 337.77 278.033L329.755 268.026C336.823 262.365 343.552 263.115 348.466 263.661C352.875 264.153 354.942 264.276 357.743 262.031C360.543 259.788 360.875 257.744 361.357 253.334C361.896 248.418 362.631 241.687 369.7 236.026C376.768 230.364 383.498 231.113 388.412 231.661C392.821 232.153 394.888 232.275 397.688 230.031C400.488 227.788 400.82 225.743 401.303 221.331C401.841 216.416 402.578 209.685 409.646 204.022C416.715 198.359 423.445 199.11 428.359 199.656C432.769 200.146 434.836 200.27 437.636 198.026L445.656 208.037Z" stroke="black" stroke-width="1.2024" stroke-miterlimit="10"/>
</g>
<mask id="mask3_16_1520" style="mask-type:luminance" maskUnits="userSpaceOnUse" x="0" y="0" width="780" height="272">
<path d="M780 0H0V271.806H780V0Z" fill="white"/>
</mask>
<g mask="url(#mask3_16_1520)">
<path d="M73.1621 5.94392C66.0929 11.607 59.3636 10.8567 54.4495 10.3102C50.0393 9.81839 47.9721 9.69581 45.1719 11.9403C42.3716 14.1834 42.0398 16.2279 41.5573 20.6382C41.0188 25.5535 40.2818 32.2842 33.2126 37.9473C26.1447 43.6104 19.414 42.86 14.5 42.3122C10.091 41.8218 8.02385 41.6991 5.22363 43.9409C2.4234 46.184 2.09153 48.2286 1.60906 52.6388C1.07193 57.5529 0.334889 64.2849 -6.73432 69.9466C-13.8022 75.6097 -20.5329 74.8594 -25.4469 74.3116C-29.8559 73.8211 -31.923 73.6985 -34.7233 75.9403L-42.7388 65.9336C-35.6709 60.2718 -28.9415 61.0209 -24.0275 61.5686C-19.6186 62.0604 -17.5514 62.183 -14.7512 59.9399C-11.9509 57.6968 -11.6191 55.6523 -11.1366 51.242C-10.5981 46.328 -9.86242 39.596 -2.79321 33.9329C4.27467 28.2711 11.004 29.0215 15.9181 29.5679C20.327 30.0597 22.3942 30.1824 25.1944 27.9393C27.9946 25.6948 28.3265 23.6516 28.8103 19.24C29.3488 14.3246 30.0858 7.59396 37.1537 1.93086C44.2229 -3.73224 50.9522 -2.98187 55.8663 -2.43542C60.2766 -1.94361 62.3437 -1.82098 65.144 -4.06543L73.1621 5.94392Z" fill="#FFCB09"/>
<path d="M68.9424 0.678339C61.8732 6.34144 55.1439 5.59107 50.2298 5.04462C45.8195 4.55281 43.7524 4.43018 40.9521 6.67463C38.1519 8.91774 37.82 10.9623 37.3376 15.3725C36.7991 20.2879 36.0621 27.0186 28.9928 32.6817C21.925 38.3448 15.1943 37.5944 10.2802 37.0466C5.87131 36.5562 3.80413 36.4336 1.0039 38.6753C-1.79633 40.9185 -2.12819 42.963 -2.61067 47.3732C-3.14913 52.2873 -3.88484 59.0193 -10.954 64.6811C-18.0219 70.3442 -24.7526 69.5938 -29.6667 69.046C-34.0756 68.5555 -36.1428 68.4329 -38.943 70.6747L-46.9585 60.668C-39.8906 55.0062 -33.1613 55.7566 -28.2472 56.303C-23.8383 56.7948 -21.7711 56.9175 -18.9709 54.6744C-16.1707 52.4312 -15.8388 50.3867 -15.3563 45.9765C-14.8179 41.0611 -14.0821 34.3304 -7.01293 28.6686C0.0549411 23.0069 6.78429 23.7559 11.6983 24.3037C16.1073 24.7955 18.1745 24.9181 20.9747 22.6736C23.7749 20.4305 24.1068 18.386 24.5893 13.9744C25.1277 9.05905 25.8648 2.32837 32.9326 -3.33472C40.0018 -8.99782 46.7312 -8.24745 51.6452 -7.701C56.0555 -7.21053 58.1227 -7.08794 60.9229 -9.33105L68.9424 0.678339Z" stroke="black" stroke-width="1.2024" stroke-miterlimit="10"/>
</g>
<mask id="mask4_16_1520" style="mask-type:luminance" maskUnits="userSpaceOnUse" x="0" y="0" width="780" height="272">
<path d="M780 0H0V271.806H780V0Z" fill="white"/>
</mask>
<g mask="url(#mask4_16_1520)">
<g opacity="0.5">
<path d="M168.835 346.253L118.279 295.695L159.008 254.967L118.279 214.238L168.836 163.681L209.564 204.409L250.293 163.681L300.849 214.238L260.121 254.966L300.851 295.695L250.293 346.253L209.564 305.523L168.835 346.253ZM209.564 285.133L250.293 325.862L280.46 295.695L239.731 254.966L280.459 214.238L250.293 184.071L209.564 224.799L168.836 184.071L138.669 214.238L179.399 254.967L138.669 295.695L168.835 325.862L209.564 285.133Z" fill="url(#paint0_linear_16_1520)"/>
</g>
</g>
<mask id="mask5_16_1520" style="mask-type:luminance" maskUnits="userSpaceOnUse" x="0" y="0" width="780" height="272">
<path d="M780 0H0V271.806H780V0Z" fill="white"/>
</mask>
<g mask="url(#mask5_16_1520)">
<path d="M311.331 72.6221L337.89 54.4093" stroke="black" stroke-width="1.8036" stroke-miterlimit="10"/>
<path d="M337.89 68.5651L381.484 38.0505" stroke="black" stroke-width="1.8036" stroke-miterlimit="10"/>
</g>
<mask id="mask6_16_1520" style="mask-type:luminance" maskUnits="userSpaceOnUse" x="0" y="0" width="780" height="272">
<path d="M780 0H0V271.806H780V0Z" fill="white"/>
</mask>
<g mask="url(#mask6_16_1520)">
<path d="M-0.901855 222.472L42.6903 191.957" stroke="black" stroke-width="1.8036" stroke-miterlimit="10"/>
</g>
<mask id="mask7_16_1520" style="mask-type:luminance" maskUnits="userSpaceOnUse" x="0" y="0" width="780" height="272">
<path d="M780 0H0V271.806H780V0Z" fill="white"/>
</mask>
<g mask="url(#mask7_16_1520)">
<path d="M680.962 173.199L707.522 154.988" stroke="black" stroke-width="1.8036" stroke-miterlimit="10" stroke-linecap="round"/>
<path d="M707.523 169.142L751.116 138.628" stroke="black" stroke-width="1.8036" stroke-miterlimit="10" stroke-linecap="round"/>
</g>
<mask id="mask8_16_1520" style="mask-type:luminance" maskUnits="userSpaceOnUse" x="0" y="0" width="780" height="272">
<path d="M780 0H0V271.806H780V0Z" fill="white"/>
</mask>
<g mask="url(#mask8_16_1520)">
<path d="M383.429 77.6692L375.586 84.7371V77.6692V70.6013L383.429 77.6692Z" fill="#FEFEFC"/>
<path d="M393.922 77.6692L386.078 84.7371V77.6692V70.6013L393.922 77.6692Z" fill="#FEFEFC"/>
<path d="M404.414 77.6692L396.57 84.7371V77.6692V70.6013L404.414 77.6692Z" fill="#FEFEFC"/>
</g>
<mask id="mask9_16_1520" style="mask-type:luminance" maskUnits="userSpaceOnUse" x="0" y="0" width="780" height="272">
<path d="M780 0H0V271.806H780V0Z" fill="white"/>
</mask>
<g mask="url(#mask9_16_1520)">
<path d="M699.049 13.3284L691.204 20.3963V13.3284V6.2605L699.049 13.3284Z" fill="#FEFEFC"/>
<path d="M709.541 13.3278L701.696 20.3957V13.3278V6.25989L709.541 13.3278Z" fill="#FEFEFC"/>
<path d="M720.032 13.3278L712.188 20.3957V13.3278V6.25989L720.032 13.3278Z" fill="#FEFEFC"/>
</g>
<mask id="mask10_16_1520" style="mask-type:luminance" maskUnits="userSpaceOnUse" x="0" y="0" width="780" height="272">
<path d="M780 0H0V271.806H780V0Z" fill="white"/>
</mask>
<g mask="url(#mask10_16_1520)">
<path d="M62.3729 233.597L54.5293 240.665V233.597V226.528L62.3729 233.597Z" fill="#FEFEFC"/>
<path d="M72.8649 233.597L65.02 240.665V233.597V226.528L72.8649 233.597Z" fill="#FEFEFC"/>
<path d="M83.3571 233.597L75.5122 240.665V233.597V226.528L83.3571 233.597Z" fill="#FEFEFC"/>
</g>
<mask id="mask11_16_1520" style="mask-type:luminance" maskUnits="userSpaceOnUse" x="0" y="0" width="780" height="272">
<path d="M780 0H0V271.806H780V0Z" fill="white"/>
</mask>
<g mask="url(#mask11_16_1520)">
<path d="M672.31 212.86L664.267 220.109V212.86V205.612L672.31 212.86Z" fill="#FEFEFC"/>
<path d="M683.068 212.86L675.023 220.109V212.86V205.612L683.068 212.86Z" fill="#FEFEFC"/>
<path d="M693.83 212.86L685.785 220.109V212.86V205.612L693.83 212.86Z" fill="#FEFEFC"/>
</g>
<mask id="mask12_16_1520" style="mask-type:luminance" maskUnits="userSpaceOnUse" x="0" y="0" width="780" height="272">
<path d="M780 0H0V271.806H780V0Z" fill="white"/>
</mask>
<g mask="url(#mask12_16_1520)">
<mask id="mask13_16_1520" style="mask-type:luminance" maskUnits="userSpaceOnUse" x="475" y="150" width="176" height="175">
<path d="M649.236 251.307C656.893 203.734 624.534 158.961 576.961 151.305C529.388 143.648 484.616 176.007 476.959 223.58C469.303 271.153 501.661 315.925 549.234 323.582C596.807 331.238 641.579 298.88 649.236 251.307Z" fill="white"/>
</mask>
<g mask="url(#mask13_16_1520)">
<path d="M481.202 61.573V404.841" stroke="white" stroke-width="2" stroke-miterlimit="10"/>
</g>
<mask id="mask14_16_1520" style="mask-type:luminance" maskUnits="userSpaceOnUse" x="475" y="150" width="176" height="175">
<path d="M649.236 251.307C656.893 203.734 624.534 158.961 576.961 151.305C529.388 143.648 484.616 176.007 476.959 223.58C469.303 271.153 501.661 315.925 549.234 323.582C596.807 331.238 641.579 298.88 649.236 251.307Z" fill="white"/>
</mask>
<g mask="url(#mask14_16_1520)">
<path d="M493.504 61.573V404.841" stroke="white" stroke-width="2" stroke-miterlimit="10"/>
</g>
<mask id="mask15_16_1520" style="mask-type:luminance" maskUnits="userSpaceOnUse" x="475" y="150" width="176" height="175">
<path d="M649.236 251.307C656.893 203.734 624.534 158.961 576.961 151.305C529.388 143.648 484.616 176.007 476.959 223.58C469.303 271.153 501.661 315.925 549.234 323.582C596.807 331.238 641.579 298.88 649.236 251.307Z" fill="white"/>
</mask>
<g mask="url(#mask15_16_1520)">
<path d="M505.808 61.573V404.841" stroke="white" stroke-width="2" stroke-miterlimit="10"/>
</g>
<mask id="mask16_16_1520" style="mask-type:luminance" maskUnits="userSpaceOnUse" x="475" y="150" width="176" height="175">
<path d="M649.236 251.307C656.893 203.734 624.534 158.961 576.961 151.305C529.388 143.648 484.616 176.007 476.959 223.58C469.303 271.153 501.661 315.925 549.234 323.582C596.807 331.238 641.579 298.88 649.236 251.307Z" fill="white"/>
</mask>
<g mask="url(#mask16_16_1520)">
<path d="M518.111 61.573V404.841" stroke="white" stroke-width="2" stroke-miterlimit="10"/>
</g>
<mask id="mask17_16_1520" style="mask-type:luminance" maskUnits="userSpaceOnUse" x="475" y="150" width="176" height="175">
<path d="M649.236 251.307C656.893 203.734 624.534 158.961 576.961 151.305C529.388 143.648 484.616 176.007 476.959 223.58C469.303 271.153 501.661 315.925 549.234 323.582C596.807 331.238 641.579 298.88 649.236 251.307Z" fill="white"/>
</mask>
<g mask="url(#mask17_16_1520)">
<path d="M530.414 61.573V404.841" stroke="white" stroke-width="2" stroke-miterlimit="10"/>
</g>
<mask id="mask18_16_1520" style="mask-type:luminance" maskUnits="userSpaceOnUse" x="475" y="150" width="176" height="175">
<path d="M649.236 251.307C656.893 203.734 624.534 158.961 576.961 151.305C529.388 143.648 484.616 176.007 476.959 223.58C469.303 271.153 501.661 315.925 549.234 323.582C596.807 331.238 641.579 298.88 649.236 251.307Z" fill="white"/>
</mask>
<g mask="url(#mask18_16_1520)">
<path d="M542.717 61.573V404.841" stroke="white" stroke-width="2" stroke-miterlimit="10"/>
</g>
<mask id="mask19_16_1520" style="mask-type:luminance" maskUnits="userSpaceOnUse" x="475" y="150" width="176" height="175">
<path d="M649.236 251.307C656.893 203.734 624.534 158.961 576.961 151.305C529.388 143.648 484.616 176.007 476.959 223.58C469.303 271.153 501.661 315.925 549.234 323.582C596.807 331.238 641.579 298.88 649.236 251.307Z" fill="white"/>
</mask>
<g mask="url(#mask19_16_1520)">
<path d="M555.02 61.573V404.841" stroke="white" stroke-width="2" stroke-miterlimit="10"/>
</g>
<mask id="mask20_16_1520" style="mask-type:luminance" maskUnits="userSpaceOnUse" x="475" y="150" width="176" height="175">
<path d="M649.236 251.307C656.893 203.734 624.534 158.961 576.961 151.305C529.388 143.648 484.616 176.007 476.959 223.58C469.303 271.153 501.661 315.925 549.234 323.582C596.807 331.238 641.579 298.88 649.236 251.307Z" fill="white"/>
</mask>
<g mask="url(#mask20_16_1520)">
<path d="M567.322 61.573V404.841" stroke="white" stroke-width="2" stroke-miterlimit="10"/>
</g>
<mask id="mask21_16_1520" style="mask-type:luminance" maskUnits="userSpaceOnUse" x="475" y="150" width="176" height="175">
<path d="M649.236 251.307C656.893 203.734 624.534 158.961 576.961 151.305C529.388 143.648 484.616 176.007 476.959 223.58C469.303 271.153 501.661 315.925 549.234 323.582C596.807 331.238 641.579 298.88 649.236 251.307Z" fill="white"/>
</mask>
<g mask="url(#mask21_16_1520)">
<path d="M579.625 61.573V404.841" stroke="white" stroke-width="2" stroke-miterlimit="10"/>
</g>
<mask id="mask22_16_1520" style="mask-type:luminance" maskUnits="userSpaceOnUse" x="475" y="150" width="176" height="175">
<path d="M649.236 251.307C656.893 203.734 624.534 158.961 576.961 151.305C529.388 143.648 484.616 176.007 476.959 223.58C469.303 271.153 501.661 315.925 549.234 323.582C596.807 331.238 641.579 298.88 649.236 251.307Z" fill="white"/>
</mask>
<g mask="url(#mask22_16_1520)">
<path d="M591.929 61.573V404.841" stroke="white" stroke-width="2" stroke-miterlimit="10"/>
</g>
<mask id="mask23_16_1520" style="mask-type:luminance" maskUnits="userSpaceOnUse" x="475" y="150" width="176" height="175">
<path d="M649.236 251.307C656.893 203.734 624.534 158.961 576.961 151.305C529.388 143.648 484.616 176.007 476.959 223.58C469.303 271.153 501.661 315.925 549.234 323.582C596.807 331.238 641.579 298.88 649.236 251.307Z" fill="white"/>
</mask>
<g mask="url(#mask23_16_1520)">
<path d="M604.23 61.573V404.841" stroke="white" stroke-width="2" stroke-miterlimit="10"/>
</g>
<mask id="mask24_16_1520" style="mask-type:luminance" maskUnits="userSpaceOnUse" x="475" y="150" width="176" height="175">
<path d="M649.236 251.307C656.893 203.734 624.534 158.961 576.961 151.305C529.388 143.648 484.616 176.007 476.959 223.58C469.303 271.153 501.661 315.925 549.234 323.582C596.807 331.238 641.579 298.88 649.236 251.307Z" fill="white"/>
</mask>
<g mask="url(#mask24_16_1520)">
<path d="M616.533 61.573V404.841" stroke="white" stroke-width="2" stroke-miterlimit="10"/>
</g>
<mask id="mask25_16_1520" style="mask-type:luminance" maskUnits="userSpaceOnUse" x="475" y="150" width="176" height="175">
<path d="M649.236 251.307C656.893 203.734 624.534 158.961 576.961 151.305C529.388 143.648 484.616 176.007 476.959 223.58C469.303 271.153 501.661 315.925 549.234 323.582C596.807 331.238 641.579 298.88 649.236 251.307Z" fill="white"/>
</mask>
<g mask="url(#mask25_16_1520)">
<path d="M628.837 61.573V404.841" stroke="white" stroke-width="2" stroke-miterlimit="10"/>
</g>
<mask id="mask26_16_1520" style="mask-type:luminance" maskUnits="userSpaceOnUse" x="475" y="150" width="176" height="175">
<path d="M649.236 251.307C656.893 203.734 624.534 158.961 576.961 151.305C529.388 143.648 484.616 176.007 476.959 223.58C469.303 271.153 501.661 315.925 549.234 323.582C596.807 331.238 641.579 298.88 649.236 251.307Z" fill="white"/>
</mask>
<g mask="url(#mask26_16_1520)">
<path d="M641.139 61.573V404.841" stroke="white" stroke-width="2" stroke-miterlimit="10"/>
</g>
</g>
<mask id="mask27_16_1520" style="mask-type:luminance" maskUnits="userSpaceOnUse" x="0" y="0" width="780" height="272">
<path d="M780 0H0V271.806H780V0Z" fill="white"/>
</mask>
<g mask="url(#mask27_16_1520)">
<path d="M203.635 -9.24321L221.274 25.6443C221.727 26.5413 223.013 26.5253 223.443 25.6177L239.153 -7.4706C239.584 -8.37824 240.87 -8.39422 241.323 -7.49724L257.845 25.1898C258.298 26.0868 259.584 26.0708 260.014 25.1632L275.723 -7.92505C276.153 -8.83269 277.439 -8.84871 277.893 -7.95173L294.425 24.7367C294.878 25.6337 296.164 25.6177 296.595 24.7101L312.304 -8.37954C312.735 -9.28718 314.021 -9.3032 314.474 -8.40622L331.013 24.2835C331.466 25.1792 332.752 25.1632 333.183 24.2569L349.961 -11.0612" stroke="black" stroke-width="1.2024" stroke-miterlimit="10"/>
</g>
<mask id="mask28_16_1520" style="mask-type:luminance" maskUnits="userSpaceOnUse" x="0" y="0" width="780" height="272">
<path d="M780 0H0V271.806H780V0Z" fill="white"/>
</mask>
<g mask="url(#mask28_16_1520)">
<path d="M665.818 279.234C666.272 280.131 667.558 280.115 667.988 279.207L683.698 246.119C684.128 245.211 685.415 245.195 685.868 246.092L702.389 278.779C702.842 279.676 704.129 279.66 704.559 278.753L720.267 245.664C720.698 244.757 721.984 244.741 722.437 245.638L738.969 278.326C739.423 279.223 740.709 279.206 741.139 278.299L756.849 245.21C757.28 244.302 758.566 244.286 759.019 245.182L775.558 277.872C776.011 278.767 777.297 278.751 777.727 277.845L794.506 242.527" stroke="black" stroke-width="1.2024" stroke-miterlimit="10"/>
</g>
<mask id="mask29_16_1520" style="mask-type:luminance" maskUnits="userSpaceOnUse" x="0" y="0" width="780" height="272">
<path d="M780 0H0V271.806H780V0Z" fill="white"/>
</mask>
<g mask="url(#mask29_16_1520)">
<path d="M169.549 47.0068H45.9463V66.2819H169.549V47.0068Z" fill="black"/>
<path d="M59.0089 51.6333H60.5776L58.9396 59.8114H62.7394L62.4782 61.1296H57.1123L59.0089 51.6333Z" fill="#FFFCF9"/>
<path d="M66.3548 51.6333H67.9235L66.023 61.1296H64.4556L66.3548 51.6333Z" fill="#FFFCF9"/>
<path d="M70.6817 51.6333H72.4184L73.1688 56.3835L73.45 58.2134H73.5086L74.4576 56.3835L77.0606 51.6333H78.7972L76.898 61.1296H75.4172L76.3515 56.5754C76.5434 55.6691 76.8686 54.4682 77.1299 53.5912H77.0805L75.9224 55.7397L73.4073 60.2006H72.6863L71.9026 55.7397L71.5894 53.5912H71.5401C71.4388 54.4789 71.3188 55.6877 71.1482 56.5754L70.2313 61.1296H68.7852L70.6817 51.6333Z" fill="#FFFCF9"/>
<path d="M81.5408 51.6333H83.1096L81.209 61.1296H79.6416L81.5408 51.6333Z" fill="#FFFCF9"/>
<path d="M87.4127 52.9635H84.7871L85.0483 51.6333H91.867L91.6057 52.9635H88.9801L87.3594 61.1296H85.7907L87.4127 52.9635Z" fill="#FFFCF9"/>
<path d="M93.7939 51.6333H99.2304L98.9692 52.9515H95.0827L94.5776 55.5131H97.871L97.6111 56.8313H94.3284L93.7126 59.8101H97.727L97.4658 61.1283H91.896L93.7939 51.6333Z" fill="#FFFCF9"/>
<path d="M101.635 51.6333H103.562C106.205 51.6333 107.675 52.9341 107.675 55.3505C107.675 58.9517 105.618 61.1296 102.493 61.1296H99.7354L101.635 51.6333ZM102.47 59.8634C104.608 59.8634 106.072 58.2494 106.072 55.4491C106.072 53.7698 105.131 52.8995 103.517 52.8995H102.941L101.552 59.8634H102.47Z" fill="#FFFCF9"/>
<path d="M112.449 57.3082C112.449 54.1761 114.528 51.4585 117.176 51.4585C119.319 51.4585 120.603 52.9912 120.603 55.4542C120.603 58.585 118.522 61.3039 115.874 61.3039C113.732 61.3039 112.449 59.7712 112.449 57.3082ZM118.999 55.5662C118.999 53.8869 118.372 52.814 117.095 52.814C115.404 52.814 114.051 54.9864 114.051 57.1989C114.051 58.8782 114.679 59.9511 115.957 59.9511C117.645 59.9511 118.999 57.7787 118.999 55.5662Z" fill="#FFFCF9"/>
<path d="M123.715 51.6333H129.151L128.89 52.9515H125.004L124.453 55.7557H127.747L127.485 57.0738H124.204L123.384 61.1283H121.817L123.715 51.6333Z" fill="#FFFCF9"/>
<path d="M131.177 51.6333H136.614L136.352 52.9515H132.466L131.916 55.7557H135.209L134.948 57.0738H131.666L130.847 61.1283H129.279L131.177 51.6333Z" fill="#FFFCF9"/>
<path d="M138.64 51.6333H144.077L143.815 52.9515H139.929L139.424 55.5131H142.717L142.457 56.8313H139.175L138.559 59.8101H142.573L142.312 61.1283H136.742L138.64 51.6333Z" fill="#FFFCF9"/>
<path d="M146.48 51.6333H149.273C151.091 51.6333 152.381 52.2771 152.381 53.9564C152.381 56.2675 150.493 57.3764 148.327 57.3764H146.893L146.148 61.1282H144.581L146.48 51.6333ZM148.367 56.1289C149.976 56.1289 150.83 55.3679 150.83 54.1763C150.83 53.2594 150.186 52.8808 148.977 52.8808H147.786L147.152 56.1289H148.367ZM148.176 57.0352L149.332 56.0596L151.347 61.1309H149.687L148.176 57.0352Z" fill="#FFFCF9"/>
</g>
<mask id="mask30_16_1520" style="mask-type:luminance" maskUnits="userSpaceOnUse" x="0" y="0" width="780" height="272">
<path d="M780 0H0V271.806H780V0Z" fill="white"/>
</mask>
<g mask="url(#mask30_16_1520)">
<path d="M53.4377 81.4014H70.8787C81.9464 81.4014 89.8286 85.0906 89.8286 93.979C89.8286 99.8487 85.6356 105.216 78.0892 107.562L77.9213 107.898C84.1255 109.408 87.1443 112.761 87.1443 117.792C87.1443 130.872 75.9088 135.904 63.1645 135.904H42.5366L53.4377 81.4014ZM64.1694 125.675C70.8774 125.675 74.2308 122.822 74.2308 118.295C74.2308 114.27 71.8837 112.258 66.8523 112.258H60.6481L57.9652 125.675H64.1694ZM67.0203 103.201C73.5604 103.201 76.0767 100.518 76.0767 96.3261C76.0767 93.3073 73.7283 91.6306 68.6983 91.6306H64.8398L62.4914 103.202H67.0203V103.201Z" fill="black"/>
<path d="M104.751 81.4014H118.165L109.445 124.667H129.234L127.054 135.904H93.8496L104.751 81.4014Z" fill="black"/>
<path d="M157.74 81.4014H173.839L179.037 135.904H164.951L164.112 107.059C163.944 101.861 163.776 96.9965 163.776 91.4627H163.441C161.26 96.8286 159.416 101.861 157.068 107.059L143.988 135.904H129.231L157.74 81.4014ZM146.337 113.431H171.66L169.312 123.494H143.988L146.337 113.431Z" fill="black"/>
<path d="M186.584 113.767C186.584 94.3135 199.831 80.395 215.931 80.395C222.303 80.395 227.67 83.5818 230.856 89.2822L221.801 96.3261C219.788 93.3073 217.776 91.9665 215.261 91.9665C207.378 91.9665 200.336 101.189 200.336 112.929C200.336 120.811 203.355 125.34 210.733 125.34C213.584 125.34 216.603 123.662 219.118 121.481L224.652 130.034C221.633 132.886 215.597 136.91 207.882 136.91C195.137 136.909 186.584 128.524 186.584 113.767Z" fill="black"/>
<path d="M243.094 81.4014H256.509L252.401 102.029H252.736L270.596 81.4014H285.186L265.564 104.375L277.64 135.903H263.721L255.671 112.761L248.628 120.81L245.608 135.903H232.195L243.094 81.4014Z" fill="black"/>
</g>
<mask id="mask31_16_1520" style="mask-type:luminance" maskUnits="userSpaceOnUse" x="0" y="0" width="780" height="272">
<path d="M780 0H0V271.806H780V0Z" fill="white"/>
</mask>
<g mask="url(#mask31_16_1520)">
<path d="M114.95 151.527H148.155L145.974 162.761H126.018L123.838 173.998H140.775L138.594 185.233H121.657L117.464 206.029H104.049L114.95 151.527Z" fill="black"/>
<path d="M158.215 151.527H176.158C187.059 151.527 195.444 155.383 195.444 165.948C195.444 181.041 183.202 187.246 170.29 187.246H164.42L160.73 206.028H147.315L158.215 151.527ZM171.461 176.681C178.673 176.681 182.194 173.16 182.194 167.96C182.194 163.935 179.344 162.092 174.314 162.092H169.45L166.599 176.681H171.461ZM168.948 184.059L178.507 175.34L190.414 206.028H176.327L168.948 184.059Z" fill="black"/>
<path d="M209.528 151.527H222.943L212.042 206.028H198.627L209.528 151.527Z" fill="black"/>
<path d="M235.52 151.527H248.265C263.526 151.527 272.749 158.235 272.749 172.992C272.749 195.127 259.669 206.028 242.564 206.028H224.62L235.52 151.527ZM242.228 195.295C251.283 195.295 258.997 189.593 258.997 173.83C258.997 165.277 254.302 162.259 247.928 162.259H246.754L240.214 195.295H242.228Z" fill="black"/>
<path d="M297.902 151.527H314.001L319.199 206.028H305.113L304.274 177.183C304.107 171.985 303.939 167.121 303.939 161.587H303.603C301.422 166.953 299.578 171.985 297.231 177.183L284.15 206.028H269.394L297.902 151.527ZM286.497 183.557H311.821L309.472 193.62H284.149L286.497 183.557Z" fill="black"/>
<path d="M337.308 186.91L328.671 151.527H342.59L344.351 163.601C345.022 167.794 345.525 171.314 346.195 175.675H346.531C348.711 171.315 350.556 167.626 352.903 163.433L359.443 151.527H373.866L350.723 186.91L346.866 206.028H333.533L337.308 186.91Z" fill="black"/>
</g>
<mask id="mask32_16_1520" style="mask-type:luminance" maskUnits="userSpaceOnUse" x="0" y="0" width="780" height="272">
<path d="M780 0H0V271.806H780V0Z" fill="white"/>
</mask>
<g mask="url(#mask32_16_1520)">
<path d="M108.132 147.836H141.336L139.156 159.072H119.2L117.019 170.309H133.956L131.776 181.544H114.839L110.646 202.34H97.231L108.132 147.836Z" fill="#FEFEFC"/>
<path d="M151.396 147.836H169.34C180.241 147.836 188.626 151.693 188.626 162.257C188.626 177.35 176.384 183.555 163.471 183.555H157.602L153.911 202.337H140.497L151.396 147.836ZM164.643 172.99C171.855 172.99 175.376 169.469 175.376 164.27C175.376 160.245 172.525 158.401 167.495 158.401H162.632L159.781 172.99H164.643ZM162.128 180.369L171.687 171.649L183.594 202.337H169.508L162.128 180.369Z" fill="#FEFEFC"/>
<path d="M202.709 147.836H216.124L205.223 202.339H191.808L202.709 147.836Z" fill="#FEFEFC"/>
<path d="M228.702 147.836H241.447C256.708 147.836 265.931 154.544 265.931 169.301C265.931 191.436 252.851 202.337 235.746 202.337H217.801L228.702 147.836ZM235.41 191.605C244.465 191.605 252.179 185.904 252.179 170.141C252.179 161.588 247.484 158.569 241.11 158.569H239.936L233.396 191.605H235.41Z" fill="#FEFEFC"/>
<path d="M291.083 147.836H307.182L312.38 202.339H298.293L297.455 173.494C297.287 168.296 297.119 163.431 297.119 157.897H296.783C294.603 163.263 292.758 168.296 290.411 173.494L277.331 202.339H262.574L291.083 147.836ZM279.679 179.866H305.003L302.654 189.929H277.331L279.679 179.866Z" fill="#FEFEFC"/>
<path d="M330.49 183.221L321.854 147.836H335.772L337.533 159.911C338.204 164.104 338.707 167.624 339.377 171.985H339.713C341.894 167.626 343.738 163.936 346.085 159.743L352.625 147.836H367.048L343.905 183.221L340.048 202.339H326.716L330.49 183.221Z" fill="#FEFEFC"/>
</g>
<mask id="mask33_16_1520" style="mask-type:luminance" maskUnits="userSpaceOnUse" x="0" y="0" width="780" height="272">
<path d="M780 0H0V271.806H780V0Z" fill="white"/>
</mask>
<g mask="url(#mask33_16_1520)">
<path d="M412.035 120.452C410.919 121.508 409.159 121.46 408.103 120.344C407.047 119.229 407.095 117.468 408.211 116.413C409.327 115.356 411.087 115.405 412.143 116.52C413.198 117.635 413.15 119.395 412.035 120.452Z" fill="#1F1F2B"/>
<path d="M423.309 132.359C422.193 133.416 420.433 133.367 419.377 132.251C418.32 131.136 418.369 129.375 419.485 128.318C420.601 127.263 422.361 127.311 423.418 128.426C424.472 129.543 424.424 131.304 423.309 132.359Z" fill="#FEFEFC"/>
<path d="M400.587 131.288C399.471 132.345 397.711 132.296 396.654 131.18C395.598 130.065 395.646 128.304 396.762 127.248C397.877 126.193 399.638 126.241 400.694 127.356C401.752 128.472 401.704 130.232 400.587 131.288Z" fill="#FEFEFC"/>
<path d="M411.863 143.197C410.747 144.252 408.987 144.204 407.931 143.089C406.876 141.973 406.924 140.212 408.039 139.157C409.155 138.101 410.915 138.149 411.972 139.265C413.026 140.38 412.979 142.141 411.863 143.197Z" fill="#1F1F2B"/>
</g>
<mask id="mask34_16_1520" style="mask-type:luminance" maskUnits="userSpaceOnUse" x="0" y="0" width="780" height="272">
<path d="M780 0H0V271.806H780V0Z" fill="white"/>
</mask>
<g mask="url(#mask34_16_1520)">
<path d="M621.44 58.4515C620.347 57.3719 620.336 55.6113 621.416 54.5184C622.496 53.4255 624.256 53.4148 625.35 54.4944C626.443 55.574 626.454 57.3346 625.374 58.4288C624.294 59.5204 622.533 59.5311 621.44 58.4515Z" fill="#1F1F2B"/>
<path d="M609.916 70.1199C608.823 69.0404 608.812 67.2797 609.892 66.1868C610.971 65.0939 612.732 65.0833 613.825 66.1628C614.918 67.2424 614.928 69.003 613.849 70.0959C612.77 71.1875 611.008 71.1995 609.916 70.1199Z" fill="#FEFEFC"/>
<path d="M610.224 47.3757C609.131 46.2961 609.121 44.5355 610.2 43.4426C611.28 42.3497 613.04 42.339 614.135 43.4186C615.228 44.4981 615.238 46.2588 614.159 47.3517C613.079 48.4446 611.317 48.4552 610.224 47.3757Z" fill="#FEFEFC"/>
<path d="M598.702 59.0429C597.609 57.9633 597.598 56.2027 598.678 55.1085C599.757 54.0156 601.518 54.0049 602.612 55.0845C603.705 56.164 603.716 57.9247 602.636 59.019C601.555 60.1119 599.795 60.1225 598.702 59.0429Z" fill="#1F1F2B"/>
</g>
<mask id="mask35_16_1520" style="mask-type:luminance" maskUnits="userSpaceOnUse" x="0" y="0" width="780" height="272">
<path d="M780 0H0V271.806H780V0Z" fill="white"/>
</mask>
<g mask="url(#mask35_16_1520)">
<g opacity="0.2">
<path d="M549.965 242.508C591.291 242.508 624.792 209.006 624.792 167.68C624.792 126.354 591.291 92.8523 549.965 92.8523C508.638 92.8523 475.137 126.354 475.137 167.68C475.137 209.006 508.638 242.508 549.965 242.508Z" fill="#42180D"/>
<path d="M504.58 160.47L509.378 156.535C511.01 158.742 512.929 159.895 515.039 159.895C517.534 159.895 519.741 158.168 519.741 155.097C519.741 152.698 518.397 151.45 516.094 151.45C514.656 151.45 513.984 151.642 511.873 152.794L509.09 150.491L512.833 135.042H530.009L528.76 141.472H518.205L516.862 146.268C517.726 145.885 518.493 145.789 519.357 145.789C523.962 145.789 527.512 148.572 527.512 153.848C527.512 161.429 521.275 166.035 514.943 166.035C511.296 166.034 507.554 164.595 504.58 160.47Z" fill="#42180D"/>
<path d="M531.638 154.905C531.638 140.608 538.931 134.468 545.359 134.468C550.348 134.468 554.282 137.921 554.282 145.694C554.282 159.99 547.086 166.035 540.655 166.035C535.667 166.034 531.638 162.581 531.638 154.905ZM547.277 144.829C547.277 141.278 546.317 140.319 544.878 140.319C542 140.319 538.738 146.651 538.738 155.767C538.738 159.317 539.697 160.182 541.137 160.182C544.015 160.182 547.277 153.944 547.277 144.829Z" fill="#42180D"/>
<path d="M557.256 145.309C557.256 138.305 561.094 133.123 566.659 133.123C570.401 133.123 573.568 136.096 573.568 140.895C573.568 147.898 569.73 153.08 564.165 153.08C560.423 153.082 557.256 150.107 557.256 145.309ZM584.315 133.219H588.631L566.083 166.034H561.766L584.315 133.219ZM568.194 140.991C568.194 138.881 567.522 137.632 566.179 137.632C564.26 137.632 562.628 140.511 562.628 145.213C562.628 147.323 563.3 148.571 564.644 148.571C566.564 148.571 568.194 145.693 568.194 140.991ZM577.405 158.262C577.405 151.257 581.244 146.077 586.808 146.077C590.551 146.077 593.717 149.05 593.717 153.848C593.717 160.853 589.879 166.035 584.315 166.035C580.572 166.034 577.405 163.06 577.405 158.262ZM588.344 153.944C588.344 151.833 587.672 150.585 586.328 150.585C584.409 150.585 582.778 153.464 582.778 158.166C582.778 160.278 583.45 161.525 584.793 161.525C586.714 161.525 588.344 158.645 588.344 153.944Z" fill="#42180D"/>
<path d="M507.905 199.03C507.905 189.134 514.257 176.875 524.848 176.875C532.685 176.875 536.554 182.977 536.554 191.736C536.554 201.632 530.202 213.891 519.611 213.891C511.774 213.893 507.905 207.79 507.905 199.03ZM534.202 191.985C534.202 184.256 531.372 178.89 524.705 178.89C515.524 178.89 510.256 190.359 510.256 198.783C510.256 206.512 513.085 211.877 519.751 211.877C528.933 211.877 534.202 200.407 534.202 191.985Z" fill="#42180D"/>
<path d="M547.311 177.526H566.138L565.705 179.519H549.195L546.325 194H560.296L559.862 195.994H545.987L542.498 213.239H540.167L547.311 177.526Z" fill="#42180D"/>
<path d="M571.974 177.526H590.801L590.368 179.519H573.858L570.988 194H584.959L584.525 195.994H570.65L567.161 213.239H564.83L571.974 177.526Z" fill="#42180D"/>
</g>
<path d="M545.965 238.51C587.292 238.51 620.793 205.008 620.793 163.682C620.793 122.356 587.292 88.854 545.965 88.854C504.639 88.854 471.138 122.356 471.138 163.682C471.138 205.008 504.639 238.51 545.965 238.51Z" fill="#FFCB09"/>
<path d="M500.582 156.471L505.38 152.536C507.012 154.744 508.931 155.896 511.041 155.896C513.536 155.896 515.743 154.169 515.743 151.098C515.743 148.699 514.399 147.452 512.096 147.452C510.658 147.452 509.986 147.644 507.875 148.795L505.092 146.492L508.835 131.044H526.011L524.762 137.473H514.207L512.864 142.27C513.728 141.886 514.495 141.79 515.359 141.79C519.964 141.79 523.514 144.573 523.514 149.85C523.514 157.429 517.277 162.035 510.945 162.035C507.298 162.035 503.556 160.596 500.582 156.471Z" fill="#1F1F2B"/>
<path d="M527.641 150.905C527.641 136.608 534.934 130.468 541.362 130.468C546.351 130.468 550.285 133.921 550.285 141.694C550.285 155.99 543.089 162.036 536.658 162.036C531.67 162.036 527.641 158.582 527.641 150.905ZM543.28 140.831C543.28 137.28 542.32 136.32 540.881 136.32C538.003 136.32 534.74 142.653 534.74 151.769C534.74 155.318 535.7 156.183 537.14 156.183C540.018 156.183 543.28 149.947 543.28 140.831Z" fill="#1F1F2B"/>
<path d="M553.258 141.31C553.258 134.306 557.096 129.125 562.661 129.125C566.403 129.125 569.57 132.098 569.57 136.896C569.57 143.9 565.732 149.082 560.167 149.082C556.425 149.083 553.258 146.108 553.258 141.31ZM580.317 129.221H584.633L562.085 162.036H557.768L580.317 129.221ZM564.196 136.992C564.196 134.882 563.524 133.633 562.181 133.633C560.262 133.633 558.63 136.512 558.63 141.214C558.63 143.324 559.302 144.573 560.646 144.573C562.566 144.573 564.196 141.694 564.196 136.992ZM573.407 154.264C573.407 147.259 577.246 142.078 582.81 142.078C586.553 142.078 589.719 145.052 589.719 149.85C589.719 156.854 585.881 162.036 580.317 162.036C576.574 162.036 573.407 159.062 573.407 154.264ZM584.346 149.947C584.346 147.836 583.674 146.588 582.33 146.588C580.411 146.588 578.78 149.467 578.78 154.169C578.78 156.28 579.452 157.528 580.795 157.528C582.716 157.527 584.346 154.646 584.346 149.947Z" fill="#1F1F2B"/>
<path d="M503.907 195.032C503.907 185.136 510.259 172.876 520.85 172.876C528.687 172.876 532.556 178.978 532.556 187.737C532.556 197.633 526.204 209.892 515.613 209.892C507.776 209.894 503.907 203.791 503.907 195.032ZM530.203 187.986C530.203 180.258 527.374 174.892 520.707 174.892C511.526 174.892 506.258 186.36 506.258 194.784C506.258 202.513 509.087 207.879 515.753 207.879C524.935 207.879 530.203 196.408 530.203 187.986Z" fill="#1F1F2B"/>
<path d="M543.313 173.527H562.14L561.707 175.521H545.197L542.327 190.002H556.298L555.864 191.996H541.989L538.5 209.241H536.169L543.313 173.527Z" fill="#1F1F2B"/>
<path d="M567.975 173.527H586.802L586.369 175.521H569.859L566.989 190.002H580.96L580.526 191.996H566.651L563.162 209.241H560.831L567.975 173.527Z" fill="#1F1F2B"/>
</g>
<defs>
<linearGradient id="paint0_linear_16_1520" x1="201.848" y1="397.424" x2="212.51" y2="200.578" gradientUnits="userSpaceOnUse">
<stop stop-color="white"/>
<stop offset="1" stop-color="white" stop-opacity="0"/>
</linearGradient>
</defs>
</svg>
