<svg width="780" height="272" viewBox="0 0 780 272" fill="none" xmlns="http://www.w3.org/2000/svg">
<path d="M0 271.807H780V2.1475e-05H0V271.807Z" fill="#191927"/>
<mask id="mask0_16_2758" style="mask-type:luminance" maskUnits="userSpaceOnUse" x="0" y="0" width="780" height="272">
<path d="M0 271.807H780V2.1475e-05H0V271.807Z" fill="white"/>
</mask>
<g mask="url(#mask0_16_2758)">
<mask id="mask1_16_2758" style="mask-type:luminance" maskUnits="userSpaceOnUse" x="468" y="13" width="294" height="248">
<path d="M468.896 13.2989H761.916V260.632H468.896V13.2989Z" fill="white"/>
</mask>
<g mask="url(#mask1_16_2758)">
<g opacity="0.289993">
<path d="M468.896 260.632H761.916V13.2987C703.295 64.4465 539.7 201.443 468.896 260.632Z" fill="#FBEEE6"/>
</g>
</g>
<mask id="mask2_16_2758" style="mask-type:luminance" maskUnits="userSpaceOnUse" x="13" y="13" width="294" height="248">
<path d="M13.6396 13.2987H306.66V260.632H13.6396V13.2987Z" fill="white"/>
</mask>
<g mask="url(#mask2_16_2758)">
<g opacity="0.289993">
<path d="M306.659 13.2988H13.6392V260.632C72.26 209.484 235.855 72.4874 306.659 13.2988Z" fill="#FBEEE6"/>
</g>
</g>
<path d="M51.4679 163.29C51.4679 165.894 49.3568 168.005 46.7524 168.005C44.1468 168.005 42.0356 165.894 42.0356 163.29C42.0356 160.685 44.1468 158.574 46.7524 158.574C49.3568 158.574 51.4679 160.685 51.4679 163.29Z" stroke="#FF0D34" stroke-width="1.33333" stroke-miterlimit="10"/>
<path d="M762.619 271.807C762.619 244.106 740.163 221.651 712.463 221.651V271.807H762.619Z" fill="#FFCC00"/>
<path d="M353.092 -19.3193C325.391 -19.3193 302.936 3.13718 302.936 30.8369H353.092V-19.3193Z" fill="#FF0D34"/>
<path d="M360.687 -11.7238C332.986 -11.7238 310.531 10.7326 310.531 38.4324H360.687V-11.7238Z" stroke="white" stroke-width="1.748" stroke-miterlimit="10"/>
<path d="M726.177 24.1256L739.963 37.5497" stroke="white" stroke-width="1.60267" stroke-miterlimit="10" stroke-linecap="round"/>
<path d="M739.962 24.1256L726.176 37.5497" stroke="white" stroke-width="1.60267" stroke-miterlimit="10" stroke-linecap="round"/>
<path d="M261.621 80.1105L275.407 93.5345" stroke="white" stroke-width="1.33333" stroke-miterlimit="10"/>
<path d="M275.407 80.1105L261.621 93.5345" stroke="white" stroke-width="1.33333" stroke-miterlimit="10"/>
<path d="M349.546 62.7841C349.546 63.6037 348.881 64.2688 348.061 64.2688C347.24 64.2688 346.577 63.6037 346.577 62.7841C346.577 61.9644 347.24 61.2993 348.061 61.2993C348.881 61.2993 349.546 61.9644 349.546 62.7841Z" fill="#FFCC00"/>
<path d="M368.851 62.7841C368.851 63.6037 368.186 64.2688 367.366 64.2688C366.545 64.2688 365.881 63.6037 365.881 62.7841C365.881 61.9644 366.545 61.2993 367.366 61.2993C368.186 61.2993 368.851 61.9644 368.851 62.7841Z" fill="#FFCC00"/>
<path d="M388.156 62.7841C388.156 63.6037 387.491 64.2688 386.671 64.2688C385.852 64.2688 385.187 63.6037 385.187 62.7841C385.187 61.9644 385.852 61.2993 386.671 61.2993C387.491 61.2993 388.156 61.9644 388.156 62.7841Z" fill="#FFCC00"/>
<path d="M407.461 62.7841C407.461 63.6037 406.796 64.2688 405.976 64.2688C405.156 64.2688 404.491 63.6037 404.491 62.7841C404.491 61.9644 405.156 61.2993 405.976 61.2993C406.796 61.2993 407.461 61.9644 407.461 62.7841Z" fill="#FFCC00"/>
<path d="M349.546 83.0378C349.546 83.8575 348.881 84.5226 348.061 84.5226C347.24 84.5226 346.577 83.8575 346.577 83.0378C346.577 82.2182 347.24 81.5531 348.061 81.5531C348.881 81.5531 349.546 82.2182 349.546 83.0378Z" fill="#FFCC00"/>
<path d="M368.851 83.0378C368.851 83.8575 368.186 84.5226 367.366 84.5226C366.545 84.5226 365.881 83.8575 365.881 83.0378C365.881 82.2182 366.545 81.5531 367.366 81.5531C368.186 81.5531 368.851 82.2182 368.851 83.0378Z" fill="#FFCC00"/>
<path d="M388.156 83.0378C388.156 83.8575 387.491 84.5226 386.671 84.5226C385.852 84.5226 385.187 83.8575 385.187 83.0378C385.187 82.2182 385.852 81.5531 386.671 81.5531C387.491 81.5531 388.156 82.2182 388.156 83.0378Z" fill="#FFCC00"/>
<path d="M407.461 83.0377C407.461 83.8574 406.796 84.5225 405.976 84.5225C405.156 84.5225 404.491 83.8574 404.491 83.0377C404.491 82.218 405.156 81.553 405.976 81.553C406.796 81.553 407.461 82.218 407.461 83.0377Z" fill="#FFCC00"/>
<path d="M349.546 103.292C349.546 104.111 348.881 104.776 348.061 104.776C347.24 104.776 346.577 104.111 346.577 103.292C346.577 102.472 347.24 101.807 348.061 101.807C348.881 101.807 349.546 102.472 349.546 103.292Z" fill="#FFCC00"/>
<path d="M368.851 103.292C368.851 104.111 368.186 104.776 367.366 104.776C366.545 104.776 365.881 104.111 365.881 103.292C365.881 102.472 366.545 101.807 367.366 101.807C368.186 101.807 368.851 102.472 368.851 103.292Z" fill="#FFCC00"/>
<path d="M388.156 103.292C388.156 104.111 387.491 104.776 386.671 104.776C385.852 104.776 385.187 104.111 385.187 103.292C385.187 102.472 385.852 101.807 386.671 101.807C387.491 101.807 388.156 102.472 388.156 103.292Z" fill="#FFCC00"/>
<path d="M407.461 103.292C407.461 104.111 406.796 104.776 405.976 104.776C405.156 104.776 404.491 104.111 404.491 103.292C404.491 102.472 405.156 101.807 405.976 101.807C406.796 101.807 407.461 102.472 407.461 103.292Z" fill="#FFCC00"/>
<path d="M349.546 123.545C349.546 124.365 348.881 125.03 348.061 125.03C347.24 125.03 346.577 124.365 346.577 123.545C346.577 122.726 347.24 122.061 348.061 122.061C348.881 122.061 349.546 122.726 349.546 123.545Z" fill="#FFCC00"/>
<path d="M368.851 123.545C368.851 124.365 368.186 125.03 367.366 125.03C366.545 125.03 365.881 124.365 365.881 123.545C365.881 122.726 366.545 122.061 367.366 122.061C368.186 122.061 368.851 122.726 368.851 123.545Z" fill="#FFCC00"/>
<path d="M388.156 123.545C388.156 124.365 387.491 125.03 386.671 125.03C385.852 125.03 385.187 124.365 385.187 123.545C385.187 122.726 385.852 122.061 386.671 122.061C387.491 122.061 388.156 122.726 388.156 123.545Z" fill="#FFCC00"/>
<path d="M407.461 123.545C407.461 124.365 406.796 125.03 405.976 125.03C405.156 125.03 404.491 124.365 404.491 123.545C404.491 122.726 405.156 122.061 405.976 122.061C406.796 122.061 407.461 122.726 407.461 123.545Z" fill="#FFCC00"/>
<path d="M480.348 37.1801H399.354V27.7478H480.348V37.1801Z" fill="#FFCC00"/>
<path d="M62.7208 79.9365H-18.2739V70.5042H62.7208V79.9365Z" fill="#FFCC00"/>
<path d="M540.981 245.578C540.981 248.823 538.35 251.454 535.105 251.454C531.859 251.454 529.229 248.823 529.229 245.578C529.229 242.333 531.859 239.702 535.105 239.702C538.35 239.702 540.981 242.333 540.981 245.578Z" stroke="white" stroke-width="1.37333" stroke-miterlimit="10"/>
<path d="M397.909 209.178C397.742 210.082 396.876 210.677 395.972 210.511C395.07 210.344 394.473 209.478 394.639 208.576C394.806 207.672 395.672 207.075 396.576 207.241C397.478 207.408 398.075 208.276 397.909 209.178Z" fill="#FFCC00"/>
<path d="M410.779 209.178C410.612 210.082 409.744 210.677 408.842 210.511C407.94 210.344 407.343 209.478 407.509 208.576C407.676 207.672 408.542 207.075 409.446 207.241C410.348 207.408 410.945 208.276 410.779 209.178Z" fill="#FFCC00"/>
<path d="M423.649 209.178C423.482 210.082 422.615 210.677 421.712 210.511C420.81 210.344 420.213 209.478 420.379 208.576C420.546 207.672 421.412 207.075 422.316 207.241C423.218 207.408 423.815 208.276 423.649 209.178Z" fill="#FFCC00"/>
<path d="M436.52 209.178C436.353 210.082 435.486 210.677 434.583 210.511C433.681 210.344 433.084 209.478 433.251 208.576C433.417 207.672 434.283 207.075 435.187 207.241C436.089 207.408 436.687 208.276 436.52 209.178Z" fill="#FFCC00"/>
<path d="M449.39 209.178C449.223 210.082 448.357 210.677 447.453 210.511C446.551 210.344 445.954 209.478 446.121 208.576C446.287 207.672 447.154 207.075 448.057 207.241C448.96 207.408 449.557 208.276 449.39 209.178Z" fill="#FFCC00"/>
<path d="M397.909 220.02C397.742 220.923 396.876 221.519 395.972 221.352C395.07 221.186 394.473 220.32 394.639 219.416C394.806 218.514 395.672 217.916 396.576 218.083C397.478 218.25 398.075 219.116 397.909 220.02Z" fill="#FFCC00"/>
<path d="M410.779 220.02C410.612 220.923 409.744 221.519 408.842 221.352C407.94 221.186 407.343 220.32 407.509 219.416C407.676 218.514 408.542 217.916 409.446 218.083C410.348 218.25 410.945 219.116 410.779 220.02Z" fill="#FFCC00"/>
<path d="M423.649 220.02C423.482 220.923 422.615 221.519 421.712 221.352C420.81 221.186 420.213 220.32 420.379 219.416C420.546 218.514 421.412 217.916 422.316 218.083C423.218 218.25 423.815 219.116 423.649 220.02Z" fill="#FFCC00"/>
<path d="M436.52 220.02C436.353 220.923 435.486 221.519 434.583 221.352C433.681 221.186 433.084 220.32 433.251 219.416C433.417 218.514 434.283 217.916 435.187 218.083C436.089 218.25 436.687 219.116 436.52 220.02Z" fill="#FFCC00"/>
<path d="M449.39 220.02C449.223 220.923 448.357 221.519 447.453 221.352C446.551 221.186 445.954 220.32 446.121 219.416C446.287 218.514 447.154 217.916 448.057 218.083C448.96 218.25 449.557 219.116 449.39 220.02Z" fill="#FFCC00"/>
<path d="M397.909 230.861C397.742 231.764 396.876 232.361 395.972 232.194C395.07 232.028 394.473 231.161 394.639 230.258C394.806 229.355 395.672 228.758 396.576 228.925C397.478 229.091 398.075 229.958 397.909 230.861Z" fill="#FFCC00"/>
<path d="M410.779 230.861C410.612 231.764 409.744 232.361 408.842 232.194C407.94 232.028 407.343 231.161 407.509 230.258C407.676 229.355 408.542 228.758 409.446 228.925C410.348 229.091 410.945 229.958 410.779 230.861Z" fill="#FFCC00"/>
<path d="M423.649 230.861C423.482 231.764 422.615 232.361 421.712 232.194C420.81 232.028 420.213 231.161 420.379 230.258C420.546 229.355 421.412 228.758 422.316 228.925C423.218 229.091 423.815 229.958 423.649 230.861Z" fill="#FFCC00"/>
<path d="M436.52 230.861C436.353 231.764 435.486 232.361 434.583 232.194C433.681 232.028 433.084 231.161 433.251 230.258C433.417 229.355 434.283 228.758 435.187 228.925C436.089 229.091 436.687 229.958 436.52 230.861Z" fill="#FFCC00"/>
<path d="M449.39 230.861C449.223 231.764 448.357 232.361 447.453 232.194C446.551 232.028 445.954 231.161 446.121 230.258C446.287 229.355 447.154 228.758 448.057 228.925C448.96 229.091 449.557 229.958 449.39 230.861Z" fill="#FFCC00"/>
<path d="M397.909 241.703C397.742 242.605 396.876 243.203 395.972 243.036C395.07 242.869 394.473 242.003 394.639 241.099C394.806 240.197 395.672 239.6 396.576 239.767C397.478 239.933 398.075 240.801 397.909 241.703Z" fill="#FFCC00"/>
<path d="M410.779 241.703C410.612 242.605 409.744 243.203 408.842 243.036C407.94 242.869 407.343 242.003 407.509 241.099C407.676 240.197 408.542 239.6 409.446 239.767C410.348 239.933 410.945 240.801 410.779 241.703Z" fill="#FFCC00"/>
<path d="M423.649 241.703C423.482 242.605 422.615 243.203 421.712 243.036C420.81 242.869 420.213 242.003 420.379 241.099C420.546 240.197 421.412 239.6 422.316 239.767C423.218 239.933 423.815 240.801 423.649 241.703Z" fill="#FFCC00"/>
<path d="M436.52 241.703C436.353 242.605 435.486 243.203 434.583 243.036C433.681 242.869 433.084 242.003 433.251 241.099C433.417 240.197 434.283 239.6 435.187 239.767C436.089 239.933 436.687 240.801 436.52 241.703Z" fill="#FFCC00"/>
<path d="M449.39 241.703C449.223 242.605 448.357 243.203 447.453 243.036C446.551 242.869 445.954 242.003 446.121 241.099C446.287 240.197 447.154 239.6 448.057 239.767C448.96 239.933 449.557 240.801 449.39 241.703Z" fill="#FFCC00"/>
<path d="M397.909 252.545C397.742 253.448 396.876 254.044 395.972 253.877C395.07 253.711 394.473 252.845 394.639 251.942C394.806 251.039 395.672 250.441 396.576 250.608C397.478 250.775 398.075 251.642 397.909 252.545Z" fill="#FFCC00"/>
<path d="M410.779 252.545C410.612 253.448 409.744 254.044 408.842 253.877C407.94 253.711 407.343 252.845 407.509 251.942C407.676 251.039 408.542 250.441 409.446 250.608C410.348 250.775 410.945 251.642 410.779 252.545Z" fill="#FFCC00"/>
<path d="M423.649 252.545C423.482 253.448 422.615 254.044 421.712 253.877C420.81 253.711 420.213 252.845 420.379 251.942C420.546 251.039 421.412 250.441 422.316 250.608C423.218 250.775 423.815 251.642 423.649 252.545Z" fill="#FFCC00"/>
<path d="M436.52 252.545C436.353 253.448 435.486 254.044 434.583 253.877C433.681 253.711 433.084 252.845 433.251 251.942C433.417 251.039 434.283 250.441 435.187 250.608C436.089 250.775 436.687 251.642 436.52 252.545Z" fill="#FFCC00"/>
<path d="M449.39 252.545C449.223 253.448 448.357 254.044 447.453 253.877C446.551 253.711 445.954 252.845 446.121 251.942C446.287 251.039 447.154 250.441 448.057 250.608C448.96 250.775 449.557 251.642 449.39 252.545Z" fill="#FFCC00"/>
<path d="M397.909 263.386C397.742 264.289 396.876 264.886 395.972 264.719C395.07 264.553 394.473 263.686 394.639 262.784C394.806 261.88 395.672 261.283 396.576 261.45C397.478 261.616 398.075 262.484 397.909 263.386Z" fill="#FFCC00"/>
<path d="M410.779 263.386C410.612 264.289 409.744 264.886 408.842 264.719C407.94 264.553 407.343 263.686 407.509 262.784C407.676 261.88 408.542 261.283 409.446 261.45C410.348 261.616 410.945 262.484 410.779 263.386Z" fill="#FFCC00"/>
<path d="M423.649 263.386C423.482 264.289 422.615 264.886 421.712 264.719C420.81 264.553 420.213 263.686 420.379 262.784C420.546 261.88 421.412 261.283 422.316 261.45C423.218 261.616 423.815 262.484 423.649 263.386Z" fill="#FFCC00"/>
<path d="M436.52 263.386C436.353 264.289 435.486 264.886 434.583 264.719C433.681 264.553 433.084 263.686 433.251 262.784C433.417 261.88 434.283 261.283 435.187 261.45C436.089 261.616 436.687 262.484 436.52 263.386Z" fill="#FFCC00"/>
<path d="M449.39 263.386C449.223 264.289 448.357 264.886 447.453 264.719C446.551 264.553 445.954 263.686 446.121 262.784C446.287 261.88 447.154 261.283 448.057 261.45C448.96 261.616 449.557 262.484 449.39 263.386Z" fill="#FFCC00"/>
<path d="M404.084 155.492L410.628 162.036L404.084 168.58" stroke="white" stroke-width="1.60267" stroke-miterlimit="10" stroke-linecap="round"/>
<path d="M412.245 155.492L418.789 162.036L412.245 168.58" stroke="white" stroke-width="1.60267" stroke-miterlimit="10" stroke-linecap="round"/>
<path d="M420.405 155.492L426.949 162.036L420.405 168.58" stroke="white" stroke-width="1.60267" stroke-miterlimit="10" stroke-linecap="round"/>
<path d="M428.565 155.492L435.11 162.036L428.565 168.58" stroke="white" stroke-width="1.60267" stroke-miterlimit="10" stroke-linecap="round"/>
<path d="M436.726 155.492L443.27 162.036L436.726 168.58" stroke="white" stroke-width="1.60267" stroke-miterlimit="10" stroke-linecap="round"/>
<path d="M114.691 336.564L52.9194 274.792C52.1037 273.976 52.1037 272.651 52.9194 271.836L114.691 210.064C115.507 209.247 116.831 209.247 117.647 210.064L179.419 271.836C180.236 272.651 180.236 273.976 179.419 274.792L117.647 336.564C116.831 337.381 115.507 337.381 114.691 336.564Z" fill="#FF0D34"/>
<path d="M114.738 354.768L54.936 294.966C54.1457 294.176 54.1457 292.895 54.936 292.104L114.738 232.303C115.528 231.512 116.81 231.512 117.599 232.303L177.402 292.104C178.191 292.895 178.191 294.176 177.402 294.966L117.599 354.768C116.81 355.558 115.528 355.558 114.738 354.768Z" stroke="white" stroke-width="1.748" stroke-miterlimit="10"/>
<path d="M305.01 184.712C305.01 184.214 305.422 183.812 305.931 183.812C306.439 183.812 306.852 184.214 306.852 184.712C306.852 185.209 306.439 185.612 305.931 185.612C305.422 185.612 305.01 185.209 305.01 184.712Z" fill="white"/>
<path d="M297.645 184.712C297.645 184.214 298.057 183.812 298.566 183.812C299.074 183.812 299.488 184.214 299.488 184.712C299.488 185.209 299.074 185.612 298.566 185.612C298.057 185.612 297.645 185.209 297.645 184.712Z" fill="white"/>
<path d="M290.28 184.712C290.28 184.214 290.692 183.812 291.202 183.812C291.71 183.812 292.123 184.214 292.123 184.712C292.123 185.209 291.71 185.612 291.202 185.612C290.692 185.612 290.28 185.209 290.28 184.712Z" fill="white"/>
<path d="M282.916 184.712C282.916 184.214 283.328 183.812 283.837 183.812C284.345 183.812 284.757 184.214 284.757 184.712C284.757 185.209 284.345 185.612 283.837 185.612C283.328 185.612 282.916 185.209 282.916 184.712Z" fill="white"/>
<path d="M279.67 180.265C280.167 180.265 280.57 180.677 280.57 181.186C280.57 181.694 280.167 182.107 279.67 182.107C279.172 182.107 278.77 181.694 278.77 181.186C278.77 180.677 279.172 180.265 279.67 180.265Z" fill="white"/>
<path d="M279.67 172.9C280.167 172.9 280.57 173.312 280.57 173.821C280.57 174.329 280.167 174.741 279.67 174.741C279.172 174.741 278.77 174.329 278.77 173.821C278.77 173.312 279.172 172.9 279.67 172.9Z" fill="white"/>
<path d="M279.67 165.535C280.167 165.535 280.57 165.947 280.57 166.456C280.57 166.964 280.167 167.376 279.67 167.376C279.172 167.376 278.77 166.964 278.77 166.456C278.77 165.947 279.172 165.535 279.67 165.535Z" fill="white"/>
<path d="M279.67 158.17C280.167 158.17 280.57 158.582 280.57 159.091C280.57 159.599 280.167 160.012 279.67 160.012C279.172 160.012 278.77 159.599 278.77 159.091C278.77 158.582 279.172 158.17 279.67 158.17Z" fill="white"/>
<path d="M280.434 151.241C280.466 151.489 280.419 151.717 280.453 151.892C280.475 152.068 280.567 152.149 280.569 152.141C280.569 152.141 280.545 152.13 280.498 152.137C280.475 152.118 280.447 152.196 280.415 152.241C280.383 152.29 280.346 152.336 280.306 152.377C280.142 152.544 279.918 152.646 279.67 152.646C279.421 152.646 279.195 152.544 279.033 152.377C278.993 152.336 278.955 152.29 278.923 152.241C278.891 152.188 278.863 152.16 278.841 152.033C278.794 151.818 278.809 151.57 278.91 151.342C279.107 150.874 279.578 150.66 279.899 150.713C280.235 150.754 280.405 151.001 280.434 151.241Z" fill="white"/>
<path d="M287.799 151.241C287.799 151.739 287.387 152.141 286.878 152.141C286.37 152.141 285.957 151.739 285.957 151.241C285.957 150.744 286.37 150.341 286.878 150.341C287.387 150.341 287.799 150.744 287.799 151.241Z" fill="white"/>
<path d="M295.164 151.241C295.164 151.739 294.752 152.141 294.242 152.141C293.734 152.141 293.322 151.739 293.322 151.241C293.322 150.744 293.734 150.341 294.242 150.341C294.752 150.341 295.164 150.744 295.164 151.241Z" fill="white"/>
<path d="M302.528 151.241C302.528 151.739 302.116 152.141 301.607 152.141C301.099 152.141 300.687 151.739 300.687 151.241C300.687 150.744 301.099 150.341 301.607 150.341C302.116 150.341 302.528 150.744 302.528 151.241Z" fill="white"/>
<path d="M309.893 151.241C309.893 151.739 309.481 152.141 308.972 152.141C308.464 152.141 308.051 151.739 308.051 151.241C308.051 150.744 308.464 150.341 308.972 150.341C309.481 150.341 309.893 150.744 309.893 151.241Z" fill="white"/>
<path d="M313.14 155.688C312.642 155.688 312.24 155.276 312.24 154.767C312.24 154.259 312.642 153.847 313.14 153.847C313.637 153.847 314.04 154.259 314.04 154.767C314.04 155.276 313.637 155.688 313.14 155.688Z" fill="white"/>
<path d="M313.14 163.054C312.642 163.054 312.24 162.642 312.24 162.132C312.24 161.624 312.642 161.211 313.14 161.211C313.637 161.211 314.04 161.624 314.04 162.132C314.04 162.642 313.637 163.054 313.14 163.054Z" fill="white"/>
<path d="M313.14 170.418C312.642 170.418 312.24 170.006 312.24 169.497C312.24 168.989 312.642 168.576 313.14 168.576C313.637 168.576 314.04 168.989 314.04 169.497C314.04 170.006 313.637 170.418 313.14 170.418Z" fill="white"/>
<path d="M313.14 177.783C312.642 177.783 312.24 177.371 312.24 176.862C312.24 176.354 312.642 175.942 313.14 175.942C313.637 175.942 314.04 176.354 314.04 176.862C314.04 177.371 313.637 177.783 313.14 177.783Z" fill="white"/>
<path d="M312.375 184.712C312.343 184.464 312.39 184.236 312.356 184.061C312.334 183.885 312.24 183.804 312.24 183.812C312.24 183.812 312.266 183.822 312.311 183.817C312.334 183.834 312.362 183.757 312.394 183.712C312.426 183.664 312.463 183.617 312.503 183.576C312.666 183.409 312.891 183.306 313.139 183.306C313.388 183.306 313.612 183.409 313.776 183.576C313.816 183.617 313.854 183.664 313.886 183.712C313.918 183.765 313.946 183.793 313.968 183.921C314.015 184.134 314 184.384 313.899 184.612C313.702 185.08 313.231 185.293 312.91 185.241C312.574 185.198 312.404 184.953 312.375 184.712Z" fill="white"/>
<path d="M585.001 20.8281L581.818 23.3431L578.637 25.8582V20.8281V15.7981L581.818 18.3131L585.001 20.8281Z" fill="#FFF9FD"/>
<path d="M603.684 20.8283L600.503 23.3433L597.32 25.8583V20.8283V15.7982L600.503 18.3133L603.684 20.8283Z" fill="#FFF9FD"/>
<path d="M622.369 20.8281L619.188 23.3431L616.005 25.8582V20.8281V15.7981L619.188 18.3131L622.369 20.8281Z" fill="#FFF9FD"/>
<path d="M641.054 20.8283L637.872 23.3433L634.689 25.8583V20.8283V15.7982L637.872 18.3133L641.054 20.8283Z" fill="#FFF9FD"/>
<path d="M659.737 20.8281L656.556 23.3431L653.373 25.8582V20.8281V15.7981L656.556 18.3131L659.737 20.8281Z" fill="#FFF9FD"/>
<path d="M243.535 239.282L240.353 241.797L237.17 244.312V239.282V234.252L240.353 236.767L243.535 239.282Z" fill="#FF0D34"/>
<path d="M262.218 239.282L259.037 241.797L255.854 244.312V239.282V234.252L259.037 236.767L262.218 239.282Z" fill="#FF0D34"/>
<path d="M280.902 239.282L277.721 241.797L274.538 244.312V239.282V234.252L277.721 236.767L280.902 239.282Z" fill="#FF0D34"/>
<path d="M299.586 239.282L296.405 241.797L293.222 244.312V239.282V234.252L296.405 236.767L299.586 239.282Z" fill="#FF0D34"/>
<path d="M318.27 239.282L315.089 241.797L311.906 244.312V239.282V234.252L315.089 236.767L318.27 239.282Z" fill="#FF0D34"/>
<path d="M94.7196 -9.8737L85.3327 -0.48674L75.9457 -9.8737L66.644 -0.572041L76.031 8.81492L66.644 18.2019L75.9457 27.5035L85.3327 18.1179L94.7196 27.5035L104.021 18.2019L94.6343 8.81492L104.021 -0.572041L94.7196 -9.8737Z" stroke="white" stroke-width="1.26133" stroke-miterlimit="10"/>
</g>
<path d="M511.762 138.04C511.49 138.04 511.354 137.87 511.354 137.53L511.558 67.5312C511.558 67.2595 511.694 67.1236 511.965 67.1236H531.528C535.4 67.1236 538.865 68.0746 541.921 69.9766C544.978 71.8106 547.389 74.256 549.156 77.3127C550.922 80.3695 551.805 83.6979 551.805 87.298C551.805 90.2189 551.125 92.936 549.767 95.4493C548.476 97.9626 546.914 100 545.08 101.563C547.05 103.533 548.578 105.808 549.665 108.389C550.752 110.971 551.295 113.688 551.295 116.541C551.295 120.481 550.344 124.081 548.442 127.341C546.54 130.602 543.959 133.217 540.699 135.187C537.506 137.089 533.94 138.04 530 138.04H511.762ZM523.785 95.2455H531.528C533.906 95.2455 535.808 94.4304 537.234 92.8002C538.729 91.102 539.476 89.2679 539.476 87.298C539.476 85.1244 538.695 83.2564 537.132 81.694C535.57 80.0638 533.702 79.2487 531.528 79.2487H523.785V95.2455ZM523.683 125.609H530C532.445 125.609 534.551 124.726 536.317 122.96C538.083 121.126 538.966 118.986 538.966 116.541C538.966 114.095 538.083 111.99 536.317 110.224C534.551 108.457 532.445 107.574 530 107.574H523.785L523.683 125.609ZM559.025 138.04C558.754 138.04 558.618 137.87 558.618 137.53L558.72 67.6331C558.72 67.2934 558.89 67.1236 559.229 67.1236H570.539C570.879 67.1236 571.049 67.2934 571.049 67.6331L570.947 125.507H591.936C592.276 125.507 592.446 125.677 592.446 126.017V137.53C592.446 137.87 592.276 138.04 591.936 138.04H559.025ZM595.651 137.53L608.286 67.5312C608.354 67.2595 608.524 67.1236 608.795 67.1236H623.569C623.841 67.1236 624.011 67.2595 624.079 67.5312L636.204 137.53C636.272 137.87 636.136 138.04 635.796 138.04H624.486C624.215 138.04 624.045 137.87 623.977 137.53L622.856 130.092H608.999L607.878 137.53C607.81 137.87 607.64 138.04 607.369 138.04H596.059C595.787 138.04 595.651 137.87 595.651 137.53ZM611.037 119.19H620.818L616.641 90.5586L616.03 86.7886L615.622 90.5586L611.037 119.19ZM659.356 139.059C655.62 139.059 652.224 138.142 649.167 136.308C646.178 134.406 643.801 131.892 642.035 128.768C640.269 125.643 639.386 122.145 639.386 118.273L639.488 86.4829C639.488 82.7469 640.337 79.3505 642.035 76.2938C643.801 73.1692 646.178 70.6898 649.167 68.8558C652.224 66.9538 655.62 66.0028 659.356 66.0028C663.092 66.0028 666.455 66.9198 669.444 68.7539C672.432 70.5879 674.81 73.0673 676.576 76.1919C678.342 79.2486 679.225 82.679 679.225 86.4829V91.1699C679.225 91.4416 679.089 91.5775 678.817 91.5775H667.406C667.134 91.5775 666.998 91.4416 666.998 91.1699V86.4829C666.998 84.2413 666.251 82.3054 664.757 80.6751C663.33 79.0449 661.53 78.2297 659.356 78.2297C656.911 78.2297 655.043 79.0788 653.752 80.777C652.462 82.4073 651.816 84.3092 651.816 86.4829V118.273C651.816 120.786 652.53 122.824 653.956 124.386C655.45 125.949 657.251 126.73 659.356 126.73C661.53 126.73 663.33 125.881 664.757 124.183C666.251 122.416 666.998 120.447 666.998 118.273V113.586C666.998 113.314 667.134 113.178 667.406 113.178H678.919C679.191 113.178 679.327 113.314 679.327 113.586V118.273C679.327 122.145 678.41 125.643 676.576 128.768C674.81 131.892 672.432 134.406 669.444 136.308C666.455 138.142 663.092 139.059 659.356 139.059ZM687.185 138.04C686.914 138.04 686.778 137.87 686.778 137.53L686.982 67.6331C686.982 67.2934 687.117 67.1236 687.389 67.1236H698.801C699.073 67.1236 699.208 67.2934 699.208 67.6331V91.7813L715.205 67.5312C715.409 67.2595 715.647 67.1236 715.919 67.1236H727.636C727.908 67.1236 727.976 67.2595 727.84 67.5312L710.213 95.6531L729.98 137.632C730.115 137.904 729.946 138.04 729.47 138.04H717.039C716.7 138.04 716.496 137.904 716.428 137.632L702.673 107.676L699.107 113.28V137.53C699.107 137.87 698.971 138.04 698.699 138.04H687.185Z" fill="#FFCC00"/>
<mask id="mask3_16_2758" style="mask-type:luminance" maskUnits="userSpaceOnUse" x="0" y="0" width="780" height="272">
<path d="M0 271.807H780V2.1475e-05H0V271.807Z" fill="white"/>
</mask>
<g mask="url(#mask3_16_2758)">
<path d="M526.872 139.176C530.809 139.176 534.393 138.208 537.619 136.273C540.842 134.338 543.406 131.74 545.308 128.481C547.208 125.223 548.16 121.624 548.16 117.684C548.16 114.833 547.615 112.118 546.53 109.537C545.444 106.958 543.915 104.684 541.948 102.713C543.78 101.152 545.358 99.1141 546.682 96.6018C548.007 94.0908 548.669 91.3745 548.669 88.4543C548.669 84.8558 547.785 81.5278 546.021 78.473C544.255 75.4168 541.844 72.9565 538.789 71.0892C535.733 69.2219 532.272 68.2876 528.4 68.2876H508.846C508.574 68.2876 508.438 68.4249 508.438 68.6955L508.234 138.667C508.234 139.008 508.369 139.176 508.641 139.176H526.872ZM520.66 80.4082H528.4C530.572 80.4082 532.439 81.2065 534.003 82.8019C535.564 84.3973 536.345 86.2819 536.345 88.4543C536.345 90.4242 535.616 92.2395 534.155 93.9029C532.694 95.5675 530.777 96.3979 528.4 96.3979H520.66V80.4082ZM520.66 108.722H526.872C529.317 108.722 531.421 109.605 533.187 111.371C534.952 113.137 535.835 115.241 535.835 117.684C535.835 120.13 534.952 122.253 533.187 124.051C531.421 125.85 529.317 126.75 526.872 126.75H520.559L520.66 108.722Z" stroke="white" stroke-width="1.33333" stroke-miterlimit="10"/>
<path d="M588.798 139.176C589.136 139.176 589.307 139.008 589.307 138.667V127.156C589.307 126.819 589.136 126.649 588.798 126.649H567.817L567.918 68.7968C567.918 68.4569 567.747 68.2876 567.409 68.2876H556.104C555.763 68.2876 555.593 68.4569 555.593 68.7968L555.492 138.667C555.492 139.008 555.627 139.176 555.899 139.176H588.798Z" stroke="white" stroke-width="1.33333" stroke-miterlimit="10"/>
<path d="M592.87 139.176H604.175C604.445 139.176 604.616 139.008 604.684 138.667L605.805 131.232H619.657L620.776 138.667C620.843 139.008 621.013 139.176 621.285 139.176H632.591C632.93 139.176 633.065 139.008 632.998 138.667L620.879 68.6955C620.809 68.4249 620.64 68.2876 620.37 68.2876H605.601C605.329 68.2876 605.158 68.4249 605.092 68.6955L592.462 138.667C592.462 139.008 592.597 139.176 592.87 139.176ZM612.425 91.7131L612.833 87.9452L613.444 91.7131L617.619 120.334H607.841L612.425 91.7131Z" stroke="white" stroke-width="1.33333" stroke-miterlimit="10"/>
<path d="M666.203 137.393C669.19 135.527 671.582 133.031 673.383 129.907C675.181 126.785 676.082 123.287 676.082 119.416V114.732C676.082 114.461 675.946 114.324 675.674 114.324H664.165C663.893 114.324 663.757 114.461 663.757 114.732V119.416C663.757 121.59 663.027 123.541 661.568 125.273C660.108 127.005 658.292 127.87 656.12 127.87C654.013 127.87 652.231 127.091 650.772 125.527C649.311 123.967 648.582 121.929 648.582 119.416V87.6396C648.582 85.4671 649.227 83.5492 650.517 81.8845C651.806 80.2212 653.675 79.3895 656.12 79.3895C658.292 79.3895 660.108 80.2038 661.568 81.8339C663.027 83.4639 663.757 85.3978 663.757 87.6396V92.3244C663.757 92.5963 663.893 92.7322 664.165 92.7322H675.573C675.843 92.7322 675.981 92.5963 675.981 92.3244V87.6396C675.981 83.8371 675.097 80.3918 673.332 77.301C671.565 74.2129 669.19 71.7512 666.203 69.9172C663.214 68.0846 659.852 67.1677 656.12 67.1677C652.385 67.1677 649.006 68.1019 645.984 69.9679C642.963 71.8365 640.587 74.3142 638.855 77.4036C637.124 80.4944 636.258 83.9064 636.258 87.6396L636.156 119.416C636.156 123.287 637.037 126.785 638.805 129.907C640.571 133.031 642.963 135.527 645.984 137.393C649.006 139.261 652.385 140.195 656.12 140.195C659.852 140.195 663.214 139.261 666.203 137.393Z" stroke="white" stroke-width="1.33333" stroke-miterlimit="10"/>
<path d="M695.432 139.176C695.701 139.176 695.84 139.008 695.84 138.667V114.425L699.403 108.825L713.155 138.768C713.221 139.04 713.424 139.176 713.765 139.176H726.191C726.665 139.176 726.836 139.04 726.7 138.768L706.941 96.8057L724.561 68.6955C724.697 68.4249 724.627 68.2876 724.357 68.2876H712.644C712.372 68.2876 712.135 68.4249 711.932 68.6955L695.941 92.9352V68.7968C695.941 68.4569 695.804 68.2876 695.534 68.2876H684.127C683.854 68.2876 683.72 68.4569 683.72 68.7968L683.516 138.667C683.516 139.008 683.65 139.176 683.922 139.176H695.432Z" stroke="white" stroke-width="1.33333" stroke-miterlimit="10"/>
</g>
<path d="M511.606 214.056C511.285 214.056 511.125 213.896 511.125 213.576L511.317 147.542C511.317 147.285 511.445 147.157 511.702 147.157H542.46C542.78 147.157 542.94 147.285 542.94 147.542V158.403C542.94 158.66 542.812 158.788 542.556 158.788H522.852V173.686H542.556C542.812 173.686 542.94 173.846 542.94 174.167L543.037 185.028C543.037 185.285 542.876 185.413 542.556 185.413H522.852V213.576C522.852 213.896 522.691 214.056 522.371 214.056H511.606ZM552.905 214.056C552.648 214.056 552.52 213.896 552.52 213.576L552.712 147.542C552.712 147.285 552.84 147.157 553.097 147.157H572.513C575.973 147.157 579.145 148.022 582.029 149.752C584.976 151.419 587.315 153.693 589.045 156.577C590.775 159.396 591.641 162.6 591.641 166.189C591.641 168.56 591.288 170.706 590.583 172.629C589.878 174.487 589.045 176.089 588.084 177.435C587.123 178.716 586.258 179.678 585.489 180.318C588.949 184.163 590.679 188.681 590.679 193.871L590.775 213.576C590.775 213.896 590.615 214.056 590.295 214.056H579.433C579.177 214.056 579.049 213.96 579.049 213.768V193.871C579.049 191.564 578.216 189.578 576.55 187.912C574.948 186.182 572.961 185.317 570.59 185.317H564.247L564.15 213.576C564.15 213.896 564.022 214.056 563.766 214.056H552.905ZM564.247 173.782H572.513C574.499 173.782 576.261 173.045 577.799 171.572C579.337 170.098 580.106 168.303 580.106 166.189C580.106 164.138 579.337 162.376 577.799 160.902C576.326 159.428 574.563 158.692 572.513 158.692H564.247V173.782ZM599.371 214.056C599.05 214.056 598.89 213.896 598.89 213.576L598.986 147.542C598.986 147.285 599.114 147.157 599.371 147.157H610.136C610.392 147.157 610.52 147.285 610.52 147.542L610.617 213.576C610.617 213.896 610.488 214.056 610.232 214.056H599.371ZM619.552 214.056C619.231 214.056 619.071 213.896 619.071 213.576L619.263 147.542C619.263 147.285 619.392 147.157 619.648 147.157L637.622 147.061C641.147 146.997 644.351 147.83 647.234 149.56C650.182 151.29 652.521 153.629 654.251 156.577C655.981 159.461 656.846 162.664 656.846 166.189V193.775C656.846 197.492 655.949 200.888 654.155 203.964C652.36 206.975 649.958 209.378 646.946 211.173C643.934 212.967 640.538 213.896 636.757 213.96L619.552 214.056ZM630.798 202.234H636.757C639.128 202.234 641.115 201.4 642.717 199.734C644.383 198.068 645.216 196.082 645.216 193.775V166.093C645.216 164.042 644.447 162.28 642.909 160.806C641.435 159.268 639.673 158.531 637.622 158.595L630.894 158.692L630.798 202.234ZM659.263 213.576L671.182 147.542C671.246 147.285 671.406 147.157 671.663 147.157H685.6C685.856 147.157 686.016 147.285 686.081 147.542L697.519 213.576C697.583 213.896 697.455 214.056 697.134 214.056H686.465C686.209 214.056 686.048 213.896 685.984 213.576L684.927 206.559H671.855L670.798 213.576C670.733 213.896 670.573 214.056 670.317 214.056H659.648C659.391 214.056 659.263 213.896 659.263 213.576ZM673.777 196.274H683.005L679.064 169.265L678.487 165.708L678.103 169.265L673.777 196.274ZM708.266 214.056C708.074 214.056 707.978 213.928 707.978 213.672L708.074 186.374L695.194 147.542C695.13 147.285 695.226 147.157 695.482 147.157H706.151C706.472 147.157 706.664 147.285 706.728 147.542L713.841 173.398L721.05 147.542C721.114 147.285 721.274 147.157 721.53 147.157H732.296C732.552 147.157 732.648 147.285 732.584 147.542L719.608 185.989L719.704 213.672C719.704 213.928 719.576 214.056 719.32 214.056H708.266Z" fill="#FF0D34"/>
<mask id="mask4_16_2758" style="mask-type:luminance" maskUnits="userSpaceOnUse" x="0" y="0" width="780" height="272">
<path d="M0 271.807H780V2.1475e-05H0V271.807Z" fill="white"/>
</mask>
<g mask="url(#mask4_16_2758)">
<path d="M240.204 128.065C240.204 169.391 206.703 202.893 165.376 202.893C124.051 202.893 90.5498 169.391 90.5498 128.065C90.5498 86.7384 124.051 53.237 165.376 53.237C206.703 53.237 240.204 86.7384 240.204 128.065Z" fill="#FFCC00"/>
</g>
</svg>
