<svg width="780" height="272" viewBox="0 0 780 272" fill="none" xmlns="http://www.w3.org/2000/svg">
<path d="M0 271.806H780V0.000122678H0V271.806Z" fill="#191927"/>
<mask id="mask0_16_2757" style="mask-type:luminance" maskUnits="userSpaceOnUse" x="0" y="0" width="780" height="272">
<path d="M0 271.806H780V0.000122678H0V271.806Z" fill="white"/>
</mask>
<g mask="url(#mask0_16_2757)">
<mask id="mask1_16_2757" style="mask-type:luminance" maskUnits="userSpaceOnUse" x="471" y="14" width="294" height="248">
<path d="M471.296 14.6081H764.316V261.941H471.296V14.6081Z" fill="white"/>
</mask>
<g mask="url(#mask1_16_2757)">
<g opacity="0.289993">
<path d="M471.296 261.941H764.316V14.6076C705.695 65.7555 542.1 202.752 471.296 261.941Z" fill="#FBEEE6"/>
</g>
</g>
<mask id="mask2_16_2757" style="mask-type:luminance" maskUnits="userSpaceOnUse" x="16" y="14" width="294" height="248">
<path d="M16.04 14.6076H309.061V261.941H16.04V14.6076Z" fill="white"/>
</mask>
<g mask="url(#mask2_16_2757)">
<g opacity="0.289993">
<path d="M309.06 14.6076H16.0396V261.941C74.6604 210.793 238.256 73.7963 309.06 14.6076Z" fill="#FBEEE6"/>
</g>
</g>
</g>
<path d="M351.934 254.054H226.035V220.837H351.934V254.054Z" stroke="white" stroke-width="0.642667" stroke-miterlimit="10"/>
<path d="M345.878 247.998H219.979V214.781H345.878V247.998Z" fill="#FFCC00"/>
<mask id="mask3_16_2757" style="mask-type:luminance" maskUnits="userSpaceOnUse" x="0" y="0" width="780" height="272">
<path d="M0 271.806H780V0.000122678H0V271.806Z" fill="white"/>
</mask>
<g mask="url(#mask3_16_2757)">
<path d="M390.944 60.2445C390.944 62.8488 388.833 64.96 386.229 64.96C383.623 64.96 381.512 62.8488 381.512 60.2445C381.512 57.6402 383.623 55.5277 386.229 55.5277C388.833 55.5277 390.944 57.6402 390.944 60.2445Z" stroke="#FF0D34" stroke-width="1.33333" stroke-miterlimit="10"/>
<path d="M726.176 237.313C726.176 239.918 724.065 242.029 721.461 242.029C718.855 242.029 716.744 239.918 716.744 237.313C716.744 234.709 718.855 232.597 721.461 232.597C724.065 232.597 726.176 234.709 726.176 237.313Z" stroke="#FF0D34" stroke-width="1.33333" stroke-miterlimit="10"/>
<path d="M786.991 168.879C786.991 141.178 764.535 118.722 736.835 118.722V168.879H786.991Z" fill="#FFCC00"/>
<path d="M431.995 223.09L445.782 236.514" stroke="white" stroke-width="1.60267" stroke-miterlimit="10" stroke-linecap="round"/>
<path d="M445.782 223.09L431.995 236.514" stroke="white" stroke-width="1.60267" stroke-miterlimit="10" stroke-linecap="round"/>
<path d="M8.40761 86.0299C8.24101 86.9322 7.37469 87.5293 6.47104 87.3627C5.56873 87.1961 4.97163 86.3298 5.13824 85.4262C5.30484 84.5239 6.17116 83.9268 7.0748 84.0934C7.97711 84.26 8.57421 85.1263 8.40761 86.0299Z" fill="#FFCC00"/>
<path d="M21.2782 86.0299C21.1116 86.9322 20.2453 87.5293 19.3416 87.3627C18.4393 87.1961 17.8422 86.3298 18.0088 85.4262C18.1754 84.5239 19.0418 83.9268 19.9454 84.0934C20.8477 84.26 21.4448 85.1263 21.2782 86.0299Z" fill="#FFCC00"/>
<path d="M34.1488 86.0299C33.9822 86.9322 33.1159 87.5293 32.2123 87.3627C31.3099 87.1961 30.7128 86.3298 30.8794 85.4262C31.046 84.5239 31.9124 83.9268 32.816 84.0934C33.7183 84.26 34.3154 85.1263 34.1488 86.0299Z" fill="#FFCC00"/>
<path d="M8.40761 96.8715C8.24101 97.7738 7.37469 98.3709 6.47104 98.2043C5.56873 98.0377 4.97163 97.1714 5.13824 96.2677C5.30484 95.3654 6.17116 94.7683 7.0748 94.9349C7.97711 95.1015 8.57421 95.9692 8.40761 96.8715Z" fill="#FFCC00"/>
<path d="M21.2782 96.8715C21.1116 97.7738 20.2453 98.3709 19.3416 98.2043C18.4393 98.0377 17.8422 97.1714 18.0088 96.2677C18.1754 95.3654 19.0418 94.7683 19.9454 94.9349C20.8477 95.1015 21.4448 95.9692 21.2782 96.8715Z" fill="#FFCC00"/>
<path d="M34.1488 96.8715C33.9822 97.7738 33.1159 98.3709 32.2123 98.2043C31.3099 98.0377 30.7128 97.1714 30.8794 96.2677C31.046 95.3654 31.9124 94.7683 32.816 94.9349C33.7183 95.1015 34.3154 95.9692 34.1488 96.8715Z" fill="#FFCC00"/>
<path d="M8.40761 107.714C8.24101 108.616 7.37469 109.213 6.47104 109.046C5.56873 108.88 4.97163 108.013 5.13824 107.11C5.30484 106.207 6.17116 105.61 7.0748 105.777C7.97711 105.944 8.57421 106.811 8.40761 107.714Z" fill="#FFCC00"/>
<path d="M21.2782 107.714C21.1116 108.616 20.2453 109.213 19.3416 109.046C18.4393 108.88 17.8422 108.013 18.0088 107.11C18.1754 106.207 19.0418 105.61 19.9454 105.777C20.8477 105.944 21.4448 106.811 21.2782 107.714Z" fill="#FFCC00"/>
<path d="M34.1488 107.714C33.9822 108.616 33.1159 109.213 32.2123 109.046C31.3099 108.88 30.7128 108.013 30.8794 107.11C31.046 106.207 31.9124 105.61 32.816 105.777C33.7183 105.944 34.3154 106.811 34.1488 107.714Z" fill="#FFCC00"/>
<path d="M8.40761 118.555C8.24101 119.457 7.37469 120.054 6.47104 119.888C5.56873 119.721 4.97163 118.855 5.13824 117.951C5.30484 117.049 6.17116 116.452 7.0748 116.619C7.97711 116.785 8.57421 117.651 8.40761 118.555Z" fill="#FFCC00"/>
<path d="M21.2782 118.555C21.1116 119.457 20.2453 120.054 19.3416 119.888C18.4393 119.721 17.8422 118.855 18.0088 117.951C18.1754 117.049 19.0418 116.452 19.9454 116.619C20.8477 116.785 21.4448 117.651 21.2782 118.555Z" fill="#FFCC00"/>
<path d="M34.1488 118.555C33.9822 119.457 33.1159 120.054 32.2123 119.888C31.3099 119.721 30.7128 118.855 30.8794 117.951C31.046 117.049 31.9124 116.452 32.816 116.619C33.7183 116.785 34.3154 117.651 34.1488 118.555Z" fill="#FFCC00"/>
<path d="M8.40761 129.397C8.24101 130.299 7.37469 130.896 6.47104 130.73C5.56873 130.563 4.97163 129.697 5.13824 128.793C5.30484 127.891 6.17116 127.294 7.0748 127.46C7.97711 127.627 8.57421 128.495 8.40761 129.397Z" fill="#FFCC00"/>
<path d="M21.2782 129.397C21.1116 130.299 20.2453 130.896 19.3416 130.73C18.4393 130.563 17.8422 129.697 18.0088 128.793C18.1754 127.891 19.0418 127.294 19.9454 127.46C20.8477 127.627 21.4448 128.495 21.2782 129.397Z" fill="#FFCC00"/>
<path d="M34.1488 129.397C33.9822 130.299 33.1159 130.896 32.2123 130.73C31.3099 130.563 30.7128 129.697 30.8794 128.793C31.046 127.891 31.9124 127.294 32.816 127.46C33.7183 127.627 34.3154 128.495 34.1488 129.397Z" fill="#FFCC00"/>
<path d="M8.40761 140.238C8.24101 141.141 7.37469 141.738 6.47104 141.571C5.56873 141.405 4.97163 140.538 5.13824 139.635C5.30484 138.732 6.17116 138.135 7.0748 138.302C7.97711 138.468 8.57421 139.336 8.40761 140.238Z" fill="#FFCC00"/>
<path d="M21.2782 140.238C21.1116 141.141 20.2453 141.738 19.3416 141.571C18.4393 141.405 17.8422 140.538 18.0088 139.635C18.1754 138.732 19.0418 138.135 19.9454 138.302C20.8477 138.468 21.4448 139.336 21.2782 140.238Z" fill="#FFCC00"/>
<path d="M34.1488 140.238C33.9822 141.141 33.1159 141.738 32.2123 141.571C31.3099 141.405 30.7128 140.538 30.8794 139.635C31.046 138.732 31.9124 138.135 32.816 138.302C33.7183 138.468 34.3154 139.336 34.1488 140.238Z" fill="#FFCC00"/>
<path d="M8.40761 151.08C8.24101 151.983 7.37469 152.58 6.47104 152.413C5.56873 152.246 4.97163 151.38 5.13824 150.476C5.30484 149.574 6.17116 148.977 7.0748 149.144C7.97711 149.31 8.57421 150.178 8.40761 151.08Z" fill="#FFCC00"/>
<path d="M21.2782 151.08C21.1116 151.983 20.2453 152.58 19.3416 152.413C18.4393 152.246 17.8422 151.38 18.0088 150.476C18.1754 149.574 19.0418 148.977 19.9454 149.144C20.8477 149.31 21.4448 150.178 21.2782 151.08Z" fill="#FFCC00"/>
<path d="M34.1488 151.08C33.9822 151.983 33.1159 152.58 32.2123 152.413C31.3099 152.246 30.7128 151.38 30.8794 150.476C31.046 149.574 31.9124 148.977 32.816 149.144C33.7183 149.31 34.3154 150.178 34.1488 151.08Z" fill="#FFCC00"/>
<path d="M8.40761 161.922C8.24101 162.825 7.37469 163.421 6.47104 163.255C5.56873 163.089 4.97163 162.222 5.13824 161.319C5.30484 160.416 6.17116 159.819 7.0748 159.985C7.97711 160.152 8.57421 161.019 8.40761 161.922Z" fill="#FFCC00"/>
<path d="M21.2782 161.922C21.1116 162.825 20.2453 163.421 19.3416 163.255C18.4393 163.089 17.8422 162.222 18.0088 161.319C18.1754 160.416 19.0418 159.819 19.9454 159.985C20.8477 160.152 21.4448 161.019 21.2782 161.922Z" fill="#FFCC00"/>
<path d="M34.1488 161.922C33.9822 162.825 33.1159 163.421 32.2123 163.255C31.3099 163.089 30.7128 162.222 30.8794 161.319C31.046 160.416 31.9124 159.819 32.816 159.985C33.7183 160.152 34.3154 161.019 34.1488 161.922Z" fill="#FFCC00"/>
<path d="M8.40761 172.763C8.24101 173.666 7.37469 174.263 6.47104 174.096C5.56873 173.93 4.97163 173.063 5.13824 172.16C5.30484 171.257 6.17116 170.66 7.0748 170.827C7.97711 170.993 8.57421 171.861 8.40761 172.763Z" fill="#FFCC00"/>
<path d="M21.2782 172.763C21.1116 173.666 20.2453 174.263 19.3416 174.096C18.4393 173.93 17.8422 173.063 18.0088 172.16C18.1754 171.257 19.0418 170.66 19.9454 170.827C20.8477 170.993 21.4448 171.861 21.2782 172.763Z" fill="#FFCC00"/>
<path d="M34.1488 172.763C33.9822 173.666 33.1159 174.263 32.2123 174.096C31.3099 173.93 30.7128 173.063 30.8794 172.16C31.046 171.257 31.9124 170.66 32.816 170.827C33.7183 170.993 34.3154 171.861 34.1488 172.763Z" fill="#FFCC00"/>
<path d="M8.40761 183.605C8.24101 184.507 7.37469 185.105 6.47104 184.938C5.56873 184.771 4.97163 183.905 5.13824 183.001C5.30484 182.099 6.17116 181.502 7.0748 181.669C7.97711 181.835 8.57421 182.703 8.40761 183.605Z" fill="#FFCC00"/>
<path d="M21.2782 183.605C21.1116 184.507 20.2453 185.105 19.3416 184.938C18.4393 184.771 17.8422 183.905 18.0088 183.001C18.1754 182.099 19.0418 181.502 19.9454 181.669C20.8477 181.835 21.4448 182.703 21.2782 183.605Z" fill="#FFCC00"/>
<path d="M34.1488 183.605C33.9822 184.507 33.1159 185.105 32.2123 184.938C31.3099 184.771 30.7128 183.905 30.8794 183.001C31.046 182.099 31.9124 181.502 32.816 181.669C33.7183 181.835 34.3154 182.703 34.1488 183.605Z" fill="#FFCC00"/>
<path d="M8.40761 194.447C8.24101 195.349 7.37469 195.946 6.47104 195.779C5.56873 195.613 4.97163 194.747 5.13824 193.843C5.30484 192.941 6.17116 192.344 7.0748 192.51C7.97711 192.677 8.57421 193.544 8.40761 194.447Z" fill="#FFCC00"/>
<path d="M21.2782 194.447C21.1116 195.349 20.2453 195.946 19.3416 195.779C18.4393 195.613 17.8422 194.747 18.0088 193.843C18.1754 192.941 19.0418 192.344 19.9454 192.51C20.8477 192.677 21.4448 193.544 21.2782 194.447Z" fill="#FFCC00"/>
<path d="M34.1488 194.447C33.9822 195.349 33.1159 195.946 32.2123 195.779C31.3099 195.613 30.7128 194.747 30.8794 193.843C31.046 192.941 31.9124 192.344 32.816 192.51C33.7183 192.677 34.3154 193.544 34.1488 194.447Z" fill="#FFCC00"/>
<path d="M686.442 66.9746L692.986 73.5187L686.442 80.0627" stroke="white" stroke-width="1.60267" stroke-miterlimit="10" stroke-linecap="round"/>
<path d="M694.603 66.9748L701.147 73.5189L694.603 80.063" stroke="white" stroke-width="1.60267" stroke-miterlimit="10" stroke-linecap="round"/>
<path d="M702.763 66.9748L709.307 73.5189L702.763 80.063" stroke="white" stroke-width="1.60267" stroke-miterlimit="10" stroke-linecap="round"/>
<path d="M710.922 66.9746L717.466 73.5187L710.922 80.0627" stroke="white" stroke-width="1.60267" stroke-miterlimit="10" stroke-linecap="round"/>
<path d="M719.083 66.9746L725.627 73.5187L719.083 80.0627" stroke="white" stroke-width="1.60267" stroke-miterlimit="10" stroke-linecap="round"/>
<path d="M128.155 276.443H104.87C104.218 276.443 103.81 275.738 104.137 275.172L115.779 255.007L127.422 234.84C127.748 234.275 128.562 234.275 128.889 234.84L140.532 255.007L152.174 275.172C152.501 275.738 152.093 276.443 151.441 276.443H128.155Z" fill="#FFCC00"/>
<path d="M115.476 282.993H92.1903C91.5386 282.993 91.1307 282.288 91.4573 281.723L103.099 261.557L114.743 241.39C115.068 240.827 115.882 240.827 116.209 241.39L127.852 261.557L139.494 281.723C139.821 282.288 139.413 282.993 138.761 282.993H115.476Z" stroke="white" stroke-width="1.144" stroke-miterlimit="10"/>
<path d="M699.695 -15.2627H722.981C723.632 -15.2627 724.04 -14.5576 723.714 -13.9925L712.071 6.17289L700.428 26.3396C700.103 26.9047 699.289 26.9047 698.962 26.3396L687.319 6.17289L675.677 -13.9925C675.35 -14.5576 675.758 -15.2627 676.41 -15.2627H699.695Z" fill="#FFCC00"/>
<path d="M712.375 -21.8127H735.66C736.312 -21.8127 736.72 -21.1076 736.393 -20.5425L724.751 -0.377135L713.108 19.7896C712.783 20.3533 711.968 20.3533 711.642 19.7896L699.998 -0.377135L688.356 -20.5425C688.03 -21.1076 688.438 -21.8127 689.089 -21.8127H712.375Z" stroke="white" stroke-width="1.144" stroke-miterlimit="10"/>
<path d="M543.984 192.633L439.9 85.7365C438.524 84.3237 438.555 82.0633 439.968 80.6879L546.864 -23.3964C548.277 -24.7718 550.537 -24.7425 551.913 -23.3297L655.997 83.568C657.372 84.9808 657.342 87.2413 655.929 88.6167L549.033 192.701C547.62 194.076 545.359 194.046 543.984 192.633Z" fill="#FFCC00"/>
<path d="M543.656 217.225L439.571 110.328C438.196 108.916 438.227 106.655 439.639 105.28L546.536 1.19541C547.949 -0.180049 550.209 -0.150723 551.585 1.26205L655.669 108.16C657.044 109.573 657.014 111.833 655.601 113.209L548.704 217.293C547.292 218.668 545.031 218.638 543.656 217.225Z" stroke="white" stroke-width="1.644" stroke-miterlimit="10"/>
<path d="M384.603 179.155L381.422 181.67L378.239 184.185V179.155V174.125L381.422 176.64L384.603 179.155Z" fill="white"/>
<path d="M403.286 179.155L400.105 181.67L396.922 184.185V179.155V174.125L400.105 176.64L403.286 179.155Z" fill="white"/>
<path d="M421.971 179.155L418.789 181.67L415.606 184.185V179.155V174.125L418.789 176.64L421.971 179.155Z" fill="white"/>
<path d="M440.655 179.155L437.474 181.67L434.291 184.185V179.155V174.125L437.474 176.64L440.655 179.155Z" fill="white"/>
<path d="M459.339 179.155L456.156 181.67L452.975 184.185V179.155V174.125L456.156 176.64L459.339 179.155Z" fill="white"/>
<path d="M344.468 91.7148L335.664 100.519L326.859 91.7148L318.135 100.439L326.939 109.244L318.135 118.048L326.861 126.773L335.664 117.968L344.468 126.773L353.193 118.048L344.388 109.244L353.193 100.439L344.468 91.7148Z" stroke="white" stroke-width="1.18267" stroke-miterlimit="10"/>
<path d="M667.53 177.119L658.143 186.506L648.756 177.119L639.454 186.421L648.841 195.808L639.454 205.195L648.756 214.496L658.143 205.111L667.53 214.496L676.831 205.195L667.446 195.808L676.831 186.421L667.53 177.119Z" stroke="white" stroke-width="1.26133" stroke-miterlimit="10"/>
<path d="M76.5006 125.31C80.2618 125.31 83.6858 124.385 86.7673 122.536C89.8474 120.688 92.2971 118.206 94.1137 115.093C95.929 111.979 96.8393 108.541 96.8393 104.778C96.8393 102.053 96.3181 99.4589 95.2826 96.9932C94.2443 94.5289 92.7835 92.3551 90.903 90.4731C92.6543 88.9817 94.163 87.0358 95.4278 84.6341C96.6927 82.2351 97.3258 79.6401 97.3258 76.8505C97.3258 73.4119 96.4808 70.2331 94.7961 67.3129C93.1074 64.3941 90.8043 62.043 87.8868 60.2584C84.968 58.4751 81.6586 57.5821 77.9614 57.5821H59.2768C59.0169 57.5821 58.8876 57.7127 58.8876 57.9726L58.6943 124.824C58.6943 125.149 58.8223 125.31 59.0835 125.31H76.5006ZM70.5656 69.1629H77.9614C80.0352 69.1629 81.8199 69.9253 83.3126 71.4487C84.804 72.9734 85.5504 74.774 85.5504 76.8505C85.5504 78.7324 84.8533 80.4664 83.4592 82.0551C82.0624 83.6465 80.2312 84.4395 77.9614 84.4395H70.5656V69.1629ZM70.5656 96.2149H76.5006C78.8371 96.2149 80.8469 97.0585 82.5343 98.7445C84.2203 100.432 85.0639 102.442 85.0639 104.778C85.0639 107.113 84.2203 109.142 82.5343 110.86C80.8469 112.579 78.8371 113.439 76.5006 113.439H70.4684L70.5656 96.2149Z" stroke="white" stroke-width="1.27333" stroke-miterlimit="10"/>
<path d="M135.664 125.31C135.988 125.31 136.15 125.149 136.15 124.824V113.828C136.15 113.504 135.988 113.341 135.664 113.341H115.618L115.716 58.0686C115.716 57.7447 115.553 57.5821 115.229 57.5821H104.427C104.101 57.5821 103.94 57.7447 103.94 58.0686L103.844 124.824C103.844 125.149 103.974 125.31 104.233 125.31H135.664Z" stroke="white" stroke-width="1.27333" stroke-miterlimit="10"/>
<path d="M139.556 125.31H150.357C150.616 125.31 150.778 125.149 150.844 124.824L151.914 117.72H165.147L166.219 124.824C166.283 125.149 166.446 125.31 166.705 125.31H177.507C177.83 125.31 177.958 125.149 177.896 124.824L166.316 57.9726C166.25 57.7127 166.087 57.5821 165.83 57.5821H151.719C151.459 57.5821 151.297 57.7127 151.233 57.9726L139.167 124.824C139.167 125.149 139.296 125.31 139.556 125.31ZM158.239 79.964L158.629 76.3627L159.212 79.964L163.202 107.308H153.86L158.239 79.964Z" stroke="white" stroke-width="1.27333" stroke-miterlimit="10"/>
<path d="M209.619 123.607C212.472 121.824 214.758 119.439 216.478 116.455C218.197 113.473 219.058 110.13 219.058 106.433V101.956C219.058 101.697 218.926 101.567 218.669 101.567H207.672C207.413 101.567 207.283 101.697 207.283 101.956V106.433C207.283 108.509 206.585 110.374 205.191 112.028C203.795 113.682 202.061 114.509 199.984 114.509C197.973 114.509 196.27 113.764 194.875 112.27C193.481 110.779 192.784 108.833 192.784 106.433V76.0713C192.784 73.9961 193.4 72.1635 194.633 70.5734C195.864 68.9847 197.65 68.1891 199.984 68.1891C202.061 68.1891 203.795 68.9674 205.191 70.5241C206.585 72.0822 207.283 73.9308 207.283 76.0713V80.5482C207.283 80.8081 207.413 80.9374 207.672 80.9374H218.571C218.829 80.9374 218.961 80.8081 218.961 80.5482V76.0713C218.961 72.4394 218.117 69.1473 216.43 66.1952C214.742 63.243 212.472 60.8906 209.619 59.1393C206.763 57.388 203.552 56.5123 199.984 56.5123C196.416 56.5123 193.188 57.4053 190.303 59.1886C187.416 60.9732 185.146 63.3403 183.491 66.2925C181.837 69.2446 181.009 72.5047 181.009 76.0713L180.912 106.433C180.912 110.13 181.755 113.473 183.441 116.455C185.129 119.439 187.416 121.824 190.303 123.607C193.188 125.39 196.416 126.283 199.984 126.283C203.552 126.283 206.763 125.39 209.619 123.607Z" stroke="white" stroke-width="1.27333" stroke-miterlimit="10"/>
<path d="M237.545 125.31C237.802 125.31 237.934 125.149 237.934 124.824V101.663L241.341 96.3122L254.477 124.921C254.541 125.181 254.734 125.31 255.061 125.31H266.932C267.385 125.31 267.548 125.181 267.419 124.921L248.541 84.8287L265.375 57.9726C265.505 57.7127 265.439 57.5821 265.181 57.5821H253.991C253.731 57.5821 253.504 57.7127 253.309 57.9726L238.031 81.1315V58.0686C238.031 57.7447 237.901 57.5821 237.642 57.5821H226.744C226.483 57.5821 226.355 57.7447 226.355 58.0686L226.16 124.824C226.16 125.149 226.289 125.31 226.549 125.31H237.545Z" stroke="white" stroke-width="1.27333" stroke-miterlimit="10"/>
</g>
<path d="M58.9352 193.361C58.6291 193.361 58.4761 193.208 58.4761 192.902L58.6597 129.812C58.6597 129.567 58.7822 129.445 59.0271 129.445H88.4138C88.7199 129.445 88.8729 129.567 88.8729 129.812V140.19C88.8729 140.434 88.7505 140.557 88.5056 140.557H69.6798V154.791H88.5056C88.7505 154.791 88.8729 154.944 88.8729 155.25L88.9648 165.627C88.9648 165.872 88.8117 165.995 88.5056 165.995H69.6798V192.902C69.6798 193.208 69.5267 193.361 69.2206 193.361H58.9352ZM98.3928 193.361C98.1479 193.361 98.0254 193.208 98.0254 192.902L98.2091 129.812C98.2091 129.567 98.3316 129.445 98.5764 129.445H117.127C120.433 129.445 123.463 130.271 126.218 131.924C129.035 133.516 131.269 135.69 132.922 138.445C134.575 141.138 135.402 144.2 135.402 147.628C135.402 149.893 135.065 151.944 134.391 153.781C133.718 155.556 132.922 157.087 132.004 158.373C131.085 159.597 130.259 160.515 129.524 161.128C132.83 164.801 134.483 169.117 134.483 174.076L134.575 192.902C134.575 193.208 134.422 193.361 134.116 193.361H123.739C123.494 193.361 123.371 193.269 123.371 193.086V174.076C123.371 171.872 122.576 169.974 120.984 168.382C119.453 166.729 117.555 165.903 115.29 165.903H109.229L109.137 192.902C109.137 193.208 109.015 193.361 108.77 193.361H98.3928ZM109.229 154.883H117.127C119.025 154.883 120.708 154.179 122.178 152.771C123.647 151.363 124.382 149.648 124.382 147.628C124.382 145.669 123.647 143.985 122.178 142.577C120.77 141.169 119.086 140.465 117.127 140.465H109.229V154.883ZM142.787 193.361C142.481 193.361 142.328 193.208 142.328 192.902L142.42 129.812C142.42 129.567 142.542 129.445 142.787 129.445H153.072C153.317 129.445 153.44 129.567 153.44 129.812L153.532 192.902C153.532 193.208 153.409 193.361 153.164 193.361H142.787ZM162.069 193.361C161.762 193.361 161.609 193.208 161.609 192.902L161.793 129.812C161.793 129.567 161.915 129.445 162.16 129.445L179.333 129.353C182.7 129.292 185.762 130.088 188.517 131.741C191.333 133.394 193.567 135.628 195.22 138.445C196.873 141.2 197.7 144.261 197.7 147.628V173.984C197.7 177.535 196.843 180.78 195.129 183.719C193.414 186.596 191.119 188.892 188.241 190.606C185.364 192.32 182.119 193.208 178.507 193.269L162.069 193.361ZM172.813 182.066H178.507C180.772 182.066 182.67 181.27 184.2 179.678C185.792 178.086 186.588 176.188 186.588 173.984V147.536C186.588 145.577 185.853 143.893 184.384 142.485C182.976 141.016 181.292 140.312 179.333 140.373L172.905 140.465L172.813 182.066ZM200.009 192.902L211.397 129.812C211.458 129.567 211.611 129.445 211.856 129.445H225.172C225.417 129.445 225.57 129.567 225.631 129.812L236.559 192.902C236.62 193.208 236.498 193.361 236.192 193.361H225.998C225.753 193.361 225.6 193.208 225.539 192.902L224.529 186.198H212.04L211.029 192.902C210.968 193.208 210.815 193.361 210.57 193.361H200.377C200.132 193.361 200.009 193.208 200.009 192.902ZM213.876 176.372H222.692L218.927 150.567L218.376 147.169L218.009 150.567L213.876 176.372ZM246.827 193.361C246.644 193.361 246.552 193.239 246.552 192.994L246.644 166.913L234.338 129.812C234.277 129.567 234.368 129.445 234.613 129.445H244.807C245.113 129.445 245.297 129.567 245.358 129.812L252.154 154.516L259.041 129.812C259.102 129.567 259.255 129.445 259.5 129.445H269.786C270.03 129.445 270.122 129.567 270.061 129.812L257.664 166.546L257.755 192.994C257.755 193.239 257.633 193.361 257.388 193.361H246.827Z" fill="#FFCC00"/>
</svg>
