<svg width="780" height="273" viewBox="0 0 780 273" fill="none" xmlns="http://www.w3.org/2000/svg">
<path d="M780 0H0.312988V271.697H780V0Z" fill="#FFCB09"/>
<mask id="mask0_16_925" style="mask-type:luminance" maskUnits="userSpaceOnUse" x="0" y="0" width="780" height="272">
<path d="M780 0H0.312988V271.697H780V0Z" fill="white"/>
</mask>
<g mask="url(#mask0_16_925)">
<path d="M619.314 175.789C619.147 176.691 618.28 177.288 617.378 177.121C616.476 176.955 615.879 176.089 616.045 175.185C616.212 174.282 617.078 173.687 617.981 173.853C618.883 174.02 619.48 174.886 619.314 175.789Z" fill="#FEFEFC"/>
<path d="M632.179 175.789C632.012 176.691 631.145 177.288 630.243 177.121C629.341 176.955 628.744 176.089 628.911 175.185C629.077 174.282 629.945 173.687 630.846 173.853C631.748 174.02 632.345 174.886 632.179 175.789Z" fill="#FEFEFC"/>
<path d="M645.046 175.789C644.879 176.691 644.012 177.288 643.11 177.121C642.208 176.955 641.611 176.089 641.778 175.185C641.944 174.282 642.812 173.687 643.714 173.853C644.616 174.02 645.212 174.886 645.046 175.789Z" fill="#FEFEFC"/>
<path d="M657.91 175.789C657.744 176.691 656.876 177.288 655.974 177.121C655.072 176.955 654.476 176.089 654.642 175.185C654.809 174.282 655.676 173.687 656.578 173.853C657.48 174.02 658.077 174.886 657.91 175.789Z" fill="#FEFEFC"/>
<path d="M670.775 175.789C670.609 176.691 669.743 177.288 668.84 177.121C667.938 176.955 667.341 176.089 667.507 175.185C667.674 174.282 668.54 173.687 669.443 173.853C670.345 174.02 670.942 174.886 670.775 175.789Z" fill="#FEFEFC"/>
<path d="M619.314 186.626C619.147 187.528 618.28 188.124 617.378 187.958C616.476 187.791 615.879 186.925 616.045 186.022C616.212 185.119 617.078 184.523 617.981 184.69C618.883 184.856 619.48 185.724 619.314 186.626Z" fill="#FEFEFC"/>
<path d="M632.179 186.626C632.012 187.528 631.145 188.124 630.243 187.958C629.341 187.791 628.744 186.925 628.911 186.022C629.077 185.119 629.945 184.523 630.846 184.69C631.748 184.856 632.345 185.724 632.179 186.626Z" fill="#FEFEFC"/>
<path d="M645.046 186.626C644.879 187.528 644.012 188.124 643.11 187.958C642.208 187.791 641.611 186.925 641.778 186.022C641.944 185.119 642.812 184.523 643.714 184.69C644.616 184.856 645.212 185.724 645.046 186.626Z" fill="#FEFEFC"/>
<path d="M657.91 186.626C657.744 187.528 656.876 188.124 655.974 187.958C655.072 187.791 654.476 186.925 654.642 186.022C654.809 185.119 655.676 184.523 656.578 184.69C657.48 184.856 658.077 185.724 657.91 186.626Z" fill="#FEFEFC"/>
<path d="M670.775 186.626C670.609 187.528 669.743 188.124 668.84 187.958C667.938 187.791 667.341 186.925 667.507 186.022C667.674 185.119 668.54 184.523 669.443 184.69C670.345 184.856 670.942 185.724 670.775 186.626Z" fill="#FEFEFC"/>
<path d="M619.314 197.464C619.147 198.366 618.28 198.963 617.378 198.796C616.476 198.63 615.879 197.764 616.045 196.86C616.212 195.958 617.078 195.362 617.981 195.528C618.883 195.695 619.48 196.561 619.314 197.464Z" fill="#FEFEFC"/>
<path d="M632.179 197.464C632.012 198.366 631.145 198.963 630.243 198.796C629.341 198.63 628.744 197.764 628.911 196.86C629.077 195.958 629.945 195.362 630.846 195.528C631.748 195.695 632.345 196.561 632.179 197.464Z" fill="#FEFEFC"/>
<path d="M645.046 197.464C644.879 198.366 644.012 198.963 643.11 198.796C642.208 198.63 641.611 197.764 641.778 196.86C641.944 195.958 642.812 195.362 643.714 195.528C644.616 195.695 645.212 196.561 645.046 197.464Z" fill="#FEFEFC"/>
<path d="M657.91 197.464C657.744 198.366 656.876 198.963 655.974 198.796C655.072 198.63 654.476 197.764 654.642 196.86C654.809 195.958 655.676 195.362 656.578 195.528C657.48 195.695 658.077 196.561 657.91 197.464Z" fill="#FEFEFC"/>
<path d="M670.775 197.464C670.609 198.366 669.743 198.963 668.84 198.796C667.938 198.63 667.341 197.764 667.507 196.86C667.674 195.958 668.54 195.362 669.443 195.528C670.345 195.695 670.942 196.561 670.775 197.464Z" fill="#FEFEFC"/>
<path d="M619.314 208.301C619.147 209.203 618.28 209.799 617.378 209.633C616.476 209.466 615.879 208.6 616.045 207.697C616.212 206.795 617.078 206.198 617.981 206.365C618.883 206.531 619.48 207.399 619.314 208.301Z" fill="#FEFEFC"/>
<path d="M632.179 208.301C632.012 209.203 631.145 209.799 630.243 209.633C629.341 209.466 628.744 208.6 628.911 207.697C629.077 206.795 629.945 206.198 630.846 206.365C631.748 206.531 632.345 207.399 632.179 208.301Z" fill="#FEFEFC"/>
<path d="M645.046 208.301C644.879 209.203 644.012 209.799 643.11 209.633C642.208 209.466 641.611 208.6 641.778 207.697C641.944 206.794 642.812 206.198 643.714 206.365C644.616 206.531 645.212 207.399 645.046 208.301Z" fill="#FEFEFC"/>
<path d="M657.91 208.301C657.744 209.203 656.876 209.799 655.974 209.633C655.072 209.466 654.476 208.6 654.642 207.697C654.809 206.794 655.676 206.198 656.578 206.365C657.48 206.531 658.077 207.399 657.91 208.301Z" fill="#FEFEFC"/>
<path d="M670.775 208.301C670.609 209.203 669.743 209.799 668.84 209.633C667.938 209.466 667.341 208.6 667.507 207.697C667.674 206.794 668.54 206.198 669.443 206.365C670.345 206.531 670.942 207.399 670.775 208.301Z" fill="#FEFEFC"/>
<path d="M619.314 219.137C619.147 220.041 618.28 220.636 617.378 220.47C616.476 220.303 615.879 219.436 616.045 218.534C616.212 217.632 617.078 217.035 617.981 217.201C618.883 217.368 619.48 218.235 619.314 219.137Z" fill="#FEFEFC"/>
<path d="M632.179 219.137C632.012 220.041 631.145 220.636 630.243 220.47C629.341 220.303 628.744 219.436 628.911 218.534C629.077 217.632 629.945 217.035 630.846 217.201C631.748 217.368 632.345 218.235 632.179 219.137Z" fill="#FEFEFC"/>
<path d="M645.046 219.137C644.879 220.041 644.012 220.636 643.11 220.47C642.208 220.303 641.611 219.436 641.778 218.534C641.944 217.632 642.812 217.035 643.714 217.201C644.616 217.368 645.212 218.235 645.046 219.137Z" fill="#FEFEFC"/>
<path d="M657.91 219.137C657.744 220.041 656.876 220.636 655.974 220.47C655.072 220.303 654.476 219.436 654.642 218.534C654.809 217.632 655.676 217.035 656.578 217.201C657.48 217.368 658.077 218.235 657.91 219.137Z" fill="#FEFEFC"/>
<path d="M670.775 219.137C670.609 220.041 669.743 220.636 668.84 220.47C667.938 220.303 667.341 219.436 667.507 218.534C667.674 217.632 668.54 217.035 669.443 217.201C670.345 217.368 670.942 218.235 670.775 219.137Z" fill="#FEFEFC"/>
<path d="M619.314 229.975C619.147 230.878 618.28 231.474 617.378 231.307C616.476 231.141 615.879 230.275 616.045 229.372C616.212 228.47 617.078 227.873 617.981 228.039C618.883 228.206 619.48 229.072 619.314 229.975Z" fill="#FEFEFC"/>
<path d="M632.179 229.975C632.012 230.878 631.145 231.474 630.243 231.307C629.341 231.141 628.744 230.275 628.911 229.372C629.077 228.47 629.945 227.873 630.846 228.039C631.748 228.206 632.345 229.072 632.179 229.975Z" fill="#FEFEFC"/>
<path d="M645.046 229.975C644.879 230.878 644.012 231.474 643.11 231.307C642.208 231.141 641.611 230.275 641.778 229.372C641.944 228.47 642.812 227.873 643.714 228.039C644.616 228.206 645.212 229.072 645.046 229.975Z" fill="#FEFEFC"/>
<path d="M657.91 229.975C657.744 230.878 656.876 231.474 655.974 231.307C655.072 231.141 654.476 230.275 654.642 229.372C654.809 228.47 655.676 227.873 656.578 228.039C657.48 228.206 658.077 229.072 657.91 229.975Z" fill="#FEFEFC"/>
<path d="M670.775 229.975C670.609 230.878 669.743 231.474 668.84 231.307C667.938 231.141 667.341 230.275 667.507 229.372C667.674 228.47 668.54 227.873 669.443 228.039C670.345 228.206 670.942 229.072 670.775 229.975Z" fill="#FEFEFC"/>
<path d="M619.314 240.812C619.147 241.714 618.28 242.311 617.378 242.144C616.476 241.978 615.879 241.112 616.045 240.209C616.212 239.307 617.078 238.71 617.981 238.876C618.883 239.043 619.48 239.91 619.314 240.812Z" fill="#FEFEFC"/>
<path d="M632.179 240.812C632.012 241.714 631.145 242.311 630.243 242.144C629.341 241.978 628.744 241.112 628.911 240.209C629.077 239.307 629.945 238.71 630.846 238.876C631.748 239.043 632.345 239.91 632.179 240.812Z" fill="#FEFEFC"/>
<path d="M645.046 240.812C644.879 241.714 644.012 242.311 643.11 242.144C642.208 241.978 641.611 241.112 641.778 240.209C641.944 239.307 642.812 238.71 643.714 238.876C644.616 239.043 645.212 239.91 645.046 240.812Z" fill="#FEFEFC"/>
<path d="M657.91 240.812C657.744 241.714 656.876 242.311 655.974 242.144C655.072 241.978 654.476 241.112 654.642 240.209C654.809 239.307 655.676 238.71 656.578 238.876C657.48 239.043 658.077 239.91 657.91 240.812Z" fill="#FEFEFC"/>
<path d="M670.775 240.812C670.609 241.714 669.743 242.311 668.84 242.144C667.938 241.978 667.341 241.112 667.507 240.209C667.674 239.307 668.54 238.71 669.443 238.876C670.345 239.043 670.942 239.91 670.775 240.812Z" fill="#FEFEFC"/>
<path d="M619.314 251.65C619.147 252.552 618.28 253.149 617.378 252.982C616.476 252.816 615.879 251.95 616.045 251.046C616.212 250.143 617.078 249.548 617.981 249.714C618.883 249.881 619.48 250.747 619.314 251.65Z" fill="#FEFEFC"/>
<path d="M632.179 251.65C632.012 252.552 631.145 253.149 630.243 252.982C629.341 252.816 628.744 251.95 628.911 251.046C629.077 250.143 629.945 249.548 630.846 249.714C631.748 249.881 632.345 250.747 632.179 251.65Z" fill="#FEFEFC"/>
<path d="M645.046 251.65C644.879 252.552 644.012 253.149 643.11 252.982C642.208 252.816 641.611 251.95 641.778 251.046C641.944 250.143 642.812 249.548 643.714 249.714C644.616 249.881 645.212 250.747 645.046 251.65Z" fill="#FEFEFC"/>
<path d="M657.91 251.65C657.744 252.552 656.876 253.149 655.974 252.982C655.072 252.816 654.476 251.95 654.642 251.046C654.809 250.143 655.676 249.548 656.578 249.714C657.48 249.881 658.077 250.747 657.91 251.65Z" fill="#FEFEFC"/>
<path d="M670.775 251.65C670.609 252.552 669.743 253.149 668.84 252.982C667.938 252.816 667.341 251.95 667.507 251.046C667.674 250.143 668.54 249.548 669.443 249.714C670.345 249.881 670.942 250.747 670.775 251.65Z" fill="#FEFEFC"/>
<path d="M619.314 262.487C619.147 263.39 618.28 263.985 617.378 263.819C616.476 263.652 615.879 262.786 616.045 261.883C616.212 260.981 617.078 260.384 617.981 260.551C618.883 260.717 619.48 261.585 619.314 262.487Z" fill="#FEFEFC"/>
<path d="M632.179 262.487C632.012 263.39 631.145 263.985 630.243 263.819C629.341 263.652 628.744 262.786 628.911 261.883C629.077 260.981 629.945 260.384 630.846 260.551C631.748 260.717 632.345 261.585 632.179 262.487Z" fill="#FEFEFC"/>
<path d="M645.046 262.487C644.879 263.39 644.012 263.985 643.11 263.819C642.208 263.652 641.611 262.786 641.778 261.883C641.944 260.981 642.812 260.384 643.714 260.551C644.616 260.717 645.212 261.585 645.046 262.487Z" fill="#FEFEFC"/>
<path d="M657.91 262.487C657.744 263.39 656.876 263.985 655.974 263.819C655.072 263.652 654.476 262.786 654.642 261.883C654.809 260.981 655.676 260.384 656.578 260.551C657.48 260.717 658.077 261.585 657.91 262.487Z" fill="#FEFEFC"/>
<path d="M670.775 262.487C670.609 263.39 669.743 263.985 668.84 263.819C667.938 263.652 667.341 262.786 667.507 261.883C667.674 260.981 668.54 260.384 669.443 260.551C670.345 260.717 670.942 261.585 670.775 262.487Z" fill="#FEFEFC"/>
<path d="M619.314 273.325C619.147 274.227 618.28 274.824 617.378 274.657C616.476 274.491 615.879 273.625 616.045 272.721C616.212 271.818 617.078 271.222 617.981 271.389C618.883 271.556 619.48 272.422 619.314 273.325Z" fill="#FEFEFC"/>
<path d="M632.179 273.325C632.012 274.227 631.145 274.824 630.243 274.657C629.341 274.491 628.744 273.625 628.911 272.721C629.077 271.818 629.945 271.222 630.846 271.389C631.748 271.556 632.345 272.422 632.179 273.325Z" fill="#FEFEFC"/>
<path d="M645.046 273.325C644.879 274.227 644.012 274.824 643.11 274.657C642.208 274.491 641.611 273.625 641.778 272.721C641.944 271.818 642.812 271.222 643.714 271.389C644.616 271.556 645.212 272.422 645.046 273.325Z" fill="#FEFEFC"/>
<path d="M657.91 273.325C657.744 274.227 656.876 274.824 655.974 274.657C655.072 274.491 654.476 273.625 654.642 272.721C654.809 271.818 655.676 271.222 656.578 271.389C657.48 271.556 658.077 272.422 657.91 273.325Z" fill="#FEFEFC"/>
<path d="M670.775 273.325C670.609 274.227 669.743 274.824 668.84 274.657C667.938 274.491 667.341 273.625 667.507 272.721C667.674 271.818 668.54 271.222 669.443 271.389C670.345 271.556 670.942 272.422 670.775 273.325Z" fill="#FEFEFC"/>
</g>
<mask id="mask1_16_925" style="mask-type:luminance" maskUnits="userSpaceOnUse" x="0" y="0" width="780" height="272">
<path d="M780 0H0.312988V271.697H780V0Z" fill="white"/>
</mask>
<g mask="url(#mask1_16_925)">
<path d="M40.4688 3.81576C40.3023 4.71771 39.4363 5.31457 38.533 5.14803C37.631 4.9815 37.0342 4.11552 37.2007 3.21224C37.3673 2.30896 38.2332 1.71344 39.1365 1.87997C40.0385 2.0465 40.6353 2.91248 40.4688 3.81576Z" fill="#FEFEFC"/>
<path d="M53.3345 3.81576C53.168 4.71771 52.302 5.31457 51.3987 5.14803C50.4968 4.9815 49.8999 4.11552 50.0664 3.21224C50.233 2.30896 51.1003 1.71344 52.0022 1.87997C52.9042 2.0465 53.501 2.91248 53.3345 3.81576Z" fill="#FEFEFC"/>
<path d="M66.2003 3.81576C66.0337 4.71771 65.1678 5.31457 64.2645 5.14803C63.3612 4.9815 62.7657 4.11552 62.9322 3.21224C63.0987 2.30896 63.9647 1.71344 64.868 1.87997C65.77 2.0465 66.3668 2.91248 66.2003 3.81576Z" fill="#FEFEFC"/>
<path d="M79.065 3.81576C78.8985 4.71771 78.0325 5.31457 77.1292 5.14803C76.226 4.9815 75.6304 4.11552 75.797 3.21224C75.9635 2.30896 76.8295 1.71344 77.7327 1.87997C78.636 2.0465 79.2315 2.91248 79.065 3.81576Z" fill="#FEFEFC"/>
<path d="M91.9302 3.81576C91.7637 4.71771 90.8977 5.31457 89.9944 5.14803C89.0925 4.9815 88.4956 4.11552 88.6622 3.21224C88.8287 2.30896 89.6947 1.71344 90.5979 1.87997C91.4999 2.0465 92.0968 2.91248 91.9302 3.81576Z" fill="#FEFEFC"/>
<path d="M40.4688 14.6526C40.3023 15.5546 39.4363 16.1514 38.533 15.9849C37.631 15.8184 37.0342 14.9524 37.2007 14.0491C37.3673 13.1472 38.2332 12.5503 39.1365 12.7168C40.0385 12.8834 40.6353 13.7507 40.4688 14.6526Z" fill="#FEFEFC"/>
<path d="M53.3345 14.6526C53.168 15.5546 52.302 16.1514 51.3987 15.9849C50.4968 15.8184 49.8999 14.9524 50.0664 14.0491C50.233 13.1472 51.1003 12.5503 52.0022 12.7168C52.9042 12.8834 53.501 13.7507 53.3345 14.6526Z" fill="#FEFEFC"/>
<path d="M66.2003 14.6526C66.0337 15.5546 65.1678 16.1514 64.2645 15.9849C63.3612 15.8184 62.7657 14.9524 62.9322 14.0491C63.0987 13.1472 63.9647 12.5503 64.868 12.7168C65.77 12.8834 66.3668 13.7507 66.2003 14.6526Z" fill="#FEFEFC"/>
<path d="M79.065 14.6526C78.8985 15.5546 78.0325 16.1514 77.1292 15.9849C76.226 15.8184 75.6304 14.9524 75.797 14.0491C75.9635 13.1472 76.8295 12.5503 77.7327 12.7168C78.636 12.8834 79.2315 13.7507 79.065 14.6526Z" fill="#FEFEFC"/>
<path d="M91.9302 14.6526C91.7637 15.5546 90.8977 16.1514 89.9944 15.9849C89.0925 15.8184 88.4956 14.9524 88.6622 14.0491C88.8287 13.1472 89.6947 12.5503 90.5979 12.7168C91.4999 12.8834 92.0968 13.7507 91.9302 14.6526Z" fill="#FEFEFC"/>
<path d="M40.4688 25.4905C40.3023 26.3938 39.4363 26.9893 38.533 26.8228C37.631 26.6563 37.0342 25.7903 37.2007 24.887C37.3673 23.9851 38.2332 23.3882 39.1365 23.5547C40.0385 23.7213 40.6353 24.5872 40.4688 25.4905Z" fill="#FEFEFC"/>
<path d="M53.3341 25.4905C53.1675 26.3938 52.3016 26.9893 51.3983 26.8228C50.495 26.6563 49.8995 25.7903 50.066 24.887C50.2325 23.9851 51.0998 23.3882 52.0018 23.5547C52.9037 23.7213 53.5006 24.5872 53.3341 25.4905Z" fill="#FEFEFC"/>
<path d="M66.2003 25.4905C66.0337 26.3938 65.1678 26.9893 64.2645 26.8228C63.3612 26.6563 62.7657 25.7903 62.9322 24.887C63.0987 23.9851 63.9647 23.3882 64.868 23.5547C65.77 23.7213 66.3668 24.5872 66.2003 25.4905Z" fill="#FEFEFC"/>
<path d="M79.065 25.4905C78.8985 26.3938 78.0325 26.9893 77.1292 26.8228C76.226 26.6563 75.6304 25.7903 75.797 24.887C75.9635 23.9851 76.8295 23.3882 77.7327 23.5547C78.636 23.7213 79.2315 24.5872 79.065 25.4905Z" fill="#FEFEFC"/>
<path d="M91.9302 25.4905C91.7637 26.3938 90.8977 26.9893 89.9944 26.8228C89.0925 26.6563 88.4956 25.7903 88.6622 24.887C88.8287 23.9851 89.6947 23.3882 90.5979 23.5547C91.4999 23.7213 92.0968 24.5872 91.9302 25.4905Z" fill="#FEFEFC"/>
<path d="M40.4688 36.3272C40.3023 37.2292 39.4363 37.826 38.533 37.6595C37.631 37.493 37.0342 36.6257 37.2007 35.7237C37.3673 34.8204 38.2332 34.2249 39.1365 34.3914C40.0385 34.558 40.6353 35.4253 40.4688 36.3272Z" fill="#FEFEFC"/>
<path d="M53.3345 36.3272C53.168 37.2292 52.302 37.826 51.3987 37.6595C50.4968 37.493 49.8999 36.6257 50.0664 35.7237C50.233 34.8204 51.1003 34.2249 52.0022 34.3914C52.9042 34.558 53.501 35.4253 53.3345 36.3272Z" fill="#FEFEFC"/>
<path d="M66.2003 36.3272C66.0337 37.2292 65.1678 37.826 64.2645 37.6595C63.3612 37.493 62.7657 36.6257 62.9322 35.7237C63.0987 34.8204 63.9647 34.2249 64.868 34.3914C65.77 34.558 66.3668 35.4253 66.2003 36.3272Z" fill="#FEFEFC"/>
<path d="M79.065 36.3272C78.8985 37.2292 78.0325 37.826 77.1292 37.6595C76.226 37.493 75.6304 36.6257 75.797 35.7237C75.9635 34.8204 76.8295 34.2249 77.7327 34.3914C78.636 34.558 79.2315 35.4253 79.065 36.3272Z" fill="#FEFEFC"/>
<path d="M91.9302 36.3272C91.7637 37.2292 90.8977 37.826 89.9944 37.6595C89.0925 37.493 88.4956 36.6257 88.6622 35.7237C88.8287 34.8204 89.6947 34.2249 90.5979 34.3914C91.4999 34.558 92.0968 35.4253 91.9302 36.3272Z" fill="#FEFEFC"/>
<path d="M40.4688 47.1653C40.3023 48.0673 39.4363 48.6641 38.533 48.4976C37.631 48.3311 37.0342 47.4651 37.2007 46.5618C37.3673 45.6599 38.2332 45.063 39.1365 45.2295C40.0385 45.3961 40.6353 46.262 40.4688 47.1653Z" fill="#FEFEFC"/>
<path d="M53.3345 47.1653C53.168 48.0673 52.302 48.6641 51.3987 48.4976C50.4968 48.3311 49.8999 47.4651 50.0664 46.5618C50.233 45.6599 51.1003 45.063 52.0022 45.2295C52.9042 45.3961 53.501 46.262 53.3345 47.1653Z" fill="#FEFEFC"/>
<path d="M66.2003 47.1653C66.0337 48.0673 65.1678 48.6641 64.2645 48.4976C63.3612 48.3311 62.7657 47.4651 62.9322 46.5618C63.0987 45.6599 63.9647 45.063 64.868 45.2295C65.77 45.3961 66.3668 46.262 66.2003 47.1653Z" fill="#FEFEFC"/>
<path d="M79.065 47.1653C78.8985 48.0673 78.0325 48.6641 77.1292 48.4976C76.226 48.3311 75.6304 47.4651 75.797 46.5618C75.9635 45.6599 76.8295 45.063 77.7327 45.2295C78.636 45.3961 79.2315 46.262 79.065 47.1653Z" fill="#FEFEFC"/>
<path d="M91.9302 47.1653C91.7637 48.0673 90.8977 48.6641 89.9944 48.4976C89.0925 48.3311 88.4956 47.4651 88.6622 46.5618C88.8287 45.6599 89.6947 45.063 90.5979 45.2295C91.4999 45.3961 92.0968 46.262 91.9302 47.1653Z" fill="#FEFEFC"/>
<path d="M40.4688 58.0022C40.3023 58.9042 39.4363 59.501 38.533 59.3345C37.631 59.168 37.0342 58.302 37.2007 57.3987C37.3673 56.4968 38.2332 55.8999 39.1365 56.0664C40.0385 56.233 40.6353 57.1003 40.4688 58.0022Z" fill="#FEFEFC"/>
<path d="M53.3345 58.0022C53.168 58.9042 52.302 59.501 51.3987 59.3345C50.4968 59.168 49.8999 58.302 50.0664 57.3987C50.233 56.4968 51.1003 55.8999 52.0022 56.0664C52.9042 56.233 53.501 57.1003 53.3345 58.0022Z" fill="#FEFEFC"/>
<path d="M66.2003 58.0022C66.0337 58.9042 65.1678 59.501 64.2645 59.3345C63.3612 59.168 62.7657 58.302 62.9322 57.3987C63.0987 56.4968 63.9647 55.8999 64.868 56.0664C65.77 56.233 66.3668 57.1003 66.2003 58.0022Z" fill="#FEFEFC"/>
<path d="M79.065 58.0022C78.8985 58.9042 78.0325 59.501 77.1292 59.3345C76.226 59.168 75.6304 58.302 75.797 57.3987C75.9635 56.4968 76.8295 55.8999 77.7327 56.0664C78.636 56.233 79.2315 57.1003 79.065 58.0022Z" fill="#FEFEFC"/>
<path d="M91.9302 58.0022C91.7637 58.9042 90.8977 59.501 89.9944 59.3345C89.0925 59.168 88.4956 58.302 88.6622 57.3987C88.8287 56.4968 89.6947 55.8999 90.5979 56.0664C91.4999 56.233 92.0968 57.1003 91.9302 58.0022Z" fill="#FEFEFC"/>
<path d="M40.4688 68.8399C40.3023 69.7418 39.4363 70.3387 38.533 70.1722C37.631 70.0056 37.0342 69.1396 37.2007 68.2364C37.3673 67.3344 38.2332 66.7376 39.1365 66.9041C40.0385 67.0706 40.6353 67.9366 40.4688 68.8399Z" fill="#FEFEFC"/>
<path d="M53.3341 68.8399C53.1675 69.7418 52.3016 70.3387 51.3983 70.1722C50.495 70.0056 49.8995 69.1396 50.066 68.2364C50.2325 67.3344 51.0998 66.7376 52.0018 66.9041C52.9037 67.0706 53.5006 67.9366 53.3341 68.8399Z" fill="#FEFEFC"/>
<path d="M66.2003 68.8399C66.0337 69.7419 65.1678 70.3387 64.2645 70.1722C63.3612 70.0057 62.7657 69.1397 62.9322 68.2364C63.0987 67.3331 63.9647 66.7376 64.868 66.9041C65.77 67.0707 66.3668 67.9367 66.2003 68.8399Z" fill="#FEFEFC"/>
<path d="M79.065 68.8399C78.8985 69.7419 78.0325 70.3387 77.1292 70.1722C76.226 70.0057 75.6304 69.1397 75.797 68.2364C75.9635 67.3331 76.8295 66.7376 77.7327 66.9041C78.636 67.0707 79.2315 67.9367 79.065 68.8399Z" fill="#FEFEFC"/>
<path d="M91.9302 68.8399C91.7637 69.7419 90.8977 70.3387 89.9944 70.1722C89.0925 70.0057 88.4956 69.1397 88.6622 68.2364C88.8287 67.3331 89.6947 66.7376 90.5979 66.9041C91.4999 67.0707 92.0968 67.9367 91.9302 68.8399Z" fill="#FEFEFC"/>
<path d="M40.4688 79.6765C40.3023 80.5798 39.4363 81.1754 38.533 81.0088C37.631 80.8423 37.0342 79.9763 37.2007 79.073C37.3673 78.1711 38.2332 77.5742 39.1365 77.7408C40.0385 77.9073 40.6353 78.7746 40.4688 79.6765Z" fill="#FEFEFC"/>
<path d="M53.3345 79.6765C53.168 80.5798 52.302 81.1754 51.3987 81.0088C50.4968 80.8423 49.8999 79.9763 50.0664 79.073C50.233 78.1711 51.1003 77.5742 52.0022 77.7408C52.9042 77.9073 53.501 78.7746 53.3345 79.6765Z" fill="#FEFEFC"/>
<path d="M66.2003 79.6765C66.0337 80.5798 65.1678 81.1754 64.2645 81.0088C63.3612 80.8423 62.7657 79.9763 62.9322 79.073C63.0987 78.1711 63.9647 77.5742 64.868 77.7408C65.77 77.9073 66.3668 78.7746 66.2003 79.6765Z" fill="#FEFEFC"/>
<path d="M79.065 79.6765C78.8985 80.5798 78.0325 81.1754 77.1292 81.0088C76.226 80.8423 75.6304 79.9763 75.797 79.073C75.9635 78.1711 76.8295 77.5742 77.7327 77.7408C78.636 77.9073 79.2315 78.7746 79.065 79.6765Z" fill="#FEFEFC"/>
<path d="M91.9302 79.6765C91.7637 80.5798 90.8977 81.1754 89.9944 81.0088C89.0925 80.8423 88.4956 79.9763 88.6622 79.073C88.8287 78.1711 89.6947 77.5742 90.5979 77.7408C91.4999 77.9073 92.0968 78.7746 91.9302 79.6765Z" fill="#FEFEFC"/>
<path d="M40.4688 90.5145C40.3023 91.4164 39.4363 92.0133 38.533 91.8468C37.631 91.6802 37.0342 90.8143 37.2007 89.911C37.3673 89.0077 38.2332 88.4122 39.1365 88.5787C40.0385 88.7452 40.6353 89.6112 40.4688 90.5145Z" fill="#FEFEFC"/>
<path d="M53.3341 90.5145C53.1675 91.4164 52.3016 92.0133 51.3983 91.8468C50.495 91.6802 49.8995 90.8143 50.066 89.911C50.2325 89.0077 51.0998 88.4122 52.0018 88.5787C52.9037 88.7452 53.5006 89.6112 53.3341 90.5145Z" fill="#FEFEFC"/>
<path d="M66.2003 90.5145C66.0337 91.4164 65.1678 92.0133 64.2645 91.8468C63.3612 91.6802 62.7657 90.8143 62.9322 89.911C63.0987 89.0077 63.9647 88.4122 64.868 88.5787C65.77 88.7452 66.3668 89.6112 66.2003 90.5145Z" fill="#FEFEFC"/>
<path d="M79.065 90.5145C78.8985 91.4164 78.0325 92.0133 77.1292 91.8468C76.226 91.6802 75.6304 90.8143 75.797 89.911C75.9635 89.0077 76.8295 88.4122 77.7327 88.5787C78.636 88.7452 79.2315 89.6112 79.065 90.5145Z" fill="#FEFEFC"/>
<path d="M91.9302 90.5145C91.7637 91.4164 90.8977 92.0133 89.9944 91.8468C89.0925 91.6802 88.4956 90.8143 88.6622 89.911C88.8287 89.0077 89.6947 88.4122 90.5979 88.5787C91.4999 88.7452 92.0968 89.6112 91.9302 90.5145Z" fill="#FEFEFC"/>
<path d="M40.4688 101.351C40.3023 102.253 39.4363 102.85 38.533 102.684C37.631 102.517 37.0342 101.651 37.2007 100.748C37.3673 99.8446 38.2332 99.249 39.1365 99.4142C40.0385 99.5821 40.6353 100.449 40.4688 101.351Z" fill="#FEFEFC"/>
<path d="M53.3341 101.351C53.1675 102.253 52.3016 102.85 51.3983 102.684C50.495 102.517 49.8995 101.651 50.066 100.748C50.2325 99.8446 51.0998 99.249 52.0018 99.4142C52.9037 99.5821 53.5006 100.449 53.3341 101.351Z" fill="#FEFEFC"/>
<path d="M66.2003 101.351C66.0337 102.253 65.1678 102.85 64.2645 102.684C63.3612 102.517 62.7657 101.651 62.9322 100.748C63.0987 99.8446 63.9647 99.249 64.868 99.4142C65.77 99.5821 66.3668 100.449 66.2003 101.351Z" fill="#FEFEFC"/>
<path d="M79.065 101.351C78.8985 102.253 78.0325 102.85 77.1292 102.684C76.226 102.517 75.6304 101.651 75.797 100.748C75.9635 99.8446 76.8295 99.249 77.7327 99.4142C78.636 99.5821 79.2315 100.449 79.065 101.351Z" fill="#FEFEFC"/>
<path d="M91.9302 101.351C91.7637 102.253 90.8977 102.85 89.9944 102.684C89.0925 102.517 88.4956 101.651 88.6622 100.748C88.8287 99.8446 89.6947 99.249 90.5979 99.4142C91.4999 99.5821 92.0968 100.449 91.9302 101.351Z" fill="#FEFEFC"/>
</g>
<mask id="mask2_16_925" style="mask-type:luminance" maskUnits="userSpaceOnUse" x="0" y="0" width="780" height="272">
<path d="M780 0H0.312988V271.697H780V0Z" fill="white"/>
</mask>
<g mask="url(#mask2_16_925)">
<path d="M95.0175 82.9553C88.6985 87.3984 83.0283 86.4045 78.472 85.6065C74.2207 84.8618 70.8634 84.2729 66.7173 87.1879C62.5726 90.1029 61.9904 93.4602 61.2537 97.7129C60.4637 102.271 59.4804 107.943 53.1615 112.386C46.8425 116.83 41.1723 115.836 36.6173 115.036C32.3674 114.292 29.0087 113.703 24.8653 116.616C20.7206 119.53 20.1398 122.889 19.4017 127.141C18.6116 131.699 17.6298 137.371 11.3108 141.814C4.99182 146.257 -0.678333 145.263 -5.23337 144.464C-9.48332 143.719 -12.842 143.13 -16.9853 146.044L-20.6704 140.803C-14.3528 136.359 -8.68262 137.353 -4.12625 138.153C0.123697 138.897 3.48235 139.486 7.62572 136.573C11.7704 133.659 12.3513 130.3 13.0894 126.048C13.8794 121.49 14.8626 115.818 21.1803 111.375C27.4979 106.932 33.1681 107.926 37.7244 108.725C41.9744 109.47 45.333 110.059 49.4764 107.145C53.6211 104.23 54.2033 100.872 54.9414 96.6191C55.7314 92.0614 56.7146 86.3899 63.0336 81.9467C69.3526 77.5036 75.0227 78.4975 79.5791 79.2955C83.8304 80.0403 87.1877 80.6291 91.3324 77.7141L95.0175 82.9553Z" fill="black"/>
</g>
<mask id="mask3_16_925" style="mask-type:luminance" maskUnits="userSpaceOnUse" x="0" y="0" width="780" height="272">
<path d="M780 0H0.312988V271.697H780V0Z" fill="white"/>
</mask>
<g mask="url(#mask3_16_925)">
<path d="M692.216 181.682C698.42 177.079 704.113 177.927 708.689 178.61C712.958 179.246 716.33 179.749 720.399 176.73C724.469 173.711 724.964 170.339 725.593 166.069C726.267 161.493 727.105 155.797 733.31 151.194C739.513 146.592 745.207 147.441 749.782 148.123C754.051 148.76 757.421 149.262 761.49 146.245C765.559 143.226 766.054 139.854 766.683 135.584C767.356 131.008 768.194 125.312 774.398 120.71C780.603 116.109 786.296 116.957 790.871 117.639C795.138 118.276 798.51 118.779 802.579 115.761L806.397 120.908C800.194 125.509 794.501 124.661 789.926 123.978C785.657 123.342 782.287 122.839 778.218 125.858C774.149 128.877 773.654 132.249 773.025 136.519C772.352 141.095 771.513 146.791 765.31 151.393C759.107 155.994 753.414 155.146 748.839 154.464C744.571 153.827 741.199 153.324 737.131 156.343C733.061 159.362 732.565 162.736 731.936 167.006C731.262 171.582 730.424 177.277 724.221 181.879C718.017 186.482 712.324 185.633 707.747 184.951C703.479 184.314 700.107 183.812 696.038 186.831L692.216 181.682Z" fill="black"/>
</g>
<mask id="mask4_16_925" style="mask-type:luminance" maskUnits="userSpaceOnUse" x="0" y="0" width="780" height="272">
<path d="M780 0H0.312988V271.697H780V0Z" fill="white"/>
</mask>
<g mask="url(#mask4_16_925)">
<path d="M591.498 148.948L540.961 98.4112L581.672 57.6996L540.961 16.988L591.498 -33.5491L632.21 7.1625L672.922 -33.5491L723.458 16.988L682.745 57.7009L723.458 98.4125L672.921 148.95L632.208 108.237L591.498 148.948ZM632.208 87.8542L672.921 128.567L703.076 98.4125L662.363 57.7009L703.075 16.9893L672.921 -13.1653L632.208 27.5463L591.497 -13.1653L561.342 16.9893L602.055 57.7009L561.342 98.4125L591.497 128.567L632.208 87.8542Z" fill="url(#paint0_linear_16_925)"/>
</g>
<mask id="mask5_16_925" style="mask-type:luminance" maskUnits="userSpaceOnUse" x="0" y="0" width="780" height="272">
<path d="M780 0H0.312988V271.697H780V0Z" fill="white"/>
</mask>
<g mask="url(#mask5_16_925)">
<g opacity="0.5">
<path d="M98.2486 320.922L47.7129 270.385L88.4258 229.673L47.7129 188.96L98.25 138.423L138.962 179.135L179.674 138.423L230.21 188.96L189.499 229.672L230.212 270.385L179.674 320.922L138.962 280.209L98.2486 320.922ZM138.962 259.828L179.674 300.541L209.829 270.386L169.116 229.673L209.828 188.962L179.674 158.807L138.962 199.518L98.25 158.807L68.0953 188.962L108.808 229.674L68.0953 270.386L98.2486 300.541L138.962 259.828Z" fill="url(#paint1_linear_16_925)"/>
</g>
</g>
<mask id="mask6_16_925" style="mask-type:luminance" maskUnits="userSpaceOnUse" x="0" y="0" width="780" height="272">
<path d="M780 0H0.312988V271.697H780V0Z" fill="white"/>
</mask>
<g mask="url(#mask6_16_925)">
<g opacity="0.5">
<path d="M576.173 257.224L626.709 307.761L585.996 348.473L626.709 389.186L576.172 439.723L535.46 399.011L494.747 439.723L444.211 389.186L484.923 348.474L444.21 307.761L494.747 257.224L535.46 297.937L576.173 257.224ZM535.46 318.318L494.747 277.605L464.592 307.76L505.305 348.473L464.594 389.185L494.747 419.339L535.46 378.628L576.172 419.339L606.326 389.185L565.613 348.472L606.326 307.76L576.173 277.605L535.46 318.318Z" fill="url(#paint2_linear_16_925)"/>
</g>
</g>
<mask id="mask7_16_925" style="mask-type:luminance" maskUnits="userSpaceOnUse" x="0" y="0" width="780" height="272">
<path d="M780 0H0.312988V271.697H780V0Z" fill="white"/>
</mask>
<g mask="url(#mask7_16_925)">
<path d="M677.321 83.8572L702.808 64.1929" stroke="black" stroke-width="1.8036" stroke-miterlimit="10" stroke-linecap="round"/>
<path d="M703.6 78.3203L745.397 45.4238" stroke="black" stroke-width="1.8036" stroke-miterlimit="10" stroke-linecap="round"/>
</g>
<mask id="mask8_16_925" style="mask-type:luminance" maskUnits="userSpaceOnUse" x="0" y="0" width="780" height="272">
<path d="M780 0H0.312988V271.697H780V0Z" fill="white"/>
</mask>
<g mask="url(#mask8_16_925)">
<path d="M33.5347 229.733L57.6661 208.427" stroke="black" stroke-width="1.8036" stroke-miterlimit="10" stroke-linecap="round"/>
<path d="M59.3916 222.471L98.9215 186.883" stroke="black" stroke-width="1.8036" stroke-miterlimit="10" stroke-linecap="round"/>
</g>
<mask id="mask9_16_925" style="mask-type:luminance" maskUnits="userSpaceOnUse" x="0" y="0" width="780" height="272">
<path d="M780 0H0.312988V271.697H780V0Z" fill="white"/>
</mask>
<g mask="url(#mask9_16_925)">
<path d="M711.36 112.957C707.752 112.957 707.747 118.564 711.36 118.564C714.968 118.564 714.973 112.957 711.36 112.957Z" fill="black"/>
</g>
<mask id="mask10_16_925" style="mask-type:luminance" maskUnits="userSpaceOnUse" x="0" y="0" width="780" height="272">
<path d="M780 0H0.312988V271.697H780V0Z" fill="white"/>
</mask>
<g mask="url(#mask10_16_925)">
<path d="M227.026 70.0134C223.418 70.0134 223.413 75.6196 227.026 75.6196C230.634 75.6196 230.641 70.0134 227.026 70.0134Z" fill="black"/>
</g>
<mask id="mask11_16_925" style="mask-type:luminance" maskUnits="userSpaceOnUse" x="0" y="0" width="780" height="272">
<path d="M780 0H0.312988V271.697H780V0Z" fill="white"/>
</mask>
<g mask="url(#mask11_16_925)">
<path d="M258.619 228.532C255.012 228.532 255.006 234.139 258.619 234.139C262.227 234.139 262.234 228.532 258.619 228.532Z" fill="black"/>
</g>
<mask id="mask12_16_925" style="mask-type:luminance" maskUnits="userSpaceOnUse" x="0" y="0" width="780" height="272">
<path d="M780 0H0.312988V271.697H780V0Z" fill="white"/>
</mask>
<g mask="url(#mask12_16_925)">
<path d="M523.1 44.5579C519.492 44.5579 519.485 50.1641 523.1 50.1641C526.706 50.1654 526.713 44.5579 523.1 44.5579Z" fill="black"/>
</g>
<mask id="mask13_16_925" style="mask-type:luminance" maskUnits="userSpaceOnUse" x="0" y="0" width="780" height="272">
<path d="M780 0H0.312988V271.697H780V0Z" fill="white"/>
</mask>
<g mask="url(#mask13_16_925)">
<path d="M511.297 197.375C511.184 197.027 510.991 196.726 510.718 196.473C510.463 196.2 510.164 196.006 509.816 195.893C509.481 195.717 509.122 195.637 508.735 195.652C508.488 195.685 508.238 195.719 507.991 195.752C507.515 195.885 507.103 196.125 506.754 196.473C506.251 197.022 505.932 197.696 505.932 198.455V199.195C505.918 199.581 505.999 199.941 506.173 200.275C506.287 200.623 506.48 200.924 506.753 201.177C507.006 201.45 507.307 201.643 507.655 201.757C507.989 201.932 508.349 202.012 508.735 201.998C508.985 201.964 509.232 201.931 509.481 201.898C509.956 201.765 510.369 201.525 510.718 201.177C511.221 200.628 511.539 199.954 511.539 199.195V198.455C511.555 198.067 511.473 197.708 511.297 197.375Z" fill="black"/>
</g>
<mask id="mask14_16_925" style="mask-type:luminance" maskUnits="userSpaceOnUse" x="0" y="0" width="780" height="272">
<path d="M780 0H0.312988V271.697H780V0Z" fill="white"/>
</mask>
<g mask="url(#mask14_16_925)">
<path d="M545.984 219.08L535.46 228.562V219.08V209.597L545.984 219.08Z" fill="#0A1328"/>
<path d="M560.06 219.08L549.536 228.562V219.08V209.597L560.06 219.08Z" fill="#0A1328"/>
<path d="M574.134 219.08L563.61 228.562V219.08V209.597L574.134 219.08Z" fill="#0A1328"/>
</g>
<mask id="mask15_16_925" style="mask-type:luminance" maskUnits="userSpaceOnUse" x="0" y="0" width="780" height="272">
<path d="M780 0H0.312988V271.697H780V0Z" fill="white"/>
</mask>
<g mask="url(#mask15_16_925)">
<path d="M206.691 210.856L196.167 220.338V210.856V201.373L206.691 210.856Z" fill="#0A1328"/>
<path d="M220.766 210.856L210.243 220.338V210.856V201.373L220.766 210.856Z" fill="#0A1328"/>
<path d="M234.842 210.856L224.318 220.338V210.856V201.373L234.842 210.856Z" fill="#0A1328"/>
</g>
<mask id="mask16_16_925" style="mask-type:luminance" maskUnits="userSpaceOnUse" x="0" y="0" width="780" height="272">
<path d="M780 0H0.312988V271.697H780V0Z" fill="white"/>
</mask>
<g mask="url(#mask16_16_925)">
<path d="M146.694 56.0409L136.17 65.524V56.0409V46.5591L146.694 56.0409Z" fill="#0A1328"/>
<path d="M160.769 56.0409L150.246 65.524V56.0409V46.5591L160.769 56.0409Z" fill="#0A1328"/>
<path d="M174.844 56.0409L164.321 65.524V56.0409V46.5591L174.844 56.0409Z" fill="#0A1328"/>
</g>
<mask id="mask17_16_925" style="mask-type:luminance" maskUnits="userSpaceOnUse" x="0" y="0" width="780" height="272">
<path d="M780 0H0.312988V271.697H780V0Z" fill="white"/>
</mask>
<g mask="url(#mask17_16_925)">
<path d="M142.508 276.106H119.232C118.58 276.106 118.173 275.401 118.499 274.836L130.138 254.677L141.777 234.519C142.103 233.955 142.917 233.955 143.242 234.519L154.881 254.677L166.52 274.836C166.845 275.399 166.438 276.106 165.787 276.106H142.508Z" fill="#F61334"/>
<path d="M129.834 282.652H106.557C105.905 282.652 105.499 281.947 105.824 281.382L117.463 261.224L129.101 241.065C129.426 240.502 130.24 240.502 130.567 241.065L142.206 261.224L153.844 281.382C154.171 281.946 153.763 282.652 153.112 282.652H129.834Z" stroke="black" stroke-width="0.8578" stroke-miterlimit="10"/>
</g>
<mask id="mask18_16_925" style="mask-type:luminance" maskUnits="userSpaceOnUse" x="0" y="0" width="780" height="272">
<path d="M780 0H0.312988V271.697H780V0Z" fill="white"/>
</mask>
<g mask="url(#mask18_16_925)">
<path d="M624.21 -4.92798H647.486C648.138 -4.92798 648.544 -4.22321 648.219 -3.65832L636.58 16.5003L624.941 36.6589C624.615 37.2224 623.801 37.2224 623.476 36.6589L611.837 16.5003L600.198 -3.65832C599.873 -4.22188 600.28 -4.92798 600.931 -4.92798H624.21Z" fill="#F61334"/>
<path d="M636.884 -11.4763H660.16C660.812 -11.4763 661.218 -10.7715 660.893 -10.2067L649.255 9.95195L637.617 30.1106C637.292 30.6741 636.478 30.6741 636.151 30.1106L624.512 9.95195L612.874 -10.2067C612.547 -10.7702 612.955 -11.4763 613.607 -11.4763H636.884Z" stroke="black" stroke-width="0.8578" stroke-miterlimit="10"/>
</g>
<mask id="mask19_16_925" style="mask-type:luminance" maskUnits="userSpaceOnUse" x="0" y="0" width="780" height="273">
<path d="M779.687 0.452637H0V272.15H779.687V0.452637Z" fill="white"/>
</mask>
<g mask="url(#mask19_16_925)">
<path d="M461.72 197.063H313.24V236.239H461.72V197.063Z" stroke="#F61334" stroke-miterlimit="10"/>
<path d="M454.578 189.921H306.097V229.096H454.578V189.921Z" fill="#1F1F2B"/>
<path d="M328.319 213.166L330.461 211.486C331.234 212.577 332.4 213.291 333.631 213.291C334.842 213.291 335.682 212.668 335.682 211.643C335.682 210.89 335.029 210.503 334.02 209.885L332.674 209.055C331.387 208.249 330.546 207.225 330.546 205.5C330.546 203.057 332.757 201.085 335.554 201.085C337.229 201.085 338.78 201.922 339.864 203.241L337.981 205.001C337.256 204.238 336.454 203.668 335.423 203.668C334.249 203.668 333.613 204.388 333.613 205.199C333.613 205.93 334.278 206.285 335.391 206.978L336.8 207.836C338.172 208.658 338.783 209.572 338.783 211.216C338.783 213.802 336.667 215.84 333.399 215.84C331.546 215.837 329.711 215.072 328.319 213.166Z" fill="#FFF9FD"/>
<path d="M343.227 201.345H346.221L345.09 206.872H349.948L351.042 201.345H354.036L351.189 215.575H348.195L349.429 209.49H344.57L343.375 215.575H340.381L343.227 201.345Z" fill="#FFF9FD"/>
<path d="M355.237 209.819C355.237 204.79 358.619 201.084 362.474 201.084C365.726 201.084 367.823 203.321 367.823 207.102C367.823 212.131 364.442 215.837 360.586 215.837C357.334 215.837 355.237 213.6 355.237 209.819ZM364.758 207.297C364.758 205.038 363.901 203.666 362.324 203.666C360.3 203.666 358.304 206.326 358.304 209.624C358.304 211.883 359.16 213.255 360.738 213.255C362.762 213.255 364.758 210.595 364.758 207.297Z" fill="#FFF9FD"/>
<path d="M371.866 201.345H376.361C379.144 201.345 381.237 202.385 381.237 205.123C381.237 209.095 378.257 210.631 374.671 210.631H372.992L372.014 215.575H369.021L371.866 201.345ZM374.989 208.265C377.103 208.265 378.28 207.335 378.28 205.563C378.28 204.282 377.411 203.711 375.896 203.711H374.368L373.482 208.263H374.989V208.265Z" fill="#FFF9FD"/>
<path d="M388.913 201.345H391.815L394.141 208.753L394.901 211.888H394.987C395.134 210.391 395.244 208.382 395.578 206.74L396.663 201.346H399.513L396.667 215.576H393.774L391.455 208.175L390.724 205.018H390.636C390.491 206.595 390.335 208.488 390.002 210.122L388.916 215.576H386.066L388.913 201.345Z" fill="#FFF9FD"/>
<path d="M400.728 209.819C400.728 204.79 404.109 201.084 407.964 201.084C411.217 201.084 413.314 203.321 413.314 207.102C413.314 212.131 409.932 215.837 406.077 215.837C402.825 215.837 400.728 213.6 400.728 209.819ZM410.247 207.297C410.247 205.038 409.39 203.666 407.813 203.666C405.789 203.666 403.793 206.326 403.793 209.624C403.793 211.883 404.648 213.255 406.227 213.255C408.251 213.255 410.247 210.595 410.247 207.297Z" fill="#FFF9FD"/>
<path d="M416.066 201.345H419.132L418.664 208.171C418.53 209.671 418.412 211.225 418.224 212.744H418.311C418.909 211.226 419.598 209.654 420.171 208.171L423.107 201.345H425.631L425.684 208.171C425.664 209.635 425.6 211.208 425.536 212.744H425.623C426.134 211.208 426.716 209.654 427.2 208.171L429.609 201.345H432.466L426.95 215.575H423.17L423.252 208.759C423.252 207.85 423.352 206.533 423.443 205.443H423.356C422.974 206.514 422.504 207.652 422.069 208.759L419.281 215.575H415.573L416.066 201.345Z" fill="#FFF9FD"/>
<path d="M311.117 60.5676H312.254L308.98 77.0239H316.745L316.534 77.9964H307.631L311.117 60.5676Z" fill="black"/>
<path d="M322.755 60.5676H323.893L320.408 77.9964H319.27L322.755 60.5676Z" fill="black"/>
<path d="M328.76 60.5676H330.389L332.072 70.7822L332.73 74.6431H332.835L334.843 70.7822L340.481 60.5676H342.111L338.625 77.9964H337.516L339.826 66.4763C340.148 65.0108 340.556 63.1909 340.901 61.7787H340.796L338.725 65.561L332.979 76.0393H332.011L330.187 65.561L329.562 61.7787H329.459C329.208 63.2388 328.951 65.0161 328.679 66.4763L326.373 77.9964H325.273L328.76 60.5676Z" fill="black"/>
<path d="M346.853 60.5676H347.991L344.506 77.9964H343.368L346.853 60.5676Z" fill="black"/>
<path d="M356.279 61.5894H350.942L351.154 60.5688H362.964L362.754 61.5894H357.415L354.147 77.9976H353.01L356.279 61.5894Z" fill="black"/>
<path d="M366.005 60.5676H375.192L374.981 61.5402H366.924L365.581 68.2682H372.399L372.188 69.2407H365.418L363.82 77.0212H372.135L371.923 77.9938H362.519L366.005 60.5676Z" fill="black"/>
<path d="M378.94 60.5676H381.818C386.63 60.5676 389.016 63.2548 389.016 67.3382C389.016 73.3681 385.747 77.9964 379.685 77.9964H375.454L378.94 60.5676ZM379.724 77.0398C384.913 77.0398 387.869 72.6713 387.869 67.4128C387.869 63.9063 385.864 61.5255 381.759 61.5255H379.865L376.755 77.0398H379.724Z" fill="black"/>
<path d="M396.319 71.0619C396.319 66.2324 399.42 60.2505 404.587 60.2505C408.411 60.2505 410.3 63.2281 410.3 67.502C410.3 72.3315 407.2 78.3134 402.032 78.3134C398.208 78.3148 396.319 75.3358 396.319 71.0619ZM409.152 67.6246C409.152 63.8529 407.772 61.235 404.518 61.235C400.038 61.235 397.466 66.8319 397.466 70.942C397.466 74.7136 398.847 77.3316 402.101 77.3316C406.582 77.3316 409.152 71.7347 409.152 67.6246Z" fill="black"/>
<path d="M415.551 60.5676H424.738L424.527 61.5402H416.47L415.069 68.6066H421.886L421.675 69.5791H414.905L413.202 77.9951H412.064L415.551 60.5676Z" fill="black"/>
<path d="M427.586 60.5676H436.774L436.562 61.5402H428.505L427.104 68.6066H433.921L433.711 69.5791H426.94L425.237 77.9951H424.1L427.586 60.5676Z" fill="black"/>
<path d="M439.621 60.5676H448.809L448.597 61.5402H440.541L439.198 68.2682H446.015L445.804 69.2407H439.034L437.436 77.0212H445.751L445.539 77.9938H436.135L439.621 60.5676Z" fill="black"/>
<path d="M452.557 60.5676H456.931C460.084 60.5676 462.063 61.6881 462.063 64.4019C462.063 67.9244 459.154 70.0241 455.367 70.0241H451.801L450.21 77.9951H449.072L452.557 60.5676ZM455.07 69.0742C458.821 69.0742 460.931 67.3449 460.931 64.5138C460.931 62.3395 459.412 61.5202 456.445 61.5202H453.482L452.011 69.0742H455.07ZM455.277 69.8775L456.245 69.318L459.81 77.9977H458.557L455.277 69.8775Z" fill="black"/>
<path d="M138.263 108.861H155.697C166.761 108.861 174.64 112.549 174.64 121.434C174.64 127.301 170.448 132.665 162.905 135.012L162.737 135.347C168.939 136.855 171.957 140.208 171.957 145.238C171.957 158.313 160.725 163.342 147.986 163.342H127.367L138.263 108.861ZM148.992 153.117C155.697 153.117 159.049 150.266 159.049 145.74C159.049 141.716 156.703 139.705 151.674 139.705H145.472L142.79 153.115H148.992V153.117ZM151.841 130.653C158.378 130.653 160.893 127.971 160.893 123.78C160.893 120.763 158.546 119.087 153.518 119.087H149.661L147.313 130.653H151.841Z" fill="black"/>
<path d="M189.556 108.861H202.965L194.248 152.11H214.03L211.85 163.342H178.659L189.556 108.861Z" fill="black"/>
<path d="M242.525 108.861H258.618L263.814 163.342H249.733L248.895 134.509C248.727 129.312 248.559 124.45 248.559 118.919H248.223C246.044 124.282 244.2 129.312 241.854 134.509L228.779 163.342H214.028L242.525 108.861ZM231.125 140.878H256.438L254.091 150.937H228.777L231.125 140.878Z" fill="black"/>
<path d="M271.356 141.214C271.356 121.769 284.597 107.855 300.691 107.855C307.061 107.855 312.426 111.041 315.61 116.74L306.559 123.781C304.547 120.764 302.535 119.423 300.021 119.423C292.142 119.423 285.102 128.643 285.102 140.377C285.102 148.256 288.12 152.782 295.495 152.782C298.345 152.782 301.363 151.105 303.877 148.925L309.408 157.474C306.391 160.325 300.357 164.348 292.646 164.348C279.905 164.346 271.356 155.965 271.356 141.214Z" fill="black"/>
<path d="M327.845 108.861H341.255L337.149 129.48H337.483L355.335 108.861H369.92L350.306 131.827L362.377 163.342H348.464L340.417 140.208L333.377 148.255L330.358 163.342H316.949L327.845 108.861Z" fill="black"/>
<path d="M396.737 108.861H429.928L427.748 120.092H407.8L405.621 131.323H422.551L420.372 142.554H403.441L399.25 163.341H385.84L396.737 108.861Z" fill="black"/>
<path d="M439.983 108.861H457.92C468.816 108.861 477.198 112.717 477.198 123.278C477.198 138.364 464.961 144.566 452.054 144.566H446.186L442.497 163.341H429.088L439.983 108.861ZM453.226 134.007C460.435 134.007 463.955 130.485 463.955 125.29C463.955 121.266 461.105 119.422 456.077 119.422H451.216L448.366 134.007H453.226ZM450.712 141.382L460.267 132.665L472.17 163.342H458.089L450.712 141.382Z" fill="black"/>
<path d="M491.278 108.861H504.687L493.79 163.342H480.381L491.278 108.861Z" fill="black"/>
<path d="M517.258 108.861H529.998C545.253 108.861 554.472 115.567 554.472 130.318C554.472 152.444 541.397 163.341 524.299 163.341H506.362L517.258 108.861ZM523.964 152.613C533.016 152.613 540.727 146.914 540.727 131.157C540.727 122.608 536.033 119.59 529.662 119.59H528.489L521.951 152.613H523.964Z" fill="black"/>
<path d="M579.615 108.861H595.707L600.903 163.342H586.822L585.984 134.509C585.816 129.312 585.648 124.45 585.648 118.919H585.313C583.133 124.282 581.289 129.312 578.943 134.509L565.868 163.342H551.117L579.615 108.861ZM568.214 140.878H593.527L591.18 150.937H565.867L568.214 140.878Z" fill="black"/>
<path d="M619.006 144.232L610.373 108.861H624.286L626.046 120.93C626.717 125.122 627.22 128.642 627.89 133.001H628.226C630.405 128.643 632.249 124.954 634.595 120.763L641.133 108.861H655.549L632.416 144.232L628.56 163.342H615.233L619.006 144.232Z" fill="black"/>
</g>
<defs>
<linearGradient id="paint0_linear_16_925" x1="642.851" y1="-237.117" x2="628.913" y2="149.037" gradientUnits="userSpaceOnUse">
<stop stop-color="white"/>
<stop offset="1" stop-color="white" stop-opacity="0"/>
</linearGradient>
<linearGradient id="paint1_linear_16_925" x1="147.303" y1="350.166" x2="132.546" y2="137.003" gradientUnits="userSpaceOnUse">
<stop stop-color="white"/>
<stop offset="1" stop-color="white" stop-opacity="0"/>
</linearGradient>
<linearGradient id="paint2_linear_16_925" x1="527.119" y1="227.981" x2="541.876" y2="441.143" gradientUnits="userSpaceOnUse">
<stop stop-color="white"/>
<stop offset="1" stop-color="white" stop-opacity="0"/>
</linearGradient>
</defs>
</svg>
